<svg id="Layer_1" data-name="Layer 1" xmlns="http://www.w3.org/2000/svg" viewBox="0 0 1000 900">
    <path d="M433.79,832.07h448.3a10,10,0,0,0,9.14-5.94L995.78,590.74a6,6,0,0,0-5.49-8.43h-267a10,10,0,0,0-9.13,5.92l-33.27,74.5a6,6,0,0,0,5.48,8.45H852.61a6,6,0,0,1,5.39,8.63l-28.18,57.77a10,10,0,0,1-9,5.62H572.67a6,6,0,0,1-5.49-8.42L851.25,91.19a6,6,0,0,0-5.49-8.42H580.44a10,10,0,0,0-9.14,5.93L282.07,737.27a10,10,0,0,1-9.13,5.93H208.16a6,6,0,0,1-5.49-8.44L488.56,91.2a6,6,0,0,0-5.48-8.43H399a10,10,0,0,0-9.14,5.94l-326,734.93a6,6,0,0,0,5.48,8.43H335a10,10,0,0,0,9.14-6L629,182.75a10,10,0,0,1,9.17-5.95l66.72.23a6,6,0,0,1,5.47,8.43L428.3,823.65A6,6,0,0,0,433.79,832.07Z"/>
</svg>