<svg id="Layer_1" data-name="Layer 1" xmlns="http://www.w3.org/2000/svg" viewBox="0 0 3424.25 900"><path d="M2776.81,415.38h228.91v44.85H2776.81Z"/><path d="M1109.89,689.51V415.3h46.41v229h159.45v45.22Z"/><path d="M1906.14,689.27v-274H1951v274Z"/><polygon points="1585.08 415.33 1585.08 689.27 1418.65 689.27 1357.14 627.75 1357.14 415.33 1403.13 415.33 1403.13 608.7 1437.7 643.27 1539.08 643.27 1539.08 415.33 1585.08 415.33"/><polygon points="1856.96 415.33 1856.96 483.82 1811.99 483.82 1811.99 460.31 1715 460.31 1677.07 498.24 1677.07 644.29 1856.96 644.29 1856.96 689.27 1632.09 689.27 1632.09 479.62 1696.38 415.33 1856.96 415.33"/><polygon points="2226.07 483.82 2226.07 460.24 2079.97 460.24 2041.97 498.24 2041.97 529.86 2271 529.86 2271 574.72 2270.93 574.72 2270.93 645.36 2271 645.36 2271 690.22 1997.04 690.22 1997.04 645.36 2226.07 645.36 2226.07 574.72 2041.97 574.72 2041.97 574.79 1997.11 574.79 1997.11 574.72 1997.04 574.72 1997.04 529.86 1997.11 529.86 1997.11 479.5 2061.24 415.38 2226.07 415.38 2226.07 415.33 2270.93 415.33 2270.93 415.38 2271 415.38 2271 460.24 2270.93 460.24 2270.93 483.82 2226.07 483.82"/><path d="M2685.91,689.27v-274h44.86v274Z"/><path d="M2913.73,483.82V690.29h-44.86V483.82Z"/><polygon points="2636.73 415.33 2636.73 483.82 2591.76 483.82 2591.76 460.31 2494.77 460.31 2456.84 498.24 2456.84 644.29 2636.73 644.29 2636.73 689.27 2411.86 689.27 2411.86 479.62 2476.14 415.33 2636.73 415.33"/><polygon points="3188.41 574.8 3188.41 689.78 3143.2 689.78 3143.2 574.72 3051.21 414.82 3097.2 414.82 3188.41 574.8"/><polygon points="3194.54 563.47 3280.93 414.82 3235.28 414.82 3171.78 523.63 3194.54 563.47"/><path d="M433.79,832.07h448.3a10,10,0,0,0,9.14-5.94L995.78,590.74a6,6,0,0,0-5.49-8.43h-267a10,10,0,0,0-9.13,5.92l-33.27,74.5a6,6,0,0,0,5.48,8.45H852.61a6,6,0,0,1,5.39,8.63l-28.18,57.77a10,10,0,0,1-9,5.62H572.67a6,6,0,0,1-5.49-8.42L851.25,91.19a6,6,0,0,0-5.49-8.42H580.44a10,10,0,0,0-9.14,5.93L282.07,737.27a10,10,0,0,1-9.13,5.93H208.16a6,6,0,0,1-5.49-8.44L488.56,91.2a6,6,0,0,0-5.48-8.43H399a10,10,0,0,0-9.14,5.94l-326,734.93a6,6,0,0,0,5.48,8.43H335a10,10,0,0,0,9.14-6L629,182.75a10,10,0,0,1,9.17-5.95l66.72.23a6,6,0,0,1,5.47,8.43L428.3,823.65A6,6,0,0,0,433.79,832.07Z"/></svg>