<svg id="Layer_1" data-name="Layer 1" xmlns="http://www.w3.org/2000/svg" viewBox="0 0 1079.42 1079.42"><path d="M788.87,893.35h98.28v19.26H788.87Z"/><path d="M73.23,1011V893.31H93.15v98.32h68.46V1011Z"/><path d="M415.08,1010.94V893.31h19.26v117.63Z"/><polygon points="277.24 893.33 277.24 1010.93 205.79 1010.93 179.38 984.53 179.38 893.33 199.12 893.33 199.12 976.35 213.97 991.19 257.49 991.19 257.49 893.33 277.24 893.33"/><polygon points="393.96 893.33 393.96 922.73 374.66 922.73 374.66 912.64 333.01 912.64 316.73 928.92 316.73 991.63 393.96 991.63 393.96 1010.93 297.42 1010.93 297.42 920.93 325.02 893.33 393.96 893.33"/><polygon points="552.43 922.73 552.43 912.61 489.71 912.61 473.39 928.92 473.39 942.5 571.72 942.5 571.72 961.76 571.69 961.76 571.69 992.08 571.72 992.08 571.72 1011.34 454.1 1011.34 454.1 992.08 552.43 992.08 552.43 961.76 473.39 961.76 473.39 961.79 454.13 961.79 454.13 961.76 454.1 961.76 454.1 942.5 454.13 942.5 454.13 920.88 481.66 893.35 552.43 893.35 552.43 893.33 571.69 893.33 571.69 893.35 571.72 893.35 571.72 912.61 571.69 912.61 571.69 922.73 552.43 922.73"/><path d="M749.85,1010.94V893.31h19.26v117.63Z"/><path d="M847.66,922.73v88.64H828.4V922.73Z"/><polygon points="728.74 893.33 728.74 922.73 709.43 922.73 709.43 912.64 667.79 912.64 651.5 928.92 651.5 991.63 728.74 991.63 728.74 1010.93 632.2 1010.93 632.2 920.93 659.79 893.33 728.74 893.33"/><polygon points="965.59 961.79 965.59 1011.15 946.18 1011.15 946.18 961.76 906.68 893.11 926.43 893.11 965.59 961.79"/><polygon points="968.22 956.93 1005.31 893.11 985.71 893.11 958.45 939.82 968.22 956.93"/><path d="M443.68,817.35H892a10,10,0,0,0,9.14-5.94L1005.67,576a6,6,0,0,0-5.49-8.44h-267a10,10,0,0,0-9.13,5.92L690.79,648a6,6,0,0,0,5.48,8.44H862.5a6,6,0,0,1,5.39,8.63l-28.18,57.78a10,10,0,0,1-9,5.61H582.56a6,6,0,0,1-5.49-8.42L861.14,76.47A6,6,0,0,0,855.65,68H590.33A10,10,0,0,0,581.19,74L292,722.55a10,10,0,0,1-9.13,5.92H218.05a6,6,0,0,1-5.49-8.43L498.45,76.48A6,6,0,0,0,493,68H408.92A10,10,0,0,0,399.78,74l-326,734.93a6,6,0,0,0,5.48,8.43H344.89a10,10,0,0,0,9.14-6L638.93,168a10,10,0,0,1,9.17-5.95l66.72.23a6,6,0,0,1,5.47,8.42L438.19,808.92A6,6,0,0,0,443.68,817.35Z"/></svg>