<svg id="Layer_1" data-name="Layer 1" xmlns="http://www.w3.org/2000/svg" viewBox="0 0 752.24 284.65"><defs><style>.cls-1{fill:#231f20;}</style></defs><path class="cls-1" d="M230.44,180.27H138.11a4.11,4.11,0,0,0-4.12,4.11v21.08a4.12,4.12,0,0,0,4.12,4.13h52.1a1.49,1.49,0,0,1,1.33,2.16l-5.4,10.82a3,3,0,0,1-2.71,1.67H122.36a3,3,0,0,1-3-3V28.41a3.87,3.87,0,0,0-5.3-3.6L49.51,50.62a5.52,5.52,0,0,0-3.46,5.13V221.68a2.57,2.57,0,0,1-2.57,2.56H33.94a2.56,2.56,0,0,1-2.56-2.56v-159a3.27,3.27,0,0,0-4.49-3l-22.46,9a3.78,3.78,0,0,0-2.37,3.49V249.6a4,4,0,0,0,4,4H71.38a4,4,0,0,0,4-3.95L75.36,76v-.22a3.2,3.2,0,0,1,1.74-2.61l9.58-4.78A2.31,2.31,0,0,1,90,70.41l0,180.28a2.87,2.87,0,0,0,2.87,2.87H203.55a5.53,5.53,0,0,0,5.13-3.47L234.32,186A4.17,4.17,0,0,0,230.44,180.27Z"/><path class="cls-1" d="M613.71,184.35v12h60.9a4.3,4.3,0,0,0,4.29-4.3v-12H618A4.29,4.29,0,0,0,613.71,184.35Z"/><path class="cls-1" d="M601.49,253.56h-8.17a4.06,4.06,0,0,1-4.06-4.06V184.12a4.06,4.06,0,0,1,4.06-4.06h8.17a4.06,4.06,0,0,1,4.07,4.06V249.5A4.07,4.07,0,0,1,601.49,253.56Z"/><path class="cls-1" d="M404.35,253.56h-8.17a4.07,4.07,0,0,1-4.07-4.06V184.12a4.06,4.06,0,0,1,4.07-4.06h8.17a4.06,4.06,0,0,1,4.06,4.06V249.5A4.06,4.06,0,0,1,404.35,253.56Z"/><path class="cls-1" d="M261.49,237.07h16a4.21,4.21,0,0,1,4.21,4.21v12.08H257.22v.2h-6.17a10.12,10.12,0,0,1-10.13-10.12V180.06H253a4.21,4.21,0,0,1,4.21,4.21V232.8A4.27,4.27,0,0,0,261.49,237.07Z"/><path class="cls-1" d="M306.12,184.3v69.26H294.07a4.24,4.24,0,0,1-4.25-4.24V180.06h12.05A4.24,4.24,0,0,1,306.12,184.3Z"/><path class="cls-1" d="M333.48,253.36h44.57a4.33,4.33,0,0,0,4.33-4.33v-12H338a4.47,4.47,0,0,1-4.47-4.46v-31.8a4.46,4.46,0,0,1,4.47-4.46h40.1a4.33,4.33,0,0,0,4.33-4.34v-12H327.24a10.05,10.05,0,0,0-10.05,10v53.41h0a9.85,9.85,0,0,0,9.85,9.85Z"/><path class="cls-1" d="M418.15,196.35v-12a4.24,4.24,0,0,1,4.25-4.24h60.9v12a4.25,4.25,0,0,1-4.25,4.25Z"/><path class="cls-1" d="M479,253.36H422.5a4.35,4.35,0,0,1-4.35-4.35V237.07h45.4A3.47,3.47,0,0,0,467,233.6v-5.28a3.47,3.47,0,0,0-3.47-3.47H422.5a4.35,4.35,0,0,1-4.35-4.35V208.56H479a4.29,4.29,0,0,1,4.29,4.29v36.23A4.29,4.29,0,0,1,479,253.36Z"/><path class="cls-1" d="M581.11,167.37V155.62H526.6a10.68,10.68,0,0,0-10.68,10.68h0v76.38a10.68,10.68,0,0,0,10.68,10.68h50a4.53,4.53,0,0,0,4.54-4.53V237.07H537a4.77,4.77,0,0,1-4.77-4.77V176.68a4.77,4.77,0,0,1,4.77-4.77h39.59A4.54,4.54,0,0,0,581.11,167.37Z"/><path class="cls-1" d="M653.8,206.15v47.21h-12a4.28,4.28,0,0,1-4.28-4.28V201.86h12A4.28,4.28,0,0,1,653.8,206.15Z"/><path class="cls-1" d="M735.94,184.52v23.54a4.58,4.58,0,0,1-4.58,4.58H707.93a4.58,4.58,0,0,1-4.58-4.58V184.52a4.47,4.47,0,0,0-4.47-4.47h-7.37a4.47,4.47,0,0,0-4.46,4.47v32.19a12.22,12.22,0,0,0,12.22,12.22H711.5v24.43h12.33a4,4,0,0,0,4-4V228.93H740a12.22,12.22,0,0,0,12.22-12.22V184.52a4.47,4.47,0,0,0-4.46-4.47h-7.37A4.47,4.47,0,0,0,735.94,184.52Z"/></svg>