<svg xmlns="http://www.w3.org/2000/svg" xmlns:xlink="http://www.w3.org/1999/xlink" viewBox="0 0 3424.25 900"><defs><style>.cls-1{fill:none;}.cls-2{isolation:isolate;}.cls-3{fill:url(#linear-gradient);}.cls-4{fill:url(#linear-gradient-2);}.cls-5{fill:url(#linear-gradient-3);}.cls-6{fill:url(#linear-gradient-4);}.cls-7{fill:url(#linear-gradient-5);}.cls-8{fill:url(#linear-gradient-6);}.cls-9{fill:url(#linear-gradient-7);}.cls-10{fill:url(#linear-gradient-8);}.cls-11{fill:url(#linear-gradient-9);}.cls-12{fill:url(#linear-gradient-10);}.cls-13{fill:url(#linear-gradient-11);}.cls-14{fill:url(#linear-gradient-12);}.cls-15{fill:url(#linear-gradient-13);}.cls-16{fill:url(#linear-gradient-14);}.cls-17{fill:url(#linear-gradient-15);}.cls-18{fill:url(#linear-gradient-16);}.cls-19{fill:url(#linear-gradient-17);}.cls-20{fill:url(#linear-gradient-18);}.cls-21{fill:url(#linear-gradient-19);}.cls-22{fill:url(#linear-gradient-20);}.cls-23{fill:url(#linear-gradient-21);}.cls-24{fill:url(#linear-gradient-22);}.cls-25{fill:#332d77;}.cls-26{clip-path:url(#clip-path);}.cls-27{fill:#342e7c;}.cls-28{clip-path:url(#clip-path-2);}.cls-29{clip-path:url(#clip-path-3);}.cls-30{clip-path:url(#clip-path-4);}.cls-31{clip-path:url(#clip-path-5);}.cls-32{clip-path:url(#clip-path-6);}.cls-33{fill:url(#linear-gradient-23);}.cls-34{fill:url(#linear-gradient-24);}.cls-35{fill:url(#linear-gradient-25);}.cls-36{fill:#046;}.cls-37{clip-path:url(#clip-path-7);}.cls-38{fill:url(#linear-gradient-26);}.cls-39{fill:url(#linear-gradient-27);}.cls-40{clip-path:url(#clip-path-8);}.cls-41{fill:url(#linear-gradient-28);}.cls-42{fill:url(#linear-gradient-29);}.cls-43{fill:url(#linear-gradient-30);}.cls-44{fill:url(#linear-gradient-31);}.cls-45{fill:url(#linear-gradient-32);}.cls-46,.cls-47,.cls-48,.cls-49,.cls-50,.cls-51{mix-blend-mode:color-dodge;}.cls-46{fill:url(#radial-gradient);}.cls-47{fill:url(#radial-gradient-2);}.cls-48{fill:url(#radial-gradient-3);}.cls-49{fill:url(#radial-gradient-4);}.cls-50{fill:url(#linear-gradient-33);}.cls-51{fill:url(#linear-gradient-34);}</style><linearGradient id="linear-gradient" x1="2982.74" y1="446.73" x2="2982.74" y2="736.35" gradientUnits="userSpaceOnUse"><stop offset="0" stop-color="#4b1f5c"/><stop offset="0.52" stop-color="#9f66ab"/><stop offset="1" stop-color="#4b1f5c"/></linearGradient><linearGradient id="linear-gradient-2" x1="1304.3" y1="438.52" x2="1304.3" y2="661.34" xlink:href="#linear-gradient"/><linearGradient id="linear-gradient-3" x1="2020.05" y1="438.52" x2="2020.05" y2="661.36" xlink:href="#linear-gradient"/><linearGradient id="linear-gradient-4" x1="1562.58" y1="438.52" x2="1562.58" y2="661.36" xlink:href="#linear-gradient"/><linearGradient id="linear-gradient-5" x1="1836.01" y1="453.99" x2="1836.01" y2="663.75" xlink:href="#linear-gradient"/><linearGradient id="linear-gradient-6" x1="2225.5" y1="453.99" x2="2225.5" y2="663.75" xlink:href="#linear-gradient"/><linearGradient id="linear-gradient-7" x1="2799.82" y1="438.52" x2="2799.82" y2="661.36" xlink:href="#linear-gradient"/><linearGradient id="linear-gradient-8" x1="2982.78" y1="433.38" x2="2982.78" y2="660.49" xlink:href="#linear-gradient"/><linearGradient id="linear-gradient-9" x1="2615.77" y1="453.99" x2="2615.77" y2="663.75" xlink:href="#linear-gradient"/><linearGradient id="linear-gradient-10" x1="3211.29" y1="438.55" x2="3211.29" y2="661.33" xlink:href="#linear-gradient"/><linearGradient id="linear-gradient-11" x1="3313.67" y1="437.11" x2="3313.67" y2="648.45" xlink:href="#linear-gradient"/><linearGradient id="linear-gradient-12" x1="2877.09" y1="433.56" x2="3106" y2="433.56" gradientUnits="userSpaceOnUse"><stop offset="0" stop-color="#f3f3f3"/><stop offset="1" stop-color="#ccc"/></linearGradient><linearGradient id="linear-gradient-13" x1="1210.17" y1="548.16" x2="1416.03" y2="548.16" xlink:href="#linear-gradient-12"/><linearGradient id="linear-gradient-14" x1="2006.42" y1="548.04" x2="2051.28" y2="548.04" xlink:href="#linear-gradient-12"/><linearGradient id="linear-gradient-15" x1="1457.42" y1="548.06" x2="1685.35" y2="548.06" xlink:href="#linear-gradient-12"/><linearGradient id="linear-gradient-16" x1="1732.37" y1="548.06" x2="1957.24" y2="548.06" xlink:href="#linear-gradient-12"/><linearGradient id="linear-gradient-17" x1="2097.32" y1="548.53" x2="2371.28" y2="548.53" xlink:href="#linear-gradient-12"/><linearGradient id="linear-gradient-18" x1="2786.19" y1="548.04" x2="2831.05" y2="548.04" xlink:href="#linear-gradient-12"/><linearGradient id="linear-gradient-19" x1="2969.15" y1="582.81" x2="3014.01" y2="582.81" xlink:href="#linear-gradient-12"/><linearGradient id="linear-gradient-20" x1="2512.14" y1="548.06" x2="2737.01" y2="548.06" xlink:href="#linear-gradient-12"/><linearGradient id="linear-gradient-21" x1="3151.49" y1="548.06" x2="3288.69" y2="548.06" xlink:href="#linear-gradient-12"/><linearGradient id="linear-gradient-22" x1="3272.06" y1="484.91" x2="3381.21" y2="484.91" xlink:href="#linear-gradient-12"/><clipPath id="clip-path"><path class="cls-1" d="M686.8,191.9l7.5-.12h.09Z"/></clipPath><clipPath id="clip-path-2"><path class="cls-1" d="M611.44,97.47l21.22-34.06a27.75,27.75,0,0,0-1.88,3.53L609.56,101A27.75,27.75,0,0,1,611.44,97.47Z"/></clipPath><clipPath id="clip-path-3"><path class="cls-1" d="M429.22,97.46,450.44,63.4a29.28,29.28,0,0,0-1.89,3.54L427.34,101A27.88,27.88,0,0,1,429.22,97.46Z"/></clipPath><clipPath id="clip-path-4"><path class="cls-1" d="M755.78,593,777,559a28,28,0,0,0-1.88,3.55L753.9,596.59A28,28,0,0,1,755.78,593Z"/></clipPath><clipPath id="clip-path-5"><path class="cls-1" d="M893.72,705.64,872.51,739.7a5.12,5.12,0,0,0,.3-.57L894,705.07A3.91,3.91,0,0,1,893.72,705.64Z"/></clipPath><clipPath id="clip-path-6"><path class="cls-1" d="M922.61,852.19l-7.62.12h-.48l7.59-.12Z"/></clipPath><linearGradient id="linear-gradient-23" x1="743.24" y1="625.78" x2="928.84" y2="625.78" gradientUnits="userSpaceOnUse"><stop offset="0" stop-color="#4b1f5c"/><stop offset="0.44" stop-color="#9f66ab"/><stop offset="0.56" stop-color="#e8c6df"/><stop offset="0.67" stop-color="#e8c6df"/><stop offset="0.81" stop-color="#9f66ab"/><stop offset="1" stop-color="#4b1f5c"/></linearGradient><linearGradient id="linear-gradient-24" x1="818.46" y1="305.88" x2="818.46" y2="666.23" xlink:href="#linear-gradient-23"/><linearGradient id="linear-gradient-25" x1="647.54" y1="378.23" x2="934.52" y2="378.23" xlink:href="#linear-gradient-23"/><clipPath id="clip-path-7"><path class="cls-1" d="M347,705.64,325.81,739.7a3.91,3.91,0,0,0,.31-.57l21.22-34.06A3.91,3.91,0,0,1,347,705.64Z"/></clipPath><linearGradient id="linear-gradient-26" x1="719.24" y1="305.88" x2="719.24" y2="666.23" xlink:href="#linear-gradient-23"/><linearGradient id="linear-gradient-27" x1="342.26" y1="377.98" x2="668.42" y2="377.98" xlink:href="#linear-gradient-23"/><clipPath id="clip-path-8"><path class="cls-1" d="M375.92,852.19l-7.62.12h-.48l7.59-.12Z"/></clipPath><linearGradient id="linear-gradient-28" x1="283.08" y1="378.23" x2="570.06" y2="378.23" xlink:href="#linear-gradient-23"/><linearGradient id="linear-gradient-29" x1="605.97" y1="87.63" x2="605.97" y2="878.07" gradientUnits="userSpaceOnUse"><stop offset="0" stop-color="#e8c6df"/><stop offset="0.28" stop-color="#9f66ab"/><stop offset="0.6" stop-color="#9d64a9"/><stop offset="0.72" stop-color="#965ea3"/><stop offset="0.81" stop-color="#8a5497"/><stop offset="0.89" stop-color="#784587"/><stop offset="0.95" stop-color="#623372"/><stop offset="1" stop-color="#4b1f5c"/></linearGradient><linearGradient id="linear-gradient-30" x1="123.34" y1="432.93" x2="1078.85" y2="432.93" xlink:href="#linear-gradient-23"/><linearGradient id="linear-gradient-31" x1="275.34" y1="305.88" x2="275.34" y2="666.23" xlink:href="#linear-gradient-23"/><linearGradient id="linear-gradient-32" x1="275.34" y1="305.88" x2="275.34" y2="666.23" xlink:href="#linear-gradient-23"/><radialGradient id="radial-gradient" cx="813.85" cy="1153.25" r="76.46" gradientTransform="matrix(1, -0.01, 0, 0.38, -3.15, 258.85)" gradientUnits="userSpaceOnUse"><stop offset="0" stop-color="#932a8e"/><stop offset="0.94" stop-color="#932a8e" stop-opacity="0"/></radialGradient><radialGradient id="radial-gradient-2" cx="614.61" cy="514.31" r="260.84" gradientTransform="translate(342.39 1066.23) rotate(-66.65) scale(1 0.06)" gradientUnits="userSpaceOnUse"><stop offset="0" stop-color="#fff"/><stop offset="0.68" stop-color="#fff" stop-opacity="0"/></radialGradient><radialGradient id="radial-gradient-3" cx="267.42" cy="472.28" r="347.91" gradientTransform="translate(134.43 706.05) rotate(-66.48) scale(1 0.06)" gradientUnits="userSpaceOnUse"><stop offset="0" stop-color="#fff"/><stop offset="0.9" stop-color="#fff" stop-opacity="0"/></radialGradient><radialGradient id="radial-gradient-4" cx="-4133.06" cy="-10560.52" r="378.19" gradientTransform="translate(2453.63 1429.4) scale(0.42 0.06)" xlink:href="#radial-gradient-2"/><linearGradient id="linear-gradient-33" x1="708.55" y1="859.37" x2="708.55" y2="827.5" gradientTransform="matrix(1, 0, 0, 1, 0, 0)" xlink:href="#radial-gradient"/><linearGradient id="linear-gradient-34" x1="256.3" y1="855.48" x2="256.3" y2="826.64" gradientUnits="userSpaceOnUse"><stop offset="0" stop-color="#932a8e"/><stop offset="1" stop-color="#932a8e" stop-opacity="0"/></linearGradient></defs><g class="cls-2"><g id="Layer_1" data-name="Layer 1"><path class="cls-3" d="M2859.48,428.21l17.61-17.08,211.31,17.08L3106,456l-17.6,17.08H2859.48Z"/><path class="cls-4" d="M1192.56,702.35V428.14l17.61-17.08,28.8,17.08v229h159.46l17.6,28.14-17.6,17.08Z"/><path class="cls-5" d="M1988.82,702.11v-274l17.6-17.08,27.26,17.08L2051.28,685l-17.6,17.08Z"/><polygon class="cls-6" points="1667.75 428.17 1685.35 685.03 1667.75 702.11 1501.32 702.11 1439.81 640.59 1439.81 428.17 1457.42 411.09 1485.81 428.17 1485.81 621.54 1520.38 656.11 1621.75 656.11 1621.75 428.17 1639.36 411.09 1667.75 428.17"/><polygon class="cls-7" points="1939.64 428.17 1957.24 479.58 1939.64 496.66 1894.66 496.66 1894.66 473.15 1797.67 473.15 1759.74 511.08 1759.74 657.13 1939.64 657.13 1957.24 685.03 1939.64 702.11 1714.77 702.11 1714.77 492.45 1779.05 428.17 1939.64 428.17"/><polygon class="cls-8" points="2308.74 496.66 2308.74 473.08 2162.65 473.08 2124.64 511.08 2124.64 542.69 2353.68 542.69 2353.68 587.55 2353.61 587.55 2353.61 658.2 2371.28 685.98 2353.68 703.06 2079.71 703.06 2079.71 658.2 2097.32 641.12 2308.74 658.2 2308.74 587.55 2124.64 587.55 2124.64 587.63 2079.78 587.63 2079.78 587.55 2079.71 587.55 2079.71 542.69 2079.78 542.69 2079.78 492.34 2143.91 428.21 2308.74 428.21 2308.74 428.17 2353.61 428.17 2353.61 428.21 2353.68 428.21 2353.68 473.08 2371.21 479.58 2353.61 496.66 2308.74 496.66"/><path class="cls-9" d="M2768.59,702.11v-274l17.6-17.08,27.25,17.08L2831.05,685l-17.61,17.08Z"/><path class="cls-10" d="M2996.41,496.66,3014,686.05l-17.6,17.08h-44.86V496.66l17.6-17.08Z"/><polygon class="cls-11" points="2719.41 428.17 2737.01 479.58 2719.41 496.66 2674.43 496.66 2674.43 473.15 2577.44 473.15 2539.51 511.08 2539.51 657.13 2719.41 657.13 2737.01 685.03 2719.41 702.11 2494.53 702.11 2494.53 492.45 2558.82 428.17 2719.41 428.17"/><polygon class="cls-12" points="3271.09 587.64 3288.69 685.54 3271.09 702.62 3225.88 702.62 3225.88 587.55 3133.88 427.66 3151.49 410.58 3179.88 427.66 3271.09 587.64"/><polygon class="cls-13" points="3286.49 560.35 3294.82 559.23 3363.61 427.66 3335.56 410.58 3317.95 427.66 3263.72 520.51 3286.49 560.35"/><path class="cls-14" d="M2877.09,411.13H3106V456H2877.09Z"/><path class="cls-15" d="M1210.17,685.27V411.06h46.41v229H1416v45.22Z"/><path class="cls-16" d="M2006.42,685v-274h44.86V685Z"/><polygon class="cls-17" points="1685.35 411.09 1685.35 685.03 1518.93 685.03 1457.42 623.51 1457.42 411.09 1503.41 411.09 1503.41 604.46 1537.98 639.03 1639.36 639.03 1639.36 411.09 1685.35 411.09"/><polygon class="cls-18" points="1957.24 411.09 1957.24 479.58 1912.27 479.58 1912.27 456.07 1815.28 456.07 1777.35 494 1777.35 640.05 1957.24 640.05 1957.24 685.03 1732.37 685.03 1732.37 475.38 1796.65 411.09 1957.24 411.09"/><polygon class="cls-19" points="2326.35 479.58 2326.35 456 2180.25 456 2142.25 494 2142.25 525.61 2371.28 525.61 2371.28 570.48 2371.21 570.48 2371.21 641.12 2371.28 641.12 2371.28 685.98 2097.32 685.98 2097.32 641.12 2326.35 641.12 2326.35 570.48 2142.25 570.48 2142.25 570.55 2097.39 570.55 2097.39 570.48 2097.32 570.48 2097.32 525.61 2097.39 525.61 2097.39 475.26 2161.52 411.13 2326.35 411.13 2326.35 411.09 2371.21 411.09 2371.21 411.13 2371.28 411.13 2371.28 456 2371.21 456 2371.21 479.58 2326.35 479.58"/><path class="cls-20" d="M2786.19,685v-274h44.86V685Z"/><path class="cls-21" d="M3014,479.58V686.05h-44.86V479.58Z"/><polygon class="cls-22" points="2737.01 411.09 2737.01 479.58 2692.04 479.58 2692.04 456.07 2595.05 456.07 2557.11 494 2557.11 640.05 2737.01 640.05 2737.01 685.03 2512.14 685.03 2512.14 475.38 2576.42 411.09 2737.01 411.09"/><polygon class="cls-23" points="3288.69 570.56 3288.69 685.54 3243.48 685.54 3243.48 570.48 3151.49 410.58 3197.48 410.58 3288.69 570.56"/><polygon class="cls-24" points="3294.82 559.23 3381.21 410.58 3335.56 410.58 3272.06 519.39 3294.82 559.23"/><polygon class="cls-25" points="745.02 191.78 737.43 191.9 686.8 191.9 694.38 191.78 745.02 191.78"/><g class="cls-2"><g class="cls-26"><g class="cls-2"><path class="cls-27" d="M694.39,191.78l-7.59.12h-.21l7.71-.12h.09"/></g></g></g><g class="cls-2"><g class="cls-28"><g class="cls-2"><path class="cls-27" d="M630.78,66.94,609.56,101a27.75,27.75,0,0,1,1.88-3.53l21.22-34.06a27.75,27.75,0,0,0-1.88,3.53"/></g></g></g><g class="cls-2"><g class="cls-29"><g class="cls-2"><path class="cls-27" d="M448.55,66.94,427.34,101a27.88,27.88,0,0,1,1.88-3.54L450.44,63.4a29.28,29.28,0,0,0-1.89,3.54"/></g></g></g><g class="cls-2"><g class="cls-30"><g class="cls-2"><path class="cls-27" d="M775.12,562.53,753.9,596.59a28,28,0,0,1,1.88-3.55L777,559a28,28,0,0,0-1.88,3.55"/></g></g></g><g class="cls-2"><g class="cls-31"><g class="cls-2"><path class="cls-27" d="M893.72,705.64,872.51,739.7a5.12,5.12,0,0,0,.3-.57L894,705.07a3.91,3.91,0,0,1-.31.57"/></g></g></g><g class="cls-2"><g class="cls-32"><g class="cls-2"><path class="cls-27" d="M922.72,852.19l-7.73.12h-.48l7.59-.12h.62"/></g></g></g><path class="cls-33" d="M928.77,650.29c0-.06,0-.13,0-.2-.05-.31-.12-.63-.2-.94s0-.33-.1-.49a.78.78,0,0,0,0-.14c-.07-.24-.16-.48-.25-.72s-.13-.41-.22-.61l-.07-.15c-.09-.19-.19-.38-.29-.57s-.19-.42-.3-.62-.09-.14-.14-.21-.2-.33-.3-.49-.21-.34-.32-.5-.18-.23-.27-.35-.2-.27-.31-.4l-.23-.3c-.2-.23-.41-.46-.63-.68l-.15-.17,0,0c-.26-.27-.54-.53-.83-.78l-.27-.22-.26-.21-.32-.27c-.32-.24-.64-.47-1-.68h0l-.14-.08c-.4-.25-.81-.5-1.24-.72l-.13-.06c-.32-.16-.66-.3-1-.44s-.52-.24-.79-.34-.74-.24-1.12-.35-.47-.16-.73-.22l-.09,0-.37-.08c-.48-.1-1-.19-1.47-.25l-.63-.07-.66-.07c-.37,0-.73,0-1.11,0h-150a5.25,5.25,0,0,1-.56,0,7.69,7.69,0,0,1-1.1-.14l-.13,0a5.42,5.42,0,0,1-1.23-.43,5.48,5.48,0,0,1-.52-.31l0,0a4.54,4.54,0,0,1-.48-.39l0,0a5.92,5.92,0,0,1-.41-.45l-.06-.09a3.48,3.48,0,0,1-.34-.51s-.05-.09-.08-.14a4.68,4.68,0,0,1-.2-.45l-.09-.23-.12-.43c0-.11-.06-.22-.08-.33l-.06-.37c0-.19,0-.38-.05-.58s0-.23,0-.35a8.27,8.27,0,0,1,0-1.1c0-.07,0-.13,0-.2s0-.28.06-.42.07-.42.11-.65l.12-.48c0-.21.1-.43.16-.65.13-.46.28-.93.46-1.43l30.37-68.34h0c.29-.65.61-1.28,1-1.9.12-.22.25-.44.38-.65.22-.37.44-.74.68-1.09l.48-.68c.23-.33.48-.66.73-1l.54-.66c.26-.31.53-.61.8-.91l.58-.61.89-.86.65-.6.5-.42c.29-.24.59-.49.9-.72l.53-.4c.32-.24.65-.46,1-.69l.48-.32c.46-.3.94-.59,1.42-.86l.1-.06c.51-.29,1-.55,1.57-.81l.5-.23,1.12-.49.6-.23,1.08-.38.61-.2c.34-.11.69-.2,1-.29l.76-.2c.35-.08.69-.15,1-.21l.74-.14,1.11-.15.68-.08c.43,0,.87-.06,1.3-.07l.53,0h-.08l-7.62.12q-1.17,0-2.31.12l-.76.09-1.53.19-.89.17c-.46.08-.91.17-1.36.27l-.94.23-.92.23-.39.13-.75.23c-.45.15-.9.3-1.35.47l-.75.29c-.47.18-.92.37-1.37.57l-.65.29c-.62.29-1.24.6-1.84.93l-.1,0c-.63.35-1.25.72-1.86,1.1l-.56.37-1.24.85-.63.47c-.37.28-.74.57-1.1.87l-.6.5-.33.28c-.16.14-.31.31-.47.45-.36.34-.72.68-1.06,1s-.48.49-.71.74-.65.71-1,1.08-.44.52-.65.79-.59.77-.88,1.17l-.57.81c-.28.42-.54.86-.8,1.3-.12.2-.26.39-.38.6a1.4,1.4,0,0,1-.09.17c-.41.74-.79,1.49-1.13,2.27l-30.37,68.34a20,20,0,0,0-.71,1.89l-.12.37-.09.3c-.09.32-.13.63-.2,1s-.14.56-.18.85-.1.81-.13,1.21-.06.52-.07.78c0,0,0,.07,0,.11a15,15,0,0,0,.06,1.65c0,.15,0,.29.05.44s0,.52.09.77.09.48.14.71,0,.16,0,.23c.09.41.2.82.33,1.22l.12.29c.09.26.19.51.3.76s.15.42.24.62.14.25.2.37l.3.56c.08.15.15.3.24.45s.29.43.44.65.15.24.23.35l.11.16a12.37,12.37,0,0,0,.8,1l.15.17.21.22c.13.14.27.3.41.44l.79.73.06,0,.09.07c.22.19.45.37.68.55s.51.36.77.53l.11.08.06,0a15.78,15.78,0,0,0,1.39.81l.15.07c.3.15.61.27.91.4s.66.3,1,.43.65.2,1,.3.58.2.88.28l.23,0,.64.13c.46.09.93.18,1.42.24l.76.08.63.07q.65,0,1.32,0h150a4.92,4.92,0,0,1,1,.12l.14,0c.13,0,.24.09.37.13a4.57,4.57,0,0,1,.65.24,3.86,3.86,0,0,1,.79.52l0,0a4.43,4.43,0,0,1,.62.68l0,.06a4.37,4.37,0,0,1,.41.77.14.14,0,0,0,0,.07,3.39,3.39,0,0,1,.19.85.5.5,0,0,1,0,.12,3.68,3.68,0,0,1,0,.87,2.07,2.07,0,0,1,0,.22,4.2,4.2,0,0,1-.28.92L894,705.07a4.16,4.16,0,0,1-.28.51,2.7,2.7,0,0,1-.27.39l-.2.27c-.1.12-.22.24-.34.36l-.21.21a6.37,6.37,0,0,1-.9.64l-.2.11a6.51,6.51,0,0,1-1,.45l-.28.06a4,4,0,0,1-.5.11c-.11,0-.22,0-.33,0a4.38,4.38,0,0,1-.52,0H889l7.5-.12a12.93,12.93,0,0,0,1.89-.14c.21,0,.4-.08.6-.12a11.21,11.21,0,0,0,1.18-.25h0a13.84,13.84,0,0,0,1.45-.52l.41-.19a9.6,9.6,0,0,0,1-.49l.45-.28a9.92,9.92,0,0,0,.82-.57l.38-.3.18-.14c.13-.12.23-.25.34-.36a8.45,8.45,0,0,0,.66-.68c.15-.18.28-.36.42-.55s.35-.49.51-.75c0-.08.12-.16.17-.25.14-.25.27-.5.39-.76l20.5-46.18a8,8,0,0,0,.51-1.21,2.25,2.25,0,0,0,.08-.24,1.52,1.52,0,0,0,.06-.2,7.24,7.24,0,0,0,.22-1.05,2,2,0,0,0,0-.23c0-.21.06-.41.07-.61s0-.37,0-.56v-.2C928.83,651,928.81,650.63,928.77,650.29Z"/><path class="cls-34" d="M914.85,657.81a3.76,3.76,0,0,0,0-.88c0-.06,0-.11,0-.17a3.34,3.34,0,0,0-.19-.83l0-.09a3.6,3.6,0,0,0-.39-.72l0-.09a3,3,0,0,0-.4-.47l-.16-.14-.18-.15a4.45,4.45,0,0,0-.68-.45l-.08,0h0a3.55,3.55,0,0,0-.65-.22,2.69,2.69,0,0,0-.34-.12,5.07,5.07,0,0,0-1.13-.13h-150a22.34,22.34,0,0,1-2.34-.12c-.26,0-.5-.09-.75-.12-.49-.08-1-.14-1.46-.25-.29-.07-.56-.16-.84-.24s-.84-.21-1.23-.35-.56-.23-.84-.34-.75-.3-1.1-.47l-.27-.14c-.46-.24-.91-.5-1.35-.77l-.39-.26c-.49-.33-1-.68-1.42-1l-.11-.1a16.22,16.22,0,0,1-1.19-1.15l-.23-.24a16.72,16.72,0,0,1-1.05-1.31l-.17-.24a17.16,17.16,0,0,1-.9-1.48l0,0a14.55,14.55,0,0,1-.7-1.56c0-.09-.07-.17-.1-.26a14.25,14.25,0,0,1-.48-1.61,3,3,0,0,1-.07-.32,13.68,13.68,0,0,1-.27-1.7,1.48,1.48,0,0,1,0-.21,13.84,13.84,0,0,1,0-1.71v-.2c0-.59.1-1.2.19-1.8l.06-.35a17,17,0,0,1,.43-1.81c0-.11.07-.21.1-.32a17.22,17.22,0,0,1,.72-1.91l30.37-68.34L753.9,596.59l-30.37,68.34a17.22,17.22,0,0,0-.72,1.91c0,.11-.07.21-.1.32a17,17,0,0,0-.43,1.81l-.06.35c-.09.6-.16,1.2-.19,1.8v.2a13.84,13.84,0,0,0,.05,1.71,1.48,1.48,0,0,0,0,.21,13.68,13.68,0,0,0,.27,1.7c0,.11,0,.22.07.32a14.25,14.25,0,0,0,.48,1.61c0,.09.07.17.1.26a14.55,14.55,0,0,0,.7,1.56l0,0a15.07,15.07,0,0,0,.91,1.48l.16.24a14.8,14.8,0,0,0,1.06,1.31l.22.24c.11.12.22.25.34.36a10.73,10.73,0,0,0,.86.79l.1.1c.45.37.93.72,1.42,1l.39.26c.44.27.89.53,1.35.77l.27.14.1,0c.32.16.67.28,1,.42s.54.24.83.34.81.24,1.23.35.55.17.84.24c.47.11,1,.17,1.46.25.26,0,.49.09.75.12a22.34,22.34,0,0,0,2.34.12h150a5.24,5.24,0,0,1,1.14.13c.12,0,.22.08.34.12a4.67,4.67,0,0,1,.66.23l.08,0a4.45,4.45,0,0,1,.68.45l.18.15a4,4,0,0,1,.56.61l0,.09a3.6,3.6,0,0,1,.39.72l0,.09a3.24,3.24,0,0,1,.19.83c0,.06,0,.11,0,.17a3.76,3.76,0,0,1,0,.88l0,.15a4.48,4.48,0,0,1-.29,1l-20.5,46.16L894,705.07l20.5-46.16a4.48,4.48,0,0,0,.29-.95Z"/><path class="cls-35" d="M934.51,63.54c0-.2,0-.4,0-.59a2.43,2.43,0,0,0,0-.27c0-.36,0-.72-.09-1.07,0-.06,0-.11,0-.17-.06-.43-.13-.86-.22-1.28l-.06-.21c0-.12-.06-.24-.1-.37-.09-.37-.21-.74-.33-1.1-.05-.13-.09-.25-.14-.37a1.42,1.42,0,0,0-.07-.22c-.15-.38-.32-.76-.51-1.13,0,0,0,0,0,0-1.13-2.24-1.85-3.67-2.48-5l-.12-.23c-.17-.36-.35-.72-.52-1.09,0,.09.07.19.11.29a3.84,3.84,0,0,1,.2.6,2.46,2.46,0,0,1,.07.29,6.45,6.45,0,0,1,.11.68l0,.26a7.88,7.88,0,0,1,0,1.09c0,.07,0,.14,0,.21q0,.55-.15,1.17c0,.13-.05.26-.07.39l-.12.51c0,.2-.1.39-.16.6s-.1.36-.16.55-.18.58-.29.88L648.51,690.33a7.55,7.55,0,0,0-.43,1s0,0,0,.06,0,.14-.07.21a7.27,7.27,0,0,0-.22.8c0,.11,0,.22-.07.33s-.05.21-.06.32,0,.3,0,.45a2.64,2.64,0,0,0,0,.28,6.81,6.81,0,0,0,0,1v0a1,1,0,0,0,0,.17c0,.3,0,.6.09.91l.06.33c0,.11,0,.22.06.34s.07.29.11.44l.09.33a10.94,10.94,0,0,0,.35,1.06h0a.43.43,0,0,1,0,.07c.13.33.28.67.44,1l.05.11c1.1,2.15,2.2,4.31,3.28,6.47a3.43,3.43,0,0,1-.25-.7l0-.2a3.81,3.81,0,0,1-.07-.59,1.09,1.09,0,0,1,0-.18,4.08,4.08,0,0,1,.07-.77,1.09,1.09,0,0,1,0-.17,3.92,3.92,0,0,1,.25-.78L933,70.26c.12-.27.24-.55.34-.83s.1-.3.15-.45c.12-.35.24-.69.34-1s.15-.56.22-.84.15-.68.21-1c0-.16.07-.33.09-.49s0-.27,0-.41,0-.41.06-.61S934.51,63.88,934.51,63.54Z"/><polygon class="cls-36" points="347.34 705.07 326.12 739.13 609.56 101 630.78 66.94 347.34 705.07"/><g class="cls-2"><g class="cls-37"><g class="cls-2"><path class="cls-27" d="M347,705.64,325.81,739.7a3.91,3.91,0,0,0,.31-.57l21.22-34.06a3.91,3.91,0,0,1-.31.57"/></g></g></g><path class="cls-38" d="M971.9,802.58l-21.22,34.06h0c-.06.08-.1.16-.15.23-.31.47-.62.94-.94,1.39-.14.18-.28.35-.4.53l-.81,1c-.17.19-.35.39-.51.59s-.52.61-.8.9-.38.4-.58.59-.31.34-.48.51a3.2,3.2,0,0,0-.27.25c-.36.34-.72.66-1.09,1-.21.2-.41.37-.62.55-.44.36-.89.71-1.33,1-.17.12-.32.25-.49.36-.61.45-1.25.88-1.89,1.29-.16.08-.31.18-.46.26-.51.32-1,.61-1.54.9l-.74.37c-.44.22-.9.44-1.35.64l-.83.38-1.33.53-.87.31c-.45.16-.92.31-1.39.45L931,851c-.53.13-1.06.27-1.59.38l-.57.14-.15,0-.44.07h0c-.48.1-1,.18-1.46.25l-.64.08c-.47.06-.93.1-1.39.14l-.61,0c-.66,0-1.31.07-2,.07H483.93a19.78,19.78,0,0,1-2.34-.13c-.25,0-.5-.08-.75-.12-.49-.07-1-.14-1.47-.25l-.84-.23c-.41-.11-.82-.22-1.22-.36s-.55-.23-.83-.34-.69-.27-1-.42a.36.36,0,0,1-.09-.05c-.1,0-.18-.1-.26-.14a14.14,14.14,0,0,1-1.37-.77c-.12-.08-.26-.16-.38-.25a15.42,15.42,0,0,1-1.42-1.06l-.11-.11c-.29-.24-.58-.51-.85-.77a4,4,0,0,1-.35-.37,2.39,2.39,0,0,0-.22-.23c-.37-.43-.73-.86-1.06-1.31-.05-.08-.11-.16-.16-.25a17.1,17.1,0,0,1-.91-1.47s0,0,0,0a14.71,14.71,0,0,1-.7-1.57c0-.08-.07-.16-.1-.26a12.45,12.45,0,0,1-.48-1.61,1.65,1.65,0,0,1-.07-.32,13.85,13.85,0,0,1-.28-1.69,1.55,1.55,0,0,0,0-.22c0-.56-.05-1.13,0-1.71V836c0-.59.1-1.2.19-1.8,0-.11,0-.24.06-.35a16.89,16.89,0,0,1,.42-1.81c0-.1.07-.21.11-.31a15.84,15.84,0,0,1,.72-1.91l.85-1.93L749,197.38a4.31,4.31,0,0,0,.29-.95c0-.05,0-.09,0-.15a3.72,3.72,0,0,0,0-.88c0-.06,0-.11,0-.17a2.88,2.88,0,0,0-.19-.82s0-.06,0-.08a4.19,4.19,0,0,0-.38-.73.53.53,0,0,1-.06-.1,3.19,3.19,0,0,0-.56-.6l-.18-.16a5.16,5.16,0,0,0-.67-.44l-.09-.05c-.2-.1-.42-.15-.66-.24s-.22-.08-.34-.11a5.15,5.15,0,0,0-1.13-.12H694.39a5.58,5.58,0,0,0-1,.1,1.23,1.23,0,0,0-.25.05c-.16,0-.31.08-.48.14l-.26.08-.51.22-.19.1a7.06,7.06,0,0,0-.65.4.94.94,0,0,1-.12.09c-.17.13-.32.27-.47.4s-.07.09-.11.11a5.63,5.63,0,0,0-.71.9l21.21-34.07a6.14,6.14,0,0,1,.72-.88s0-.06.07-.07,0,0,0,0,.32-.27.47-.39l.12-.1a5,5,0,0,1,.65-.4l.19-.09a2.91,2.91,0,0,1,.51-.22l.27-.1.47-.14.14,0a.23.23,0,0,1,.11,0,4.86,4.86,0,0,1,1-.11h50.64a5.94,5.94,0,0,1,1.14.13,2.19,2.19,0,0,1,.33.12,3.89,3.89,0,0,1,.63.22h0l.08.05a4.54,4.54,0,0,1,.69.45l.17.14.16.14a3.64,3.64,0,0,1,.4.48.24.24,0,0,1,.06.08,4.22,4.22,0,0,1,.38.73l0,.08a3.31,3.31,0,0,1,.18.84,1,1,0,0,1,0,.17,3.74,3.74,0,0,1,0,.88.33.33,0,0,0,0,.15,4.53,4.53,0,0,1-.3,1l-7.8,17.55L489.31,795.7c-.29.65-.51,1.28-.72,1.91,0,.11-.07.21-.1.32a18.1,18.1,0,0,0-.44,1.8c0,.13,0,.24-.05.36a14.11,14.11,0,0,0-.19,1.8v.2a16.46,16.46,0,0,0,0,1.72,1.27,1.27,0,0,1,0,.2,14.17,14.17,0,0,0,.28,1.71l.06.32a14.94,14.94,0,0,0,.49,1.61c0,.08.06.17.09.26a15.55,15.55,0,0,0,.7,1.55s0,0,0,0a15.21,15.21,0,0,0,.91,1.49l.16.23a15.14,15.14,0,0,0,1.06,1.31l.22.23a11,11,0,0,0,1.2,1.16l.11.1a15.42,15.42,0,0,0,1.42,1.06l.38.24c.44.28.89.54,1.36.79l.26.13c.36.17.75.32,1.12.47s.53.24.82.35.83.23,1.24.34.55.18.84.25l1.46.25c.26,0,.5.08.74.11a22.31,22.31,0,0,0,2.34.13H943.32c.66,0,1.31,0,2-.07.2,0,.4,0,.6-.05.47,0,.92-.07,1.39-.14a4.81,4.81,0,0,0,.65-.08l1.47-.23.47-.09.71-.16c.54-.13,1.08-.25,1.6-.39l.84-.25c.47-.15.94-.28,1.4-.45l.86-.32c.45-.16.89-.34,1.33-.53l.84-.36,1.33-.65c.25-.13.5-.24.75-.38.52-.28,1-.58,1.54-.88l.45-.28a22.53,22.53,0,0,0,1.9-1.28c.17-.11.32-.24.48-.35.46-.35.9-.69,1.34-1.05l.62-.55c.37-.32.73-.65,1.08-1s.51-.51.77-.75.39-.4.57-.6l.81-.9.5-.6c.28-.34.55-.68.81-1l.4-.52C971.18,803.68,971.55,803.13,971.9,802.58Z"/><path class="cls-39" d="M645.47,61.1c.22-.37.44-.74.68-1.1l.48-.68c.24-.33.48-.66.73-1l.54-.66c.26-.31.53-.61.8-.91l.59-.61c.29-.3.58-.58.89-.86s.43-.41.65-.6.33-.28.49-.42l.91-.73.52-.39q.5-.36,1-.69l.48-.33c.47-.3.95-.59,1.44-.86l.08-.05c.52-.29,1-.56,1.58-.81l.5-.23c.37-.17.74-.34,1.12-.49l.6-.23,1.08-.39.61-.2,1-.29.76-.19c.35-.09.69-.15,1-.22l.74-.14c.37-.06.74-.1,1.11-.15l.68-.08c.44,0,.87-.05,1.31-.07l.52,0h-.08l-7.62.12q-1.15,0-2.31.12c-.26,0-.51.06-.76.09-.51.05-1,.11-1.53.19l-.89.16c-.46.09-.91.17-1.36.27s-.63.16-.94.24-.62.14-.92.23l-.39.12-.75.24c-.46.14-.91.3-1.35.46l-.76.29c-.46.18-.91.38-1.37.58l-.64.28q-.93.44-1.83.93l-.11.05c-.64.35-1.26.72-1.87,1.11-.19.11-.37.24-.55.36-.42.28-.84.56-1.24.85l-.63.47c-.38.29-.74.58-1.1.88-.21.16-.41.33-.61.5l-.33.28c-.16.14-.31.3-.47.45-.36.34-.72.67-1.06,1s-.48.49-.71.75-.65.71-1,1.08-.44.52-.65.79-.59.78-.88,1.17l-.57.81c-.28.43-.55.87-.81,1.31-.12.2-.26.39-.37.6l-.09.17c-.41.73-.79,1.48-1.13,2.25L347.34,705.07a4.16,4.16,0,0,1-.28.51,2.7,2.7,0,0,1-.27.39l-.2.27-.34.36-.21.21a6.37,6.37,0,0,1-.9.64l-.2.11a6.51,6.51,0,0,1-1.05.45l-.28.06a4,4,0,0,1-.5.11c-.11,0-.22,0-.33,0a4.55,4.55,0,0,1-.52,0h.08l7.51-.12a12.93,12.93,0,0,0,1.89-.14c.21,0,.4-.08.6-.12a11.21,11.21,0,0,0,1.18-.25h0a13.84,13.84,0,0,0,1.45-.52l.41-.19a9.6,9.6,0,0,0,1-.49l.45-.28c.28-.18.56-.37.82-.57l.38-.3.18-.14c.13-.12.22-.25.34-.36s.45-.44.66-.68.28-.36.42-.55.35-.49.51-.75c.05-.08.12-.16.17-.25.14-.25.27-.5.39-.76L644.13,63.63c.29-.65.61-1.27,1-1.89C645.21,61.52,645.34,61.31,645.47,61.1Z"/><g class="cls-2"><g class="cls-40"><g class="cls-2"><path class="cls-27" d="M376,852.19l-7.73.12h-.48l7.59-.12H376"/></g></g></g><path class="cls-41" d="M570.05,63.54a5.81,5.81,0,0,0,0-.59,2.43,2.43,0,0,0,0-.27c0-.36,0-.72-.09-1.08,0-.05,0-.1,0-.16-.05-.43-.13-.86-.22-1.28l-.06-.2c0-.13-.06-.25-.1-.38-.09-.37-.21-.74-.33-1.1-.05-.12-.09-.25-.13-.37s-.05-.15-.08-.22a11.3,11.3,0,0,0-.51-1.12s0,0,0,0c-1.1-2.19-1.8-3.58-2.44-4.89l-.36-.73-.32-.68c0,.09.07.2.11.29a3.84,3.84,0,0,1,.2.6c0,.1,0,.19.07.29a5.07,5.07,0,0,1,.11.68l0,.27a7.72,7.72,0,0,1,0,1.08,1.49,1.49,0,0,1,0,.21c0,.37-.08.77-.15,1.18,0,.13,0,.25-.07.38l-.12.52-.15.59c0,.18-.11.36-.17.55s-.18.58-.29.88L284.05,690.33a7.55,7.55,0,0,0-.43,1s0,0,0,.06a1.72,1.72,0,0,1-.07.21c-.08.26-.16.53-.22.8,0,.11-.05.22-.07.33l-.06.32c0,.15,0,.3,0,.45a2.66,2.66,0,0,0,0,.28c0,.34,0,.67,0,1v0c0,.06,0,.11,0,.17,0,.3.05.6.1.91,0,.11,0,.22.05.33l.06.34c0,.15.08.29.12.44s.05.22.08.33c.1.35.22.71.35,1.06h0s0,0,0,.06c.14.34.29.67.46,1a1,1,0,0,1,0,.1q1.65,3.23,3.29,6.47a3,3,0,0,1-.26-.7l-.05-.2a3.81,3.81,0,0,1-.07-.59c0-.06,0-.12,0-.18a4.08,4.08,0,0,1,.07-.77,1.09,1.09,0,0,0,.05-.17,4.7,4.7,0,0,1,.25-.78L568.56,70.26c.12-.27.24-.55.35-.83s.09-.3.14-.45c.13-.35.24-.69.34-1s.15-.56.22-.84.15-.68.21-1c0-.16.07-.32.1-.49l0-.4c0-.21,0-.42.06-.62S570.05,63.88,570.05,63.54Z"/><path class="cls-42" d="M1073.73,553.54,970.15,786.72c-4.21,9.51-14.65,16-24.68,15.92H507.29c-4.43,0-7.21-3.18-4.64-10.24l141.27-318L783.55,160c3.66-7-3.51-17.84-15.17-17.79H717.75c-5.13,0-9.22,2.67-10.84,6.38L576.73,441.66,423.47,786.72c-4.23,9.51-14.66,16-24.7,15.92H142.82c-4.42,0-7.2-3.17-4.62-10.24l241.64-544L461.91,63.63c4.22-9.51,14.65-16,24.68-15.92h73.73c4.41,0,7.19,3.18,4.62,10.23L442.65,333.28,284,690.33c-3.66,7,3.46,17.81,15.18,17.81h50.62c5.16-.06,9.21-2.7,10.84-6.36L499.93,388.29,644.14,63.63c4.22-9.51,14.65-16,24.68-15.92H924.77c4.43,0,7.2,3.16,4.62,10.23l-197,443.66L648.51,690.33c-3.67,7,3.44,17.81,15.17,17.81H896.54c5.16-.06,9.2-2.7,10.84-6.36l20.5-46.17c3.66-7-3.44-17.82-15.16-17.81h-150c-4.42,0-7.21-3.16-4.62-10.24l30.36-68.34a27.81,27.81,0,0,1,24.69-15.92h255.95C1073.52,543.3,1076.32,546.47,1073.73,553.54Z"/><path class="cls-43" d="M1078.85,559.13v-.86c0-.36-.06-.72-.1-1.07,0-.06,0-.12,0-.17-.06-.43-.13-.86-.23-1.28a1.6,1.6,0,0,0,0-.21c0-.12-.07-.24-.1-.37-.1-.37-.21-.74-.34-1.1,0-.13-.08-.25-.13-.37s-.05-.15-.08-.22c-.15-.38-.32-.76-.5-1.13l0,0c-1.1-2.19-1.79-3.58-2.44-4.89l-.28-.59-.4-.82a2.52,2.52,0,0,1,.12.29c.07.19.14.39.2.6s0,.19.07.29.08.44.11.68l0,.26a9.84,9.84,0,0,1,0,1.09,1.49,1.49,0,0,0,0,.21,10.7,10.7,0,0,1-.16,1.18c0,.12,0,.25-.07.38s-.07.34-.11.51-.1.39-.16.6-.11.36-.16.54-.19.58-.3.89h0L970.15,786.72c-.24.54-.51,1.08-.79,1.6l-.28.5c-.18.32-.37.63-.56.94-.37.59-.77,1.17-1.18,1.72-.05.07-.09.14-.14.2-.47.62-1,1.21-1.5,1.78-.13.15-.27.29-.41.43-.5.53-1,1-1.56,1.52l-.39.35c-.65.56-1.32,1.08-2,1.58l-1.07.74-.33.21c-.5.32-1,.62-1.54.91-.13.08-.27.14-.41.22-.39.21-.79.41-1.19.6l-.56.25c-.36.16-.73.32-1.09.46l-.62.24c-.38.14-.77.27-1.15.39l-.55.18c-.55.17-1.1.31-1.66.44l-.06,0c-.57.13-1.14.23-1.71.32s-.87.12-1.31.16l-.65.08c-.66.05-1.31.08-2,.07H507.29l-.56,0a7.67,7.67,0,0,1-1.1-.15l-.13,0a6,6,0,0,1-1.23-.44,4.4,4.4,0,0,1-.52-.3l0,0a4.66,4.66,0,0,1-.49-.39l0,0a4.38,4.38,0,0,1-.41-.45l-.07-.08a5.19,5.19,0,0,1-.34-.52l-.07-.14a4.68,4.68,0,0,1-.2-.45l-.09-.23a3,3,0,0,1-.12-.43,3.18,3.18,0,0,1-.08-.33c0-.12,0-.25-.06-.37a5.42,5.42,0,0,1-.06-.58c0-.11,0-.23,0-.35a10.59,10.59,0,0,1,.05-1.1,1.34,1.34,0,0,0,0-.2c0-.13.05-.28.07-.42s.06-.42.11-.65.08-.32.12-.48.1-.42.16-.64c.13-.46.28-.94.46-1.43L783.55,160a9.19,9.19,0,0,0,.5-1.22,2.09,2.09,0,0,0,.08-.23,1.52,1.52,0,0,0,.06-.2,7.53,7.53,0,0,0,.22-1.05c0-.08,0-.16,0-.24s.06-.4.07-.6,0-.38,0-.57v-.19a8.42,8.42,0,0,0-.08-1c0-.07,0-.14,0-.2,0-.32-.12-.64-.2-1,0-.16,0-.33-.1-.49a.69.69,0,0,0-.05-.13c-.07-.25-.17-.49-.26-.74s-.13-.41-.22-.61,0-.09-.07-.14-.19-.38-.29-.58-.19-.42-.31-.62l-.13-.21c-.09-.16-.2-.32-.31-.49s-.2-.34-.32-.51l-.26-.33c-.1-.14-.21-.27-.32-.41l-.24-.31c-.19-.22-.39-.44-.6-.65l-.17-.19,0-.06q-.4-.41-.84-.78l-.26-.21-.25-.21-.34-.27c-.31-.24-.64-.47-1-.68h0a.53.53,0,0,1-.1-.06c-.4-.25-.82-.5-1.26-.73l-.13-.06c-.34-.17-.7-.32-1.06-.47l-.73-.32c-.41-.15-.84-.26-1.27-.38-.21-.06-.4-.14-.62-.19l-.06,0-.28-.05c-.5-.11-1-.2-1.54-.27l-.6-.06-.66-.07c-.37,0-.74,0-1.12,0H717.75a15.8,15.8,0,0,0-1.71.13l-.25,0-.19,0c-.45.07-.9.18-1.33.29l-.16,0a10.91,10.91,0,0,0-1.43.48l-.1.05-.35.17q-.53.24-1,.51l-.43.27c-.13.08-.27.15-.39.24s-.33.26-.5.39l-.27.21a11.09,11.09,0,0,0-.93.87l-.08.09c-.05.06-.09.12-.14.17a11.17,11.17,0,0,0-.74,1l-.15.22-.09.14a9.19,9.19,0,0,0-.59,1.12L423.46,786.72c-.24.54-.51,1.08-.79,1.6l-.28.5c-.18.32-.37.63-.57.94-.37.59-.76,1.17-1.18,1.73l-.13.19c-.47.62-1,1.21-1.5,1.78-.13.15-.28.29-.41.43-.5.53-1,1-1.56,1.52-.14.11-.26.24-.4.35-.64.56-1.31,1.08-2,1.58-.35.25-.71.5-1.07.73l-.33.22c-.5.32-1,.63-1.54.91-.13.08-.27.14-.41.22-.39.21-.79.41-1.19.6l-.57.25c-.36.16-.72.32-1.08.46l-.62.24c-.38.14-.77.27-1.15.39l-.55.18c-.55.16-1.1.31-1.65.44l-.07,0c-.57.13-1.14.23-1.71.32s-.88.12-1.31.16l-.65.08c-.66.05-1.31.08-2,.07H142.82l-.56,0a7.67,7.67,0,0,1-1.1-.15l-.13,0a6.1,6.1,0,0,1-1.22-.44,4.4,4.4,0,0,1-.52-.3l0,0a4.57,4.57,0,0,1-.49-.38l0,0a4.38,4.38,0,0,1-.41-.45l-.07-.08a4.45,4.45,0,0,1-.33-.51l-.08-.15c-.07-.14-.14-.29-.2-.44l-.09-.24c-.05-.13-.08-.28-.12-.42a3.38,3.38,0,0,1-.08-.34l-.06-.37-.06-.57c0-.12,0-.24,0-.36a10.59,10.59,0,0,1,.05-1.1c0-.07,0-.13,0-.2s0-.28.06-.41.07-.43.11-.66l.12-.47c0-.22.1-.43.16-.66.13-.45.28-.93.46-1.42L461.91,63.63c.29-.65.61-1.28,1-1.9.12-.22.25-.43.38-.65s.44-.73.68-1.09.32-.45.48-.67.48-.66.73-1,.36-.45.54-.66.53-.61.8-.91.38-.42.58-.62l.89-.86.65-.59c.16-.15.33-.28.5-.42s.59-.49.9-.73l.52-.39,1-.7.48-.32c.46-.3.94-.59,1.42-.86l.1-.05c.51-.29,1-.56,1.57-.82l.5-.22c.37-.17.74-.34,1.12-.49l.6-.23q.54-.21,1.08-.39l.61-.2,1-.29c.25-.07.51-.14.76-.19s.69-.15,1-.22l.74-.14c.37-.06.74-.1,1.11-.15l.68-.08c.43,0,.87-.05,1.3-.07l.53,0h-.08l-7.62.12q-1.17,0-2.31.12c-.26,0-.51.06-.76.09-.51.05-1,.11-1.53.19l-.89.16c-.46.09-.91.17-1.36.27s-.63.16-.94.24-.62.14-.92.23l-.39.12-.75.24c-.46.14-.91.3-1.35.46l-.76.29c-.46.18-.91.38-1.36.58l-.65.28q-.93.44-1.83.93l-.11.05c-.63.35-1.25.72-1.86,1.1l-.57.38c-.41.27-.83.55-1.23.84l-.63.47c-.37.29-.74.58-1.1.88l-.6.5-.33.27-.47.46c-.37.33-.72.67-1.07,1s-.47.49-.7.74-.65.72-1,1.09-.44.52-.65.78l-.88,1.17-.57.81c-.28.43-.55.86-.81,1.3-.12.21-.25.4-.37.6l-.09.18c-.41.74-.79,1.49-1.14,2.26L124.85,795.71a18.16,18.16,0,0,0-.71,1.89L124,798l-.09.3c-.09.32-.14.63-.2,1s-.14.57-.18.85-.1.81-.13,1.22-.06.52-.07.77c0,0,0,.08,0,.11a15.26,15.26,0,0,0,0,1.66c0,.14,0,.28,0,.43s0,.52.1.78.09.47.14.7c0,.08,0,.16,0,.23a12.15,12.15,0,0,0,.33,1.22c0,.1.08.19.12.29.09.26.19.51.3.77s.15.41.24.61.14.25.2.38.19.37.3.56.15.3.24.44a7.31,7.31,0,0,0,.43.65c.08.12.15.24.24.36a.86.86,0,0,1,.1.16c.26.34.52.67.81,1l.15.17.2.21.42.45c.26.25.52.49.79.72l.05,0,.09.07c.23.19.45.38.69.56l.76.53.12.08.06,0a14.63,14.63,0,0,0,1.4.81l.15.06c.28.15.59.27.89.4s.66.3,1,.43.65.2,1,.3.58.2.89.28l.23,0,.64.13q.69.15,1.41.24l.77.08.62.07c.44,0,.88,0,1.33,0H396.62c.85,0,1.7,0,2.54-.1l.84-.1c.56-.05,1.11-.11,1.66-.2l.19,0c.66-.1,1.32-.23,2-.37l.08,0c.7-.15,1.39-.33,2.08-.53l.68-.21c.48-.16,1-.31,1.44-.48l.77-.29.65-.25c.23-.09.46-.21.7-.31l.7-.31c.49-.23,1-.47,1.46-.72l.51-.26c.64-.34,1.27-.71,1.88-1.09l.4-.26c.38-.25.76-.49,1.12-.74l.19-.15c.84-.59,1.65-1.23,2.43-1.89l.47-.43c.65-.58,1.28-1.18,1.88-1.81.1-.11.22-.21.33-.32s.11-.13.17-.2c.62-.68,1.23-1.39,1.79-2.12l.16-.23q.75-1,1.41-2.07a2.83,2.83,0,0,0,.2-.28c.17-.27.32-.56.48-.84l.33-.59c.34-.62.66-1.26.94-1.91L710.53,160.9c.1-.21.21-.41.33-.61a6.24,6.24,0,0,1,.55-.72s.08-.07.11-.11a5.7,5.7,0,0,1,.64-.56l.21-.15a6,6,0,0,1,1-.54A6.46,6.46,0,0,1,714,158h.06q.33-.09.66-.15a6.38,6.38,0,0,1,.87-.07h50.64a4.68,4.68,0,0,1,1.07.12h.09c.1,0,.18.07.28.1a5.52,5.52,0,0,1,.75.27,4.32,4.32,0,0,1,.79.52l0,0a3.91,3.91,0,0,1,.62.67l0,.06a3.62,3.62,0,0,1,.41.78l0,.06a4.77,4.77,0,0,1,.19.85s0,.08,0,.12a4.25,4.25,0,0,1,0,.87,1.74,1.74,0,0,1,0,.22,4.12,4.12,0,0,1-.28.93L489.3,795.71a18.06,18.06,0,0,0-.7,1.89l-.12.36-.1.31c-.08.31-.13.62-.2.94s-.13.57-.18.85-.09.81-.12,1.22c0,.25-.06.52-.07.77,0,0,0,.08,0,.11a15.26,15.26,0,0,0,.05,1.66c0,.14,0,.29,0,.43s.05.52.09.78.1.47.15.7c0,.08,0,.16,0,.24.1.41.21.81.34,1.21,0,.1.08.19.11.29.09.26.2.51.31.77s.15.41.24.61.13.25.2.38.19.37.3.56.15.3.23.44.29.44.44.65.15.24.24.36a1.3,1.3,0,0,0,.1.15c.25.34.52.68.8,1l.16.17.2.21c.14.15.27.3.42.44s.52.49.79.73l.05,0,.09.07c.23.19.45.38.69.55s.51.37.77.54l.11.08.05,0a16,16,0,0,0,1.4.81.69.69,0,0,0,.15.07c.29.15.6.27.91.4s.66.3,1,.43.66.2,1,.3.57.2.87.28l.23,0,.64.13c.47.1.94.18,1.42.24l.77.08c.21,0,.41.06.62.07.44,0,.88,0,1.32,0H943.32c.84,0,1.69,0,2.53-.1l.84-.1c.56-.05,1.11-.11,1.67-.2l.18,0c.67-.1,1.33-.23,2-.37l.08,0c.7-.15,1.39-.33,2.08-.53l.68-.21c.49-.16,1-.31,1.44-.48l.77-.29.65-.25c.23-.09.46-.21.7-.31l.7-.31,1.47-.72.5-.26c.64-.34,1.27-.71,1.88-1.09l.4-.27c.38-.24.76-.48,1.12-.73l.19-.15c.84-.59,1.65-1.23,2.43-1.89l.47-.43c.65-.58,1.28-1.18,1.88-1.81l.33-.32c.06-.06.11-.13.17-.2.63-.68,1.23-1.39,1.79-2.12l.17-.24c.5-.66,1-1.35,1.4-2.05.07-.1.14-.19.2-.29.17-.28.32-.56.48-.84s.23-.39.33-.59c.34-.62.66-1.26.95-1.91l103.57-233.18h0c.13-.28.24-.55.35-.83s.09-.31.15-.46c.12-.34.23-.68.33-1s.16-.55.23-.83.14-.68.2-1c0-.16.08-.33.1-.49s0-.27,0-.41l.06-.61C1078.83,559.82,1078.85,559.47,1078.85,559.13Z"/><path class="cls-44" d="M424.1,804.21c.39-.53.76-1.08,1.1-1.63L406.63,832.4,404,836.64c-.34.55-.71,1.1-1.1,1.63-.12.18-.26.35-.38.51-.28.36-.54.72-.83,1.06l-.49.58c-.26.3-.54.62-.81.91s-.38.4-.57.59l-.49.51-.28.25c-.36.34-.71.66-1.07,1s-.43.37-.64.55c-.44.36-.88.71-1.33,1l-.47.36c-.62.45-1.25.88-1.91,1.29l-.45.26c-.51.3-1,.61-1.55.9-.23.12-.49.24-.72.37-.46.22-.9.44-1.35.64l-.84.38-1.34.53c-.27.1-.56.21-.85.3-.47.17-.94.32-1.4.46l-.84.25c-.53.13-1.06.27-1.6.38l-.56.14a.7.7,0,0,0-.14,0l-.48.08c-.5.1-1,.18-1.47.25l-.65.08-1.39.14-.61,0c-.64,0-1.3.07-2,.07h-256a19.78,19.78,0,0,1-2.34-.13c-.25,0-.5-.08-.75-.12-.49-.07-1-.14-1.45-.25l-.84-.23c-.42-.11-.84-.22-1.24-.36s-.55-.23-.83-.34-.69-.26-1-.42l-.11-.05-.26-.14a12.74,12.74,0,0,1-1.35-.77l-.4-.25c-.48-.34-1-.69-1.4-1.06l-.13-.11c-.29-.24-.58-.51-.84-.77s-.23-.24-.34-.37l-.22-.23a16,16,0,0,1-1.06-1.31l-.17-.25a14.83,14.83,0,0,1-.9-1.47,0,0,0,0,1,0,0,14.71,14.71,0,0,1-.7-1.57,1.57,1.57,0,0,1-.1-.26,14.25,14.25,0,0,1-.48-1.61c0-.1,0-.21-.07-.32a13.23,13.23,0,0,1-.27-1.69,1.7,1.7,0,0,1,0-.22c0-.43-.06-.85-.06-1.29,0-.14,0-.28,0-.42V836a16,16,0,0,1,.2-1.8,2.11,2.11,0,0,1,0-.35,17,17,0,0,1,.43-1.81c0-.1.07-.21.11-.31a16.34,16.34,0,0,1,.7-1.91L427.33,101l21.22-34.06L124.85,795.7a18,18,0,0,0-.72,1.91c0,.11-.06.21-.11.32-.17.61-.31,1.21-.42,1.82l-.06.34c-.09.61-.16,1.21-.19,1.8v.2c0,.57,0,1.15,0,1.72a.68.68,0,0,1,0,.2,14.14,14.14,0,0,0,.27,1.71,1.83,1.83,0,0,0,.07.32,12.94,12.94,0,0,0,.48,1.61c0,.08.07.17.1.26a16.41,16.41,0,0,0,.7,1.55s0,0,0,0A14.49,14.49,0,0,0,126,811l.17.25a12.14,12.14,0,0,0,1.06,1.31,1.19,1.19,0,0,0,.22.23,13,13,0,0,0,1.19,1.16l.11.1a15.42,15.42,0,0,0,1.42,1.06l.39.24c.44.28.88.54,1.34.79l.28.13c.34.17.73.32,1.1.47s.55.24.84.35.81.23,1.22.34.55.18.84.25c.47.09,1,.16,1.46.23.25,0,.5.1.74.13a22.78,22.78,0,0,0,2.34.13h256c.66,0,1.32,0,2-.07a6,6,0,0,0,.61-.05c.46,0,.93-.07,1.39-.14a4.3,4.3,0,0,0,.64-.08l1.47-.23.49-.09.7-.16c.53-.13,1.07-.25,1.59-.39l.84-.25c.47-.15.94-.28,1.41-.45l.86-.32c.44-.16.9-.34,1.34-.53l.82-.36c.46-.21.9-.43,1.35-.65.25-.13.5-.24.73-.38.52-.28,1.05-.58,1.54-.88.15-.1.32-.18.47-.28.65-.4,1.28-.82,1.9-1.28l.47-.35c.45-.35.9-.69,1.33-1.05.22-.18.43-.37.63-.55.36-.32.73-.65,1.08-1l.77-.75.56-.6q.42-.45.81-.9c.17-.2.35-.39.51-.6s.54-.68.81-1Z"/><path class="cls-45" d="M123.35,801.89v.2c0,.57,0,1.15,0,1.72a.65.65,0,0,1,0,.2,14.14,14.14,0,0,0,.27,1.71,1.83,1.83,0,0,0,.07.32,12.94,12.94,0,0,0,.48,1.61c0,.08.07.17.1.26a16.41,16.41,0,0,0,.7,1.55s0,0,0,0A14.49,14.49,0,0,0,126,811l.17.25a12.14,12.14,0,0,0,1.06,1.31,1.19,1.19,0,0,0,.22.23,13,13,0,0,0,1.19,1.16l.11.1a15.42,15.42,0,0,0,1.42,1.06l.39.24c.44.28.88.54,1.34.79l.28.13c.34.17.73.32,1.1.47s.55.24.84.35.81.23,1.22.34.55.18.84.25c.47.09,1,.16,1.46.23.25,0,.5.1.74.13a22.78,22.78,0,0,0,2.34.13h256c.66,0,1.32,0,2-.07a6,6,0,0,0,.61-.05c.46,0,.93-.07,1.39-.14a4.3,4.3,0,0,0,.64-.08l1.47-.23.49-.09.7-.16c.53-.13,1.07-.25,1.59-.39l.84-.25c.47-.15.94-.28,1.41-.45l.86-.32c.44-.16.9-.34,1.34-.53l.82-.36c.46-.21.9-.43,1.35-.65.25-.13.5-.24.73-.38.52-.28,1.05-.58,1.54-.88.15-.1.32-.18.47-.28.65-.4,1.28-.82,1.9-1.28l.47-.35c.45-.35.9-.69,1.33-1.05.22-.18.43-.37.63-.55.36-.32.73-.65,1.08-1l.77-.75.56-.6q.42-.45.81-.9c.17-.2.35-.39.51-.6s.54-.68.82-1l.38-.52c.39-.53.76-1.08,1.1-1.63l-14.72,23.64-3.85,6.18L404,836.64c-.34.55-.71,1.1-1.1,1.63-.12.18-.26.35-.38.51-.28.36-.54.72-.83,1.06l-.49.58c-.26.3-.54.62-.81.91s-.38.4-.57.59l-.49.51-.28.25c-.36.34-.71.66-1.07,1s-.43.37-.64.55c-.44.36-.88.71-1.33,1l-.47.36c-.62.45-1.25.88-1.91,1.29l-.45.26c-.51.3-1,.61-1.55.9-.23.12-.49.24-.72.37-.46.22-.9.44-1.35.64l-.84.38-1.34.53-.85.31-1.4.45-.84.25c-.53.13-1.06.27-1.6.38l-.56.14a.7.7,0,0,0-.14,0l-.48.08c-.5.1-1,.18-1.47.25l-.65.08c-.45.06-.92.1-1.39.14l-.61,0c-.64,0-1.3.07-2,.07h-256a19.78,19.78,0,0,1-2.34-.13c-.25,0-.5-.08-.75-.12-.49-.07-1-.14-1.45-.25l-.84-.23c-.42-.11-.84-.22-1.24-.36s-.55-.23-.83-.34-.68-.27-1-.42l-.11-.05-.26-.14a12.74,12.74,0,0,1-1.35-.77l-.4-.25c-.48-.34-1-.68-1.4-1.06l-.13-.11c-.29-.24-.58-.51-.84-.77s-.23-.24-.34-.37l-.22-.23a16,16,0,0,1-1.06-1.31l-.17-.25a14.83,14.83,0,0,1-.9-1.47,0,0,0,0,1,0,0,14.71,14.71,0,0,1-.7-1.57,1.57,1.57,0,0,1-.1-.26,14.25,14.25,0,0,1-.48-1.61c0-.1,0-.21-.07-.32a13.23,13.23,0,0,1-.27-1.69.86.86,0,0,1,0-.22c0-.43,0-.85,0-1.29,0-.14,0-.28,0-.42V836a16,16,0,0,1,.2-1.8,2.11,2.11,0,0,1,0-.35,17,17,0,0,1,.43-1.81c0-.1.07-.21.11-.31a16.34,16.34,0,0,1,.7-1.91l1.27-2.83L427.33,101l5.38-8.63,15.84-25.43L425.7,118.39,124.85,795.7a18,18,0,0,0-.72,1.91c0,.11-.06.21-.11.32-.17.61-.31,1.21-.42,1.82l-.06.34C123.45,800.7,123.38,801.3,123.35,801.89Z"/><path class="cls-46" d="M891.2,686.6v0a4.76,4.76,0,0,1-.51.32l-.23.1a3.94,3.94,0,0,1-.48.18l-.21,0a2.65,2.65,0,0,1-.68.09h-152c.46-17.51,34.79-31.64,77.07-31.64C855.83,655.72,889.78,669.44,891.2,686.6Z"/><path class="cls-47" d="M632.26,555.14c-44.82,105.17-88.67,198.53-122.65,263C503,830.62,496.83,842,491.05,852.2h-7.12a19.78,19.78,0,0,1-2.34-.13c-.25,0-.5-.08-.75-.12-.49-.07-1-.14-1.47-.25l-.84-.23c-.41-.11-.82-.22-1.22-.36s-.55-.23-.83-.34-.69-.27-1-.42a.36.36,0,0,1-.09-.05c-.1,0-.18-.1-.26-.14a14.14,14.14,0,0,1-1.37-.77c-.12-.08-.26-.16-.38-.25a15.42,15.42,0,0,1-1.42-1.06l-.11-.11c-.29-.24-.58-.51-.85-.77a4,4,0,0,1-.35-.37,2.39,2.39,0,0,0-.22-.23c-.37-.43-.73-.86-1.06-1.31-.05-.08-.11-.16-.16-.25a17.1,17.1,0,0,1-.91-1.47s0,0,0,0a14.71,14.71,0,0,1-.7-1.57c0-.08-.07-.16-.1-.26a12.45,12.45,0,0,1-.48-1.61,1.65,1.65,0,0,1-.07-.32,13.85,13.85,0,0,1-.28-1.69,1.55,1.55,0,0,0,0-.22c0-.56-.05-1.13,0-1.71V836c0-.59.1-1.2.19-1.8,0-.11,0-.24.06-.35a16.89,16.89,0,0,1,.42-1.81c0-.1.07-.21.11-.31a15.84,15.84,0,0,1,.72-1.91l.85-1.93L749,197.38a4.31,4.31,0,0,0,.29-.95c0-.05,0-.09,0-.15a3.72,3.72,0,0,0,0-.88c0-.06,0-.11,0-.17a2.88,2.88,0,0,0-.19-.82s0-.06,0-.08a4.19,4.19,0,0,0-.38-.73.53.53,0,0,1-.06-.1,3.19,3.19,0,0,0-.56-.6l-.18-.16a5.16,5.16,0,0,0-.67-.44l-.09-.05c-.2-.1-.42-.15-.66-.24s-.22-.08-.34-.11a5.15,5.15,0,0,0-1.13-.12h-2.1c8.09-11.12,14-16.5,17.14-15.15,1.18.51,2,1.94,2.33,4.25C766.9,209.16,712,368.09,632.26,555.14Z"/><path class="cls-48" d="M432.71,92.37c-1.74,7.4-4.1,16.11-7,26-24.66,84-89.58,254.22-172.13,447.9-39.55,92.8-78,178.93-112.15,251.85q-8.22,17.55-16.1,34.06h-5.86a19.78,19.78,0,0,1-2.34-.13c-.25,0-.5-.08-.75-.12-.49-.07-1-.14-1.45-.25l-.84-.23c-.42-.11-.84-.22-1.24-.36s-.55-.23-.83-.34-.68-.27-1-.42l-.11-.05-.26-.14a12.74,12.74,0,0,1-1.35-.77l-.4-.25c-.48-.34-1-.68-1.4-1.06l-.13-.11c-.29-.24-.58-.51-.84-.77s-.23-.24-.34-.37l-.22-.23a16,16,0,0,1-1.06-1.31l-.17-.25a14.83,14.83,0,0,1-.9-1.47,0,0,0,0,1,0,0,14.71,14.71,0,0,1-.7-1.57,1.57,1.57,0,0,1-.1-.26,14.25,14.25,0,0,1-.48-1.61c0-.1,0-.21-.07-.32a13.23,13.23,0,0,1-.27-1.69.86.86,0,0,1,0-.22c0-.43,0-.85,0-1.29,0-.14,0-.28,0-.42V836a16,16,0,0,1,.2-1.8,2.11,2.11,0,0,1,0-.35,17,17,0,0,1,.43-1.81c0-.1.07-.21.11-.31a16.34,16.34,0,0,1,.7-1.91l1.27-2.83L427.33,101Z"/><ellipse class="cls-49" cx="722.65" cy="818.39" rx="223.59" ry="30.86"/><path class="cls-50" d="M950.52,836.88c-.31.47-.62.94-.94,1.39-.14.18-.28.35-.4.53l-.81,1c-.17.19-.35.39-.51.59s-.52.61-.8.9-.38.4-.58.59-.31.34-.48.51a3.2,3.2,0,0,0-.27.25c-.36.34-.72.66-1.09,1-.21.2-.41.37-.62.55-.44.36-.89.71-1.33,1-.17.12-.32.25-.49.36-.61.45-1.25.88-1.89,1.29-.16.08-.31.18-.46.26-.51.32-1,.61-1.54.9l-.74.37c-.44.22-.9.44-1.35.64l-.83.38-1.33.53-.87.31c-.45.16-.92.31-1.39.45L931,851c-.53.13-1.06.27-1.59.38l-.57.14-.15,0-.44.07h0c-.48.1-1,.18-1.46.25l-.64.08c-.47.06-.93.1-1.39.14l-.61,0c-.66,0-1.31.07-2,.07H483.93a19.78,19.78,0,0,1-2.34-.13c-.25,0-.5-.08-.75-.12-.49-.07-1-.14-1.47-.25l-.84-.23c-.41-.11-.82-.22-1.22-.36s-.55-.23-.83-.34-.69-.27-1-.42a.36.36,0,0,1-.09-.05c-.1,0-.18-.1-.26-.14a14.14,14.14,0,0,1-1.37-.77c-.12-.08-.26-.16-.38-.25a15.42,15.42,0,0,1-1.42-1.06l-.11-.11c-.29-.24-.58-.51-.85-.77a4,4,0,0,1-.35-.37,2.39,2.39,0,0,0-.22-.23c-.37-.43-.73-.86-1.06-1.31-.05-.08-.11-.16-.16-.25a17.1,17.1,0,0,1-.91-1.47s0,0,0,0a14.71,14.71,0,0,1-.7-1.57c0-.08-.07-.16-.1-.26a12.45,12.45,0,0,1-.48-1.61,1.65,1.65,0,0,1-.07-.32,13.85,13.85,0,0,1-.28-1.69,1.55,1.55,0,0,0,0-.22c0-.56-.05-1.13,0-1.71V836c0-.59.1-1.2.19-1.8,0-.11,0-.24.06-.35a16.89,16.89,0,0,1,.42-1.81c0-.1.07-.21.11-.31a15.84,15.84,0,0,1,.72-1.91l.85-1.93c43.78-5.1,103.42-8.62,170.6-9.7,14.09-.23,28.53-.34,43.21-.34s29.11.11,43.21.34C827.84,819.77,912.36,827.05,950.52,836.88Z"/><path class="cls-51" d="M410.48,826.22l-3.85,6.18L404,836.64c-.34.55-.71,1.1-1.1,1.63-.12.18-.26.35-.38.51-.28.36-.54.72-.83,1.06l-.49.58c-.26.3-.54.62-.81.91s-.38.4-.57.59l-.49.51-.28.25c-.36.34-.71.66-1.07,1s-.43.37-.64.55c-.44.36-.88.71-1.33,1l-.47.36c-.62.45-1.25.88-1.91,1.29l-.45.26c-.51.3-1,.61-1.55.9-.23.12-.49.24-.72.37-.46.22-.9.44-1.35.64l-.84.38-1.34.53-.85.31-1.4.45-.84.25c-.53.13-1.06.27-1.6.38l-.56.14a.7.7,0,0,0-.14,0l-.48.08c-.5.1-1,.18-1.47.25l-.65.08c-.45.06-.92.1-1.39.14l-.61,0c-.64,0-1.3.07-2,.07h-256a19.78,19.78,0,0,1-2.34-.13c-.25,0-.5-.08-.75-.12-.49-.07-1-.14-1.45-.25l-.84-.23c-.42-.11-.84-.22-1.24-.36s-.55-.23-.83-.34-.68-.27-1-.42l-.11-.05-.26-.14a12.74,12.74,0,0,1-1.35-.77l-.4-.25c-.48-.34-1-.68-1.4-1.06l-.13-.11c-.29-.24-.58-.51-.84-.77s-.23-.24-.34-.37l-.22-.23a16,16,0,0,1-1.06-1.31l-.17-.25a14.83,14.83,0,0,1-.9-1.47,0,0,0,0,1,0,0,14.71,14.71,0,0,1-.7-1.57,1.57,1.57,0,0,1-.1-.26,14.25,14.25,0,0,1-.48-1.61c0-.1,0-.21-.07-.32a13.23,13.23,0,0,1-.27-1.69.86.86,0,0,1,0-.22c0-.43,0-.85,0-1.29,0-.14,0-.28,0-.42V836a16,16,0,0,1,.2-1.8,2.11,2.11,0,0,1,0-.35,17,17,0,0,1,.43-1.81c0-.1.07-.21.11-.31a16.34,16.34,0,0,1,.7-1.91l1.27-2.83c45.47-3.17,99.82-5,158.2-5C316.9,821.93,367.3,823.5,410.48,826.22Z"/></g></g></svg>