<svg id="Layer_1" data-name="Layer 1" xmlns="http://www.w3.org/2000/svg" xmlns:xlink="http://www.w3.org/1999/xlink" viewBox="0 0 500 500"><defs><style>.cls-1{fill:url(#linear-gradient);}</style><linearGradient id="linear-gradient" x1="15.02" y1="39.24" x2="405.6" y2="664.17" gradientUnits="userSpaceOnUse"><stop offset="0" stop-color="#ddc8e2"/><stop offset="0" stop-color="#dbc6e1"/><stop offset="0.04" stop-color="#bda2cc"/><stop offset="0.08" stop-color="#a484bb"/><stop offset="0.12" stop-color="#916dae"/><stop offset="0.17" stop-color="#845da5"/><stop offset="0.22" stop-color="#7c53a0"/><stop offset="0.28" stop-color="#79509e"/><stop offset="0.7" stop-color="#442d7a"/><stop offset="0.75" stop-color="#3b276c"/><stop offset="0.86" stop-color="#241847"/><stop offset="1" stop-color="#00000f"/></linearGradient></defs><path class="cls-1" d="M487.6,337.37H291.89a8.72,8.72,0,0,0-8.72,8.72v44.68a8.74,8.74,0,0,0,8.72,8.74H402.32a3.17,3.17,0,0,1,2.84,4.59L393.69,427a6.43,6.43,0,0,1-5.74,3.56H258.52a6.41,6.41,0,0,1-6.42-6.42V15.49a8.2,8.2,0,0,0-11.24-7.61L104.12,62.58a11.7,11.7,0,0,0-7.36,10.86V425.15a5.44,5.44,0,0,1-5.43,5.43H71.11a5.43,5.43,0,0,1-5.43-5.43V88.21a6.94,6.94,0,0,0-9.53-6.44l-47.6,19a8,8,0,0,0-5,7.39V484.32a8.4,8.4,0,0,0,8.39,8.4H150.47a8.39,8.39,0,0,0,8.39-8.39l0-368.07c0-.16,0-.31,0-.47a6.73,6.73,0,0,1,3.69-5.52l20.29-10.13a4.88,4.88,0,0,1,7.08,4.37l-.09,382.12a6.08,6.08,0,0,0,6.07,6.09H430.59a11.69,11.69,0,0,0,10.87-7.37l54.36-135.86A8.84,8.84,0,0,0,487.6,337.37Z"/></svg>