<svg id="Layer_1" data-name="Layer 1" xmlns="http://www.w3.org/2000/svg" viewBox="0 0 425.72 425.72"><defs><style>.cls-1{fill:#514c67;}</style></defs><path class="cls-1" d="M410.62,285.58H247.73a7.26,7.26,0,0,0-7.26,7.26V330a7.28,7.28,0,0,0,7.26,7.28h91.91a2.64,2.64,0,0,1,2.36,3.82l-9.54,19.08a5.34,5.34,0,0,1-4.78,2.95H220a5.33,5.33,0,0,1-5.34-5.33V17.68a6.83,6.83,0,0,0-9.36-6.34L91.44,56.87a9.73,9.73,0,0,0-6.12,9V358.64a4.51,4.51,0,0,1-4.52,4.51H64a4.51,4.51,0,0,1-4.52-4.51V78.2a5.78,5.78,0,0,0-7.93-5.36L11.9,88.68a6.63,6.63,0,0,0-4.17,6.15V407.89a7,7,0,0,0,7,7H130a7,7,0,0,0,7-7l0-306.35c0-.14,0-.26,0-.39a5.6,5.6,0,0,1,3.07-4.6L157,88.13a4.07,4.07,0,0,1,5.89,3.64l-.08,318a5.07,5.07,0,0,0,5.06,5.07h195.3a9.75,9.75,0,0,0,9.05-6.13l45.24-113.09A7.36,7.36,0,0,0,410.62,285.58Z"/></svg>