<svg width="24" height="25" viewBox="0 0 24 25" fill="none" xmlns="http://www.w3.org/2000/svg">
<path fill-rule="evenodd" clip-rule="evenodd" d="M12.75 11.375L17.25 13.25V11.75L12.75 9.5V7.25C12.75 7.05109 12.671 6.86032 12.5303 6.71967C12.3897 6.57902 12.1989 6.5 12 6.5C11.8011 6.5 11.6103 6.57902 11.4697 6.71967C11.329 6.86032 11.25 7.05109 11.25 7.25V9.5L6.75 11.75V13.25L11.25 11.375V15.5L9 17V17.75L12 17L15 17.75V17L12.75 15.5V11.375Z" fill="#504C67"/>
<path d="M12 23C9.9233 23 7.89323 22.3842 6.16652 21.2304C4.4398 20.0767 3.09399 18.4368 2.29927 16.5182C1.50455 14.5996 1.29661 12.4884 1.70176 10.4516C2.1069 8.41476 3.10693 6.54383 4.57538 5.07538C6.04383 3.60693 7.91476 2.6069 9.95156 2.20176C11.9884 1.79661 14.0996 2.00455 16.0182 2.79927C17.9368 3.59399 19.5767 4.9398 20.7304 6.66652C21.8842 8.39323 22.5 10.4233 22.5 12.5C22.4968 15.2838 21.3896 17.9527 19.4211 19.9211C17.4527 21.8896 14.7838 22.9968 12 23V23ZM12 3.5C10.22 3.5 8.47992 4.02785 6.99987 5.01678C5.51983 6.00571 4.36628 7.41132 3.68509 9.05585C3.0039 10.7004 2.82567 12.51 3.17294 14.2558C3.5202 16.0016 4.37737 17.6053 5.63604 18.864C6.89472 20.1226 8.49836 20.9798 10.2442 21.3271C11.99 21.6743 13.7996 21.4961 15.4442 20.8149C17.0887 20.1337 18.4943 18.9802 19.4832 17.5001C20.4722 16.0201 21 14.28 21 12.5C20.9972 10.1139 20.0481 7.82634 18.3609 6.13911C16.6737 4.45189 14.3861 3.50278 12 3.5V3.5Z" fill="#504C67"/>
</svg>
