<svg width="24" height="25" viewBox="0 0 24 25" fill="none" xmlns="http://www.w3.org/2000/svg">
<path d="M13 6.74996C13 7.01518 12.8946 7.26953 12.7071 7.45707C12.5196 7.6446 12.2652 7.74996 12 7.74996C11.7348 7.74996 11.4804 7.6446 11.2929 7.45707C11.1054 7.26953 11 7.01518 11 6.74996C11 6.48474 11.1054 6.23039 11.2929 6.04285C11.4804 5.85532 11.7348 5.74996 12 5.74996C12.2652 5.74996 12.5196 5.85532 12.7071 6.04285C12.8946 6.23039 13 6.48474 13 6.74996ZM13.032 2.82496C12.7324 2.60618 12.371 2.48828 12 2.48828C11.629 2.48828 11.2676 2.60618 10.968 2.82496L3.547 8.23996C2.569 8.95296 3.074 10.5 4.283 10.5H4.5V16.3C4.04844 16.5304 3.66937 16.8812 3.40466 17.3135C3.13995 17.7459 2.99991 18.243 3 18.75V20.25C3 20.663 3.336 21 3.75 21H20.25C20.4489 21 20.6397 20.9209 20.7803 20.7803C20.921 20.6396 21 20.4489 21 20.25V18.75C21.0001 18.243 20.8601 17.7459 20.5953 17.3135C20.3306 16.8812 19.9516 16.5304 19.5 16.3V10.5H19.717C20.927 10.5 21.43 8.95296 20.453 8.23996L13.032 2.82396V2.82496ZM11.852 4.03596C11.8948 4.00467 11.9465 3.98781 11.9995 3.98781C12.0525 3.98781 12.1042 4.00467 12.147 4.03596L18.95 8.99996H5.05L11.853 4.03596H11.852ZM18 10.5V16H16V10.5H18ZM14.5 10.5V16H12.75V10.5H14.5ZM11.25 10.5V16H9.5V10.5H11.25ZM5.75 17.5H18.25C18.94 17.5 19.5 18.06 19.5 18.75V19.5H4.5V18.75C4.5 18.06 5.06 17.5 5.75 17.5ZM6 16V10.5H8V16H6Z" fill="#504C67"/>
</svg>
