<svg width="24" height="25" viewBox="0 0 24 25" fill="none" xmlns="http://www.w3.org/2000/svg">
<path d="M12 16.5C15.87 16.5 19 13.37 19 9.5C19 5.63 15.87 2.5 12 2.5C8.13 2.5 5 5.63 5 9.5C5 13.37 8.13 16.5 12 16.5ZM12 4.5C14.76 4.5 17 6.74 17 9.5C17 12.26 14.76 14.5 12 14.5C9.24 14.5 7 12.26 7 9.5C7 6.74 9.24 4.5 12 4.5Z" fill="#504C67"/>
<path d="M10 9.5C10.5523 9.5 11 9.05228 11 8.5C11 7.94772 10.5523 7.5 10 7.5C9.44772 7.5 9 7.94772 9 8.5C9 9.05228 9.44772 9.5 10 9.5Z" fill="#504C67"/>
<path d="M14 9.5C14.5523 9.5 15 9.05228 15 8.5C15 7.94772 14.5523 7.5 14 7.5C13.4477 7.5 13 7.94772 13 8.5C13 9.05228 13.4477 9.5 14 9.5Z" fill="#504C67"/>
<path d="M12 7.5C12.5523 7.5 13 7.05228 13 6.5C13 5.94772 12.5523 5.5 12 5.5C11.4477 5.5 11 5.94772 11 6.5C11 7.05228 11.4477 7.5 12 7.5Z" fill="#504C67"/>
<path d="M7 19.5H9C10.1 19.5 11 20.4 11 21.5V22.5H13V21.5C13 20.4 13.9 19.5 15 19.5H17V17.5H7V19.5Z" fill="#504C67"/>
</svg>
