<svg width="24" height="25" viewBox="0 0 24 25" fill="none" xmlns="http://www.w3.org/2000/svg">
<path d="M9.75 10.25H14.25V11.75H9.75V10.25Z" fill="#504C67"/>
<path d="M19.08 6.5L18.1275 3.0875C18.0369 2.7746 17.8473 2.49951 17.5871 2.30345C17.3269 2.10739 17.0103 2.00092 16.6845 2H7.3155C6.98987 2.00108 6.67335 2.10762 6.41335 2.30367C6.15335 2.49972 5.96385 2.77473 5.87325 3.0875L4.89825 6.5H3V8H4.5V13.25C4.5004 13.6477 4.65856 14.029 4.93978 14.3102C5.221 14.5914 5.6023 14.7496 6 14.75V17H7.5V14.75H16.5V17H18V14.75C18.3977 14.7496 18.779 14.5914 19.0602 14.3102C19.3414 14.029 19.4996 13.6477 19.5 13.25V8H21V6.5H19.08ZM7.31625 3.5H16.6852L17.7562 7.25H6.2445L7.31625 3.5ZM18 10.25H16.5V11.75H18V13.25H6V11.75H7.5V10.25H6V8.75H18V10.25ZM1.5 12.5H3V23H1.5V12.5ZM21 12.5H22.5V23H21V12.5Z" fill="#504C67"/>
<path d="M11.25 16.25H12.75V18.5H11.25V16.25ZM11.25 20H12.75V23H11.25V20Z" fill="#504C67"/>
</svg>
