<svg width="24" height="25" viewBox="0 0 24 25" fill="none" xmlns="http://www.w3.org/2000/svg">
<path d="M17.6251 8.75C16.9298 8.75276 16.2637 9.03021 15.772 9.5219C15.2803 10.0136 15.0029 10.6797 15.0001 11.375C15.0001 12.8165 16.1836 14 17.6251 14C19.0666 14 20.2501 12.8165 20.2501 11.375C20.2501 9.9335 19.0666 8.75 17.6251 8.75ZM10.2894 8.77325C10.01 8.79086 9.74154 8.88849 9.51611 9.0545L5.55461 11.8903L6.44561 13.1097L10.3831 10.2733L12.0939 12.242L6.53936 16.9528C6.84386 16.9798 7.16936 17 7.50011 17C8.00711 17 8.49311 16.9475 8.97686 16.859L13.0546 13.367L14.5786 15.125C15.1396 14.9729 15.7112 14.8631 16.2886 14.7965L11.5081 9.28925C11.3599 9.11344 11.1723 8.97508 10.9605 8.88542C10.7487 8.79576 10.5188 8.75733 10.2894 8.77325ZM17.6251 10.25C18.2551 10.25 18.7501 10.745 18.7501 11.375C18.7501 12.008 18.2551 12.5 17.6251 12.5C17.4768 12.502 17.3296 12.4743 17.1922 12.4185C17.0548 12.3627 16.93 12.2799 16.8251 12.175C16.7203 12.0701 16.6375 11.9453 16.5816 11.8079C16.5258 11.6705 16.4981 11.5233 16.5001 11.375C16.5001 10.745 16.9921 10.25 17.6251 10.25ZM17.2501 15.5C15.4216 15.5 13.8196 16.112 12.2581 16.6722C10.6966 17.231 9.17561 17.75 7.50011 17.75C3.37811 17.75 1.26536 15.7108 1.26536 15.7108L0.234863 16.79C0.234863 16.79 2.86286 19.25 7.50011 19.25C9.48386 19.25 11.1796 18.6433 12.7501 18.0778C14.3206 17.513 15.7621 17 17.2501 17C20.2269 17 22.7581 19.0858 22.7581 19.0858L23.7421 17.9142C23.7421 17.9142 20.9064 15.5 17.2501 15.5Z" fill="#504C67"/>
</svg>
