<svg width="24" height="25" viewBox="0 0 24 25" fill="none" xmlns="http://www.w3.org/2000/svg">
<path d="M12.0099 17.5003C11.1599 17.5003 10.2999 17.2803 9.62995 16.8503L3.60995 12.9203C2.48995 12.1903 1.81995 10.9603 1.81995 9.62028C1.81995 8.28028 2.48995 7.05028 3.60995 6.32028L9.63995 2.40028C10.9799 1.53028 13.0699 1.53028 14.3999 2.41028L20.3899 6.34028C21.4999 7.07028 22.1699 8.30028 22.1699 9.63028C22.1699 10.9603 21.4999 12.1903 20.3899 12.9203L14.3999 16.8503C13.7299 17.2903 12.8699 17.5003 12.0099 17.5003ZM12.0099 3.25028C11.4399 3.25028 10.8699 3.38028 10.4599 3.66028L4.43995 7.58028C3.73995 8.04028 3.32995 8.78028 3.32995 9.62028C3.32995 10.4603 3.72995 11.2003 4.43995 11.6603L10.4599 15.5903C11.2899 16.1303 12.7499 16.1303 13.5799 15.5903L19.5699 11.6603C20.2699 11.2003 20.6699 10.4603 20.6699 9.62028C20.6699 8.78028 20.2699 8.04028 19.5699 7.58028L13.5799 3.65028C13.1599 3.39028 12.5899 3.25028 12.0099 3.25028Z" fill="#504C67"/>
<path d="M12.0001 23.2501C11.5601 23.2501 11.1101 23.1901 10.7501 23.0701L7.56006 22.0101C6.05006 21.5101 4.86006 19.8601 4.87006 18.2701L4.88006 13.5801C4.88006 13.1701 5.22006 12.8301 5.63006 12.8301C6.04006 12.8301 6.38006 13.1701 6.38006 13.5801L6.37006 18.2701C6.37006 19.2101 7.15006 20.2901 8.04006 20.5901L11.2301 21.6501C11.6301 21.7801 12.3701 21.7801 12.7701 21.6501L15.9601 20.5901C16.8501 20.2901 17.6301 19.2101 17.6301 18.2801V13.6401C17.6301 13.2301 17.9701 12.8901 18.3801 12.8901C18.7901 12.8901 19.1301 13.2301 19.1301 13.6401V18.2801C19.1301 19.8701 17.9501 21.5101 16.4401 22.0201L13.2501 23.0801C12.8901 23.1901 12.4401 23.2501 12.0001 23.2501Z" fill="#504C67"/>
<path d="M21.4 16.25C20.99 16.25 20.65 15.91 20.65 15.5V9.5C20.65 9.09 20.99 8.75 21.4 8.75C21.81 8.75 22.15 9.09 22.15 9.5V15.5C22.15 15.91 21.81 16.25 21.4 16.25Z" fill="#504C67"/>
</svg>
