<svg id="my" width="24" height="25" viewBox="0 0 24 25" fill="none" xmlns="http://www.w3.org/2000/svg">
<path d="M13.5 9.75H2C1.59 9.75 1.25 9.41 1.25 9C1.25 8.59 1.59 8.25 2 8.25H13.5C13.91 8.25 14.25 8.59 14.25 9C14.25 9.41 13.91 9.75 13.5 9.75Z" fill="#D9D9D9"/>
<path d="M8 17.75H6C5.59 17.75 5.25 17.41 5.25 17C5.25 16.59 5.59 16.25 6 16.25H8C8.41 16.25 8.75 16.59 8.75 17C8.75 17.41 8.41 17.75 8 17.75Z" fill="#D9D9D9"/>
<path d="M14.5 17.75H10.5C10.09 17.75 9.75 17.41 9.75 17C9.75 16.59 10.09 16.25 10.5 16.25H14.5C14.91 16.25 15.25 16.59 15.25 17C15.25 17.41 14.91 17.75 14.5 17.75Z" fill="#D9D9D9"/>
<path d="M17.56 21.75H6.44C2.46 21.75 1.25 20.55 1.25 16.61V8.39C1.25 4.45 2.46 3.25 6.44 3.25H13.5C13.91 3.25 14.25 3.59 14.25 4C14.25 4.41 13.91 4.75 13.5 4.75H6.44C3.3 4.75 2.75 5.29 2.75 8.39V16.6C2.75 19.7 3.3 20.24 6.44 20.24H17.55C20.69 20.24 21.24 19.7 21.24 16.6V12.52C21.24 12.11 21.58 11.77 21.99 11.77C22.4 11.77 22.74 12.11 22.74 12.52V16.6C22.75 20.55 21.54 21.75 17.56 21.75Z" fill="#D9D9D9"/>
<path d="M22 7.5H16.5C16.09 7.5 15.75 7.16 15.75 6.75C15.75 6.34 16.09 6 16.5 6H22C22.41 6 22.75 6.34 22.75 6.75C22.75 7.16 22.41 7.5 22 7.5Z" fill="#D9D9D9"/>
<path d="M19.25 10.25C18.84 10.25 18.5 9.91 18.5 9.5V4C18.5 3.59 18.84 3.25 19.25 3.25C19.66 3.25 20 3.59 20 4V9.5C20 9.91 19.66 10.25 19.25 10.25Z" fill="#D9D9D9"/>
</svg>
