<svg id="my" width="261" height="210" viewBox="0 0 261 210" fill="none" xmlns="http://www.w3.org/2000/svg">
<path d="M260.11 140.708L231.342 205.572C230.172 208.216 227.272 210.011 224.486 210H102.786C101.556 209.996 100.784 209.116 101.499 207.152L140.734 118.685L179.515 31.2396C180.531 29.3029 178.54 26.2754 175.303 26.2907H161.24C159.815 26.3022 158.68 27.0332 158.229 28.0666L122.074 109.587L79.5059 205.572C78.3327 208.216 75.436 210.011 72.6463 210H1.55866C0.331954 210 -0.439989 209.12 0.274632 207.152L67.3879 55.8308L90.1832 4.42837C91.3564 1.78361 94.253 -0.0114581 97.0389 2.42487e-05H117.515C118.741 0.00385168 119.513 0.884162 118.799 2.84764L84.833 79.4385L40.7826 178.76C39.766 180.701 41.7418 183.713 44.9977 183.713H59.057C60.4901 183.698 61.6136 182.963 62.0683 181.945L100.742 94.7405L140.795 4.42837C141.968 1.78361 144.865 -0.0114581 147.651 2.42487e-05H218.739C219.969 0.00385168 220.737 0.880334 220.023 2.84764L165.291 126.259L142.01 178.76C140.99 180.701 142.966 183.713 146.222 183.713H210.897C212.33 183.698 213.453 182.963 213.908 181.945L219.602 169.1C220.619 167.159 218.647 164.143 215.391 164.147H173.733C172.506 164.147 171.73 163.267 172.449 161.3L180.883 142.289C182.056 139.64 184.953 137.845 187.738 137.86H258.826C260.053 137.86 260.829 138.741 260.11 140.708Z" fill="#222122"/>
</svg>
