<svg width="20" height="20" viewBox="0 0 20 20" fill="none" xmlns="http://www.w3.org/2000/svg">
<path d="M1.66675 7.50002V5.41669C1.66675 3.34169 3.34175 1.66669 5.41675 1.66669H7.50008" stroke="#6555EE" stroke-width="1.5" stroke-linecap="round" stroke-linejoin="round"/>
<path d="M12.5 1.66669H14.5833C16.6583 1.66669 18.3333 3.34169 18.3333 5.41669V7.50002" stroke="#6555EE" stroke-width="1.5" stroke-linecap="round" stroke-linejoin="round"/>
<path d="M18.3333 13.3333V14.5833C18.3333 16.6583 16.6583 18.3333 14.5833 18.3333H13.3333" stroke="#6555EE" stroke-width="1.5" stroke-linecap="round" stroke-linejoin="round"/>
<path d="M7.50008 18.3333H5.41675C3.34175 18.3333 1.66675 16.6583 1.66675 14.5833V12.5" stroke="#6555EE" stroke-width="1.5" stroke-linecap="round" stroke-linejoin="round"/>
<path d="M8.74992 5.83331V7.49998C8.74992 8.33331 8.33325 8.74998 7.49992 8.74998H5.83325C4.99992 8.74998 4.58325 8.33331 4.58325 7.49998V5.83331C4.58325 4.99998 4.99992 4.58331 5.83325 4.58331H7.49992C8.33325 4.58331 8.74992 4.99998 8.74992 5.83331Z" stroke="#6555EE" stroke-width="1.5" stroke-linecap="round" stroke-linejoin="round"/>
<path d="M15.4167 5.83331V7.49998C15.4167 8.33331 15 8.74998 14.1667 8.74998H12.5C11.6667 8.74998 11.25 8.33331 11.25 7.49998V5.83331C11.25 4.99998 11.6667 4.58331 12.5 4.58331H14.1667C15 4.58331 15.4167 4.99998 15.4167 5.83331Z" stroke="#6555EE" stroke-width="1.5" stroke-linecap="round" stroke-linejoin="round"/>
<path d="M8.74992 12.5V14.1667C8.74992 15 8.33325 15.4167 7.49992 15.4167H5.83325C4.99992 15.4167 4.58325 15 4.58325 14.1667V12.5C4.58325 11.6667 4.99992 11.25 5.83325 11.25H7.49992C8.33325 11.25 8.74992 11.6667 8.74992 12.5Z" stroke="#6555EE" stroke-width="1.5" stroke-linecap="round" stroke-linejoin="round"/>
<path d="M15.4167 12.5V14.1667C15.4167 15 15 15.4167 14.1667 15.4167H12.5C11.6667 15.4167 11.25 15 11.25 14.1667V12.5C11.25 11.6667 11.6667 11.25 12.5 11.25H14.1667C15 11.25 15.4167 11.6667 15.4167 12.5Z" stroke="#6555EE" stroke-width="1.5" stroke-linecap="round" stroke-linejoin="round"/>
</svg>
