<svg width="15" height="15" viewBox="0 0 15 15" fill="none" xmlns="http://www.w3.org/2000/svg">
<path d="M7.46968 11.5661C7.46968 11.4739 7.49849 11.3817 7.56187 11.301C9.35382 8.97899 9.35382 5.97704 7.56187 3.65499C7.41782 3.46485 7.4524 3.19404 7.63678 3.04999C7.82692 2.90594 8.09772 2.94051 8.24177 3.1249C10.2872 5.76961 10.2872 9.18641 8.24177 11.8254C8.09772 12.0155 7.82692 12.0501 7.63678 11.9003C7.5273 11.8254 7.46968 11.6986 7.46968 11.5661Z" fill="white"/>
<path d="M9.47474 13.2429C9.47474 13.1507 9.50353 13.0585 9.56691 12.9778C12.1482 9.6359 12.1482 5.32024 9.56691 1.98409C9.42287 1.79395 9.45744 1.52314 9.64182 1.37909C9.83196 1.23505 10.1028 1.26961 10.2468 1.45399C13.0759 5.1128 13.0759 9.84333 10.2468 13.5079C10.1028 13.698 9.83196 13.7326 9.64182 13.5828C9.53234 13.5021 9.47474 13.3696 9.47474 13.2429Z" fill="white"/>
<path d="M5.36649 10.4829C5.36649 10.3907 5.3953 10.2985 5.45869 10.2179C6.74359 8.55845 6.74359 6.40926 5.45869 4.74407C5.31464 4.55393 5.34919 4.28312 5.53358 4.13907C5.72372 3.99502 5.99454 4.0296 6.13859 4.21398C7.67125 6.19607 7.67125 8.76012 6.13859 10.7422C5.99454 10.9324 5.72372 10.9669 5.53358 10.8171C5.4241 10.7364 5.36649 10.6097 5.36649 10.4829Z" fill="white"/>
<path d="M3.25772 8.97912C3.25772 8.88693 3.28653 8.79473 3.34991 8.71407C3.93187 7.96502 3.93187 6.99126 3.34991 6.24221C3.20587 6.05207 3.24044 5.78126 3.42482 5.63721C3.61496 5.49316 3.88577 5.52773 4.02981 5.71211C4.85953 6.78382 4.85953 8.16669 4.02981 9.2384C3.88577 9.42854 3.61496 9.46311 3.42482 9.3133C3.32111 9.2384 3.25772 9.11164 3.25772 8.97912Z" fill="white"/>
</svg>
