<svg width="10" height="10" viewBox="0 0 10 10" fill="none" xmlns="http://www.w3.org/2000/svg">
<path d="M5 9.5C7.48528 9.5 9.5 7.48528 9.5 5C9.5 2.51472 7.48528 0.5 5 0.5C2.51472 0.5 0.5 2.51472 0.5 5C0.5 7.48528 2.51472 9.5 5 9.5Z" stroke="#737373" stroke-linecap="round" stroke-linejoin="round"/>
<path d="M6.4 3.5C6.30942 3.34288 6.17783 3.21335 6.01929 3.12528C5.86076 3.0372 5.68125 2.9939 5.5 3H4.5C4.23478 3 3.98043 3.10536 3.79289 3.29289C3.60536 3.48043 3.5 3.73478 3.5 4C3.5 4.26522 3.60536 4.51957 3.79289 4.70711C3.98043 4.89464 4.23478 5 4.5 5H5.5C5.76522 5 6.01957 5.10536 6.20711 5.29289C6.39464 5.48043 6.5 5.73478 6.5 6C6.5 6.26522 6.39464 6.51957 6.20711 6.70711C6.01957 6.89464 5.76522 7 5.5 7H4.5C4.31875 7.0061 4.13924 6.9628 3.98071 6.87472C3.82217 6.78665 3.69058 6.65712 3.6 6.5M5 2.5V7.5" stroke="#737373" stroke-linecap="round" stroke-linejoin="round"/>
</svg>
