<svg width="6" height="10" viewBox="0 0 6 10" fill="none" xmlns="http://www.w3.org/2000/svg">
<path d="M3.01255 9.5C2.87088 9.5 2.75205 9.452 2.65605 9.356C2.56039 9.26033 2.51255 9.14167 2.51255 9V8.425C2.13755 8.34167 1.80839 8.19583 1.52505 7.9875C1.24172 7.77917 1.01255 7.4875 0.837552 7.1125C0.779219 6.99583 0.777052 6.873 0.831052 6.744C0.885385 6.61467 0.983385 6.52083 1.12505 6.4625C1.24172 6.4125 1.36255 6.41467 1.48755 6.469C1.61255 6.523 1.70839 6.6125 1.77505 6.7375C1.91672 6.9875 2.09589 7.17717 2.31255 7.3065C2.52922 7.4355 2.79589 7.5 3.11255 7.5C3.45422 7.5 3.74389 7.423 3.98155 7.269C4.21889 7.11467 4.33755 6.875 4.33755 6.55C4.33755 6.25833 4.24589 6.027 4.06255 5.856C3.87922 5.68533 3.45422 5.49167 2.78755 5.275C2.07089 5.05 1.57922 4.78133 1.31255 4.469C1.04589 4.15633 0.912552 3.775 0.912552 3.325C0.912552 2.78333 1.08755 2.3625 1.43755 2.0625C1.78755 1.7625 2.14588 1.59167 2.51255 1.55V1C2.51255 0.858333 2.56039 0.7395 2.65605 0.6435C2.75205 0.547833 2.87088 0.5 3.01255 0.5C3.15422 0.5 3.27305 0.547833 3.36905 0.6435C3.46472 0.7395 3.51255 0.858333 3.51255 1V1.55C3.82922 1.6 4.10422 1.70217 4.33755 1.8565C4.57089 2.0105 4.76255 2.2 4.91255 2.425C4.98755 2.53333 5.00222 2.65417 4.95655 2.7875C4.91055 2.92083 4.81672 3.01667 4.67505 3.075C4.55839 3.125 4.43755 3.127 4.31255 3.081C4.18755 3.03533 4.07089 2.95417 3.96255 2.8375C3.85422 2.72083 3.72722 2.63117 3.58155 2.5685C3.43555 2.50617 3.25422 2.475 3.03755 2.475C2.67088 2.475 2.39172 2.55633 2.20005 2.719C2.00838 2.88133 1.91255 3.08333 1.91255 3.325C1.91255 3.6 2.03755 3.81667 2.28755 3.975C2.53755 4.13333 2.97089 4.3 3.58755 4.475C4.16255 4.64167 4.59805 4.90617 4.89405 5.2685C5.18972 5.63117 5.33755 6.05 5.33755 6.525C5.33755 7.11667 5.16255 7.56667 4.81255 7.875C4.46255 8.18333 4.02922 8.375 3.51255 8.45V9C3.51255 9.14167 3.46472 9.26033 3.36905 9.356C3.27305 9.452 3.15422 9.5 3.01255 9.5Z" fill="#737373"/>
</svg>
