<svg width="10" height="10" viewBox="0 0 10 10" fill="none" xmlns="http://www.w3.org/2000/svg">
<path d="M8.75 9.68745H6.5C6.25174 9.68621 6.014 9.58705 5.83845 9.4115C5.6629 9.23595 5.56373 8.99821 5.5625 8.74995V6.68745H4.4375V8.74995C4.43627 8.99821 4.3371 9.23595 4.16155 9.4115C3.986 9.58705 3.74826 9.68621 3.5 9.68745H1.25C1.00174 9.68621 0.763998 9.58705 0.588449 9.4115C0.4129 9.23595 0.313732 8.99821 0.3125 8.74995V4.41401C0.312809 4.28319 0.340495 4.15388 0.393777 4.0344C0.447059 3.91492 0.524757 3.80791 0.621875 3.72026L4.36719 0.312446C4.54001 0.154336 4.76576 0.0666504 5 0.0666504C5.23424 0.0666504 5.45999 0.154336 5.63281 0.312446L9.38281 3.72026C9.4784 3.80886 9.55477 3.91616 9.60719 4.0355C9.6596 4.15484 9.68693 4.28367 9.6875 4.41401V8.74995C9.68627 8.99821 9.5871 9.23595 9.41155 9.4115C9.236 9.58705 8.99826 9.68621 8.75 9.68745ZM6.6875 8.56245H8.5625V4.49838L5 1.25932L1.4375 4.49838V8.56245H3.3125V6.49995C3.31373 6.25169 3.4129 6.01394 3.58845 5.83839C3.764 5.66285 4.00174 5.56368 4.25 5.56245H5.75C5.99826 5.56368 6.236 5.66285 6.41155 5.83839C6.5871 6.01394 6.68627 6.25169 6.6875 6.49995V8.56245Z" fill="#737373"/>
</svg>
