<svg width="13" height="13" viewBox="0 0 13 13" fill="none" xmlns="http://www.w3.org/2000/svg">
<path d="M6.51243 11C6.37076 11 6.25193 10.952 6.15593 10.856C6.06026 10.7603 6.01243 10.6417 6.01243 10.5V9.925C5.63743 9.84167 5.30826 9.69583 5.02493 9.4875C4.7416 9.27917 4.51243 8.9875 4.33743 8.6125C4.2791 8.49583 4.27693 8.373 4.33093 8.244C4.38526 8.11467 4.48326 8.02083 4.62493 7.9625C4.7416 7.9125 4.86243 7.91467 4.98743 7.969C5.11243 8.023 5.20826 8.1125 5.27493 8.2375C5.4166 8.4875 5.59576 8.67717 5.81243 8.8065C6.0291 8.9355 6.29576 9 6.61243 9C6.9541 9 7.24376 8.923 7.48143 8.769C7.71876 8.61467 7.83743 8.375 7.83743 8.05C7.83743 7.75833 7.74576 7.527 7.56243 7.356C7.3791 7.18533 6.9541 6.99167 6.28743 6.775C5.57076 6.55 5.0791 6.28133 4.81243 5.969C4.54576 5.65633 4.41243 5.275 4.41243 4.825C4.41243 4.28333 4.58743 3.8625 4.93743 3.5625C5.28743 3.2625 5.64576 3.09167 6.01243 3.05V2.5C6.01243 2.35833 6.06026 2.2395 6.15593 2.1435C6.25193 2.04783 6.37076 2 6.51243 2C6.6541 2 6.77293 2.04783 6.86893 2.1435C6.9646 2.2395 7.01243 2.35833 7.01243 2.5V3.05C7.3291 3.1 7.6041 3.20217 7.83743 3.3565C8.07076 3.5105 8.26243 3.7 8.41243 3.925C8.48743 4.03333 8.5021 4.15417 8.45643 4.2875C8.41043 4.42083 8.3166 4.51667 8.17493 4.575C8.05826 4.625 7.93743 4.627 7.81243 4.581C7.68743 4.53533 7.57076 4.45417 7.46243 4.3375C7.3541 4.22083 7.2271 4.13117 7.08143 4.0685C6.93543 4.00617 6.7541 3.975 6.53743 3.975C6.17076 3.975 5.8916 4.05633 5.69993 4.219C5.50826 4.38133 5.41243 4.58333 5.41243 4.825C5.41243 5.1 5.53743 5.31667 5.78743 5.475C6.03743 5.63333 6.47076 5.8 7.08743 5.975C7.66243 6.14167 8.09793 6.40617 8.39393 6.7685C8.6896 7.13117 8.83743 7.55 8.83743 8.025C8.83743 8.61667 8.66243 9.06667 8.31243 9.375C7.96243 9.68333 7.5291 9.875 7.01243 9.95V10.5C7.01243 10.6417 6.9646 10.7603 6.86893 10.856C6.77293 10.952 6.6541 11 6.51243 11Z" fill="#737373"/>
</svg>
