<svg width="13" height="13" viewBox="0 0 13 13" fill="none" xmlns="http://www.w3.org/2000/svg">
<path fill-rule="evenodd" clip-rule="evenodd" d="M6.5 1.5C9.2615 1.5 11.5 3.7385 11.5 6.5C11.5 9.2615 9.2615 11.5 6.5 11.5C3.7385 11.5 1.5 9.2615 1.5 6.5C1.5 3.7385 3.7385 1.5 6.5 1.5ZM6.5 2.5C5.43913 2.5 4.42172 2.92143 3.67157 3.67157C2.92143 4.42172 2.5 5.43913 2.5 6.5C2.5 7.56087 2.92143 8.57828 3.67157 9.32843C4.42172 10.0786 5.43913 10.5 6.5 10.5C7.56087 10.5 8.57828 10.0786 9.32843 9.32843C10.0786 8.57828 10.5 7.56087 10.5 6.5C10.5 5.43913 10.0786 4.42172 9.32843 3.67157C8.57828 2.92143 7.56087 2.5 6.5 2.5ZM5.793 4.3785C5.97002 4.2016 6.20694 4.0975 6.45697 4.08676C6.707 4.07602 6.95197 4.15943 7.1435 4.3205L7.207 4.3785L8.6215 5.793C8.7984 5.97002 8.9025 6.20694 8.91324 6.45697C8.92398 6.707 8.84057 6.95197 8.6795 7.1435L8.6215 7.207L7.207 8.6215C7.02998 8.7984 6.79306 8.9025 6.54303 8.91324C6.293 8.92398 6.04803 8.84057 5.8565 8.6795L5.793 8.6215L4.3785 7.207C4.2016 7.02998 4.0975 6.79306 4.08676 6.54303C4.07602 6.293 4.15943 6.04803 4.3205 5.8565L4.3785 5.793L5.793 4.3785ZM6.5 5.086L5.086 6.5L6.5 7.914L7.914 6.5L6.5 5.086Z" fill="#737373"/>
</svg>
