<svg width="13" height="14" viewBox="0 0 13 14" fill="none" xmlns="http://www.w3.org/2000/svg">
<path fill-rule="evenodd" clip-rule="evenodd" d="M3.75 4.75C4.14782 4.75 4.52936 4.59196 4.81066 4.31066C5.09196 4.02936 5.25 3.64782 5.25 3.25C5.25 2.85218 5.09196 2.47064 4.81066 2.18934C4.52936 1.90804 4.14782 1.75 3.75 1.75C3.35218 1.75 2.97064 1.90804 2.68934 2.18934C2.40804 2.47064 2.25 2.85218 2.25 3.25C2.25 3.64782 2.40804 4.02936 2.68934 4.31066C2.97064 4.59196 3.35218 4.75 3.75 4.75ZM5.87132 1.12868C6.25348 1.51084 6.52188 1.98548 6.65475 2.5H12C12.5 2.5 12.75 2.75 12.75 3.25C12.75 3.75 12.5 4 12 4H6.65475C6.52188 4.51452 6.25348 4.98916 5.87132 5.37132C5.30871 5.93393 4.54565 6.25 3.75 6.25C2.95435 6.25 2.19129 5.93393 1.62868 5.37132C1.06607 4.80871 0.75 4.04565 0.75 3.25C0.75 2.45435 1.06607 1.69129 1.62868 1.12868C2.19129 0.56607 2.95435 0.25 3.75 0.25C4.54565 0.25 5.30871 0.56607 5.87132 1.12868ZM9.75 12.25C10.1478 12.25 10.5294 12.092 10.8107 11.8107C11.092 11.5294 11.25 11.1478 11.25 10.75C11.25 10.3522 11.092 9.97064 10.8107 9.68934C10.5294 9.40804 10.1478 9.25 9.75 9.25C9.35218 9.25 8.97064 9.40804 8.68934 9.68934C8.40804 9.97064 8.25 10.3522 8.25 10.75C8.25 11.1478 8.40804 11.5294 8.68934 11.8107C8.97064 12.092 9.35218 12.25 9.75 12.25ZM6.84525 11.5C6.97812 12.0145 7.24652 12.4892 7.62868 12.8713C8.19129 13.4339 8.95435 13.75 9.75 13.75C10.5456 13.75 11.3087 13.4339 11.8713 12.8713C12.4339 12.3087 12.75 11.5456 12.75 10.75C12.75 9.95435 12.4339 9.19129 11.8713 8.62868C11.3087 8.06607 10.5456 7.75 9.75 7.75C8.95435 7.75 8.19129 8.06607 7.62868 8.62868C7.24652 9.01084 6.97812 9.48548 6.84525 10H1.5C1 10 0.75 10.25 0.75 10.75C0.75 11.25 1 11.5 1.5 11.5H6.84525Z" fill="#D9D9D9"/>
</svg>
