<svg width="10" height="10" viewBox="0 0 10 10" fill="none" xmlns="http://www.w3.org/2000/svg">
<path fill-rule="evenodd" clip-rule="evenodd" d="M5 0C7.7615 0 10 2.2385 10 5C10 7.7615 7.7615 10 5 10C2.2385 10 0 7.7615 0 5C0 2.2385 2.2385 0 5 0ZM5 1C3.93913 1 2.92172 1.42143 2.17157 2.17157C1.42143 2.92172 1 3.93913 1 5C1 6.06087 1.42143 7.07828 2.17157 7.82843C2.92172 8.57857 3.93913 9 5 9C6.06087 9 7.07828 8.57857 7.82843 7.82843C8.57857 7.07828 9 6.06087 9 5C9 3.93913 8.57857 2.92172 7.82843 2.17157C7.07828 1.42143 6.06087 1 5 1ZM4.293 2.8785C4.47002 2.7016 4.70694 2.5975 4.95697 2.58676C5.207 2.57602 5.45197 2.65943 5.6435 2.8205L5.707 2.8785L7.1215 4.293C7.2984 4.47002 7.4025 4.70694 7.41324 4.95697C7.42398 5.207 7.34057 5.45197 7.1795 5.6435L7.1215 5.707L5.707 7.1215C5.52998 7.2984 5.29306 7.4025 5.04303 7.41324C4.793 7.42398 4.54803 7.34057 4.3565 7.1795L4.293 7.1215L2.8785 5.707C2.7016 5.52998 2.5975 5.29306 2.58676 5.04303C2.57602 4.793 2.65943 4.54803 2.8205 4.3565L2.8785 4.293L4.293 2.8785ZM5 3.586L3.586 5L5 6.414L6.414 5L5 3.586Z" fill="#737373"/>
</svg>
