<svg width="22" height="21" viewBox="0 0 22 21" fill="none" xmlns="http://www.w3.org/2000/svg">
<path d="M19 9C19 6.87827 18.1571 4.84344 16.6569 3.34315C15.1566 1.84285 13.1217 1 11 1C8.87827 1 6.84344 1.84285 5.34315 3.34315C3.84285 4.84344 3 6.87827 3 9" stroke="#504C67" stroke-width="1.5" stroke-linecap="round" stroke-linejoin="round"/>
<path d="M19 16.0002V16.5002C19 17.0307 18.7893 17.5394 18.4142 17.9145C18.0391 18.2895 17.5304 18.5002 17 18.5002H13.5M1 13.4382V11.5622C1.00007 11.1163 1.1492 10.6831 1.4237 10.3316C1.69821 9.98007 2.08232 9.73039 2.515 9.62224L4.255 9.18624C4.34342 9.16422 4.43569 9.16263 4.52481 9.18158C4.61393 9.20054 4.69757 9.23954 4.76937 9.29563C4.84118 9.35173 4.89926 9.42344 4.93922 9.50532C4.97918 9.58721 4.99997 9.67712 5 9.76824V15.2312C5.00016 15.3226 4.97947 15.4127 4.93952 15.4948C4.89957 15.5769 4.84141 15.6488 4.76946 15.705C4.69752 15.7613 4.61369 15.8003 4.52436 15.8192C4.43503 15.8382 4.34257 15.8365 4.254 15.8142L2.514 15.3792C2.08151 15.2709 1.69762 15.0211 1.42331 14.6697C1.149 14.3182 1.00001 13.8851 1 13.4392V13.4382ZM21 13.4382V11.5622C20.9999 11.1163 20.8508 10.6831 20.5763 10.3316C20.3018 9.98007 19.9177 9.73039 19.485 9.62224L17.745 9.18624C17.6566 9.16422 17.5643 9.16263 17.4752 9.18158C17.3861 9.20054 17.3024 9.23954 17.2306 9.29563C17.1588 9.35173 17.1007 9.42344 17.0608 9.50532C17.0208 9.58721 17 9.67712 17 9.76824V15.2312C16.9999 15.3224 17.0206 15.4125 17.0604 15.4945C17.1003 15.5765 17.1584 15.6483 17.2302 15.7045C17.3021 15.7607 17.3857 15.7998 17.4749 15.8188C17.5641 15.8379 17.6565 15.8363 17.745 15.8142L19.485 15.3792C19.9177 15.2711 20.3018 15.0214 20.5763 14.6699C20.8508 14.3184 20.9999 13.8852 21 13.4392V13.4382Z" stroke="#504C67" stroke-width="1.5"/>
<path d="M12.5 20H9.5C9.10218 20 8.72064 19.842 8.43934 19.5607C8.15804 19.2794 8 18.8978 8 18.5C8 18.1022 8.15804 17.7206 8.43934 17.4393C8.72064 17.158 9.10218 17 9.5 17H12.5C12.8978 17 13.2794 17.158 13.5607 17.4393C13.842 17.7206 14 18.1022 14 18.5C14 18.8978 13.842 19.2794 13.5607 19.5607C13.2794 19.842 12.8978 20 12.5 20Z" stroke="#504C67" stroke-width="1.5"/>
</svg>
