<svg width="1440" height="805" viewBox="0 0 1440 805" fill="none" xmlns="http://www.w3.org/2000/svg">
<path d="M1438.52 539.625C1437.07 579.627 1415.73 617.106 1378.18 650.639C1340.62 684.173 1286.92 713.696 1220.92 737.751C1088.94 785.86 908.003 812.028 709.408 804.807C510.813 797.587 332.254 758.348 204.114 700.781C140.041 671.997 88.6213 638.651 53.6006 602.478C18.5824 566.307 0.0201247 527.377 1.47456 487.375C2.92899 447.373 24.2695 409.894 61.822 376.361C99.3773 342.827 153.083 313.304 219.077 289.248C351.06 241.14 531.997 214.972 730.591 222.192C929.186 229.413 1107.75 268.652 1235.89 326.219C1299.96 355.003 1351.38 388.349 1386.4 424.522C1421.42 460.693 1439.98 499.623 1438.52 539.625Z" stroke="url(#paint0_linear_1367_2522)" stroke-width="2"/>
<path d="M1561.34 480.177C1563.2 527.072 1541.58 572.771 1500.7 615.278C1459.81 657.789 1399.72 697.04 1324.8 730.993C1174.96 798.897 966.024 845.524 733.515 854.732C501.006 863.941 289.038 833.985 134.3 778.144C56.9286 750.223 -6.08478 715.848 -50.2047 676.704C-94.3217 637.563 -119.483 593.718 -121.34 546.823C-123.198 499.928 -101.583 454.229 -60.6997 411.722C-19.8139 369.211 40.2833 329.96 115.204 296.007C265.041 228.103 473.975 181.476 706.485 172.268C938.994 163.059 1150.96 193.015 1305.7 248.856C1383.07 276.777 1446.08 311.152 1490.2 350.296C1534.32 389.437 1559.48 433.282 1561.34 480.177Z" stroke="url(#paint1_linear_1367_2522)" stroke-width="2"/>
<path d="M1705.89 466.764C1708.5 521.78 1683.56 575.589 1636.01 625.812C1588.46 676.038 1518.37 722.608 1430.86 763.096C1255.85 844.072 1011.39 900.636 738.964 913.551C466.538 926.465 217.821 893.279 35.9374 829.222C-55.0069 797.193 -129.192 757.463 -181.279 711.96C-233.363 666.461 -263.285 615.252 -265.893 560.236C-268.501 505.22 -243.557 451.41 -196.011 401.188C-148.462 350.962 -78.368 304.392 9.13864 263.903C184.147 182.928 428.609 126.363 701.036 113.449C973.462 100.535 1222.18 133.72 1404.06 197.777C1495.01 229.807 1569.19 269.537 1621.28 315.04C1673.36 360.539 1703.28 411.748 1705.89 466.764Z" stroke="url(#paint2_linear_1367_2522)" stroke-width="2"/>
<path d="M1885.41 550.722C1883.33 615.846 1848.88 676.947 1788.18 731.686C1727.47 786.427 1640.55 834.741 1533.72 874.255C1320.04 953.283 1026.88 997.043 704.885 986.759C382.887 976.474 93.1142 914.096 -115.078 821.595C-219.176 775.343 -302.831 721.582 -359.924 663.078C-417.014 604.577 -447.486 541.402 -445.406 476.278C-443.326 411.154 -408.885 350.052 -348.178 295.314C-287.468 240.573 -200.553 192.259 -93.7155 152.744C119.955 73.717 413.118 29.957 735.115 40.2413C1057.11 50.5255 1346.89 112.904 1555.08 205.405C1659.18 251.657 1742.83 305.418 1799.92 363.922C1857.01 422.423 1887.49 485.597 1885.41 550.722Z" stroke="url(#paint3_linear_1367_2522)" stroke-width="2"/>
<path d="M2057.32 556.134C2054.94 630.918 2015.4 701.071 1945.73 763.906C1876.05 826.744 1776.31 882.2 1653.72 927.555C1408.54 1018.26 1072.15 1068.5 702.682 1056.72C333.212 1044.95 0.706659 973.383 -238.197 867.241C-357.652 814.169 -453.657 752.473 -519.186 685.325C-584.712 618.18 -619.705 545.651 -617.321 470.866C-614.936 396.082 -575.395 325.929 -505.725 263.094C-436.052 200.256 -336.312 144.8 -213.72 99.4446C31.4595 8.73543 367.847 -41.5027 737.318 -29.724C1106.79 -17.9453 1439.29 53.617 1678.2 159.759C1797.65 212.831 1893.66 274.527 1959.19 341.675C2024.71 408.82 2059.7 481.349 2057.32 556.134Z" stroke="url(#paint4_linear_1367_2522)" stroke-width="2"/>
<defs>
<linearGradient id="paint0_linear_1367_2522" x1="3.5" y1="513" x2="1072.21" y2="844.445" gradientUnits="userSpaceOnUse">
<stop stop-color="#FFFEFE"/>
<stop offset="1" stop-color="#FFFEFE" stop-opacity="0"/>
</linearGradient>
<linearGradient id="paint1_linear_1367_2522" x1="-117" y1="513" x2="1017.44" y2="864.742" gradientUnits="userSpaceOnUse">
<stop stop-color="#FFFEFE"/>
<stop offset="1" stop-color="#FFFEFE" stop-opacity="0"/>
</linearGradient>
<linearGradient id="paint2_linear_1367_2522" x1="-175" y1="513" x2="1313.57" y2="974.261" gradientUnits="userSpaceOnUse">
<stop stop-color="#FFFEFE"/>
<stop offset="1" stop-color="#FFFEFE" stop-opacity="0"/>
</linearGradient>
<linearGradient id="paint3_linear_1367_2522" x1="-367" y1="433.5" x2="1102.34" y2="888.115" gradientUnits="userSpaceOnUse">
<stop stop-color="#FFFEFE"/>
<stop offset="1" stop-color="#FFFEFE" stop-opacity="0"/>
</linearGradient>
<linearGradient id="paint4_linear_1367_2522" x1="-595" y1="487" x2="1392.83" y2="1101.83" gradientUnits="userSpaceOnUse">
<stop stop-color="#FFFEFE"/>
<stop offset="1" stop-color="#FFFEFE" stop-opacity="0"/>
</linearGradient>
</defs>
</svg>
