<svg width="14" height="14" viewBox="0 0 14 14" fill="none" xmlns="http://www.w3.org/2000/svg">
<g clip-path="url(#clip0_734_3306)">
<path d="M9.69733 8.12003L11.2822 9.70436L6.993 13.9936L2.70433 9.70494L4.28925 8.12003L6.99358 10.8384L9.69733 8.12003ZM12.4022 5.41569L14 7.00003L12.4162 8.58436L10.8313 7.00003L12.4022 5.41569ZM6.99358 5.41569L8.57792 6.98603L6.993 8.57094L5.40867 7.00003L6.993 5.41628L6.99358 5.41569ZM1.58433 5.41569L3.15583 7.00003L1.5855 8.57036L0 7.00003L1.58433 5.41569ZM6.99417 0.00585938L11.2828 4.28169L9.69792 5.86544L6.99358 3.16111L4.28983 5.87944L2.70492 4.29511L6.99358 0.00644271L6.99417 0.00585938Z" fill="#FFF502"/>
</g>
<defs>
<clipPath id="clip0_734_3306">
<rect width="14" height="14" fill="white"/>
</clipPath>
</defs>
</svg>
