<svg width="40" height="40" viewBox="0 0 40 40" fill="none" xmlns="http://www.w3.org/2000/svg">
<circle cx="20" cy="20" r="20" fill="#504C67"/>
<path d="M20 28.875C19.7166 28.875 19.4416 28.8127 19.175 28.688C18.9083 28.5627 18.675 28.3833 18.475 28.15L10.825 19C10.575 18.7 10.425 18.35 10.375 17.95C10.325 17.55 10.3916 17.175 10.575 16.825L12.45 13.1C12.6333 12.7667 12.8793 12.5 13.188 12.3C13.496 12.1 13.8416 12 14.225 12H25.775C26.1583 12 26.504 12.1 26.812 12.3C27.1206 12.5 27.3666 12.7667 27.55 13.1L29.425 16.825C29.6083 17.175 29.675 17.55 29.625 17.95C29.575 18.35 29.425 18.7 29.175 19L21.525 28.15C21.325 28.3833 21.0916 28.5627 20.825 28.688C20.5583 28.8127 20.2833 28.875 20 28.875ZM17.625 17H22.375L20.875 14H19.125L17.625 17ZM19 25.675V19H13.45L19 25.675ZM21 25.675L26.55 19H21V25.675ZM24.6 17H27.25L25.75 14H23.1L24.6 17ZM12.75 17H15.4L16.9 14H14.25L12.75 17Z" fill="white"/>
</svg>
