<svg width="40" height="40" viewBox="0 0 40 40" fill="none" xmlns="http://www.w3.org/2000/svg">
<circle cx="20" cy="20" r="20" fill="#504C67"/>
<path d="M27 21H25C24.7348 21 24.4804 21.1054 24.2929 21.2929C24.1054 21.4804 24 21.7348 24 22C24 22.2652 24.1054 22.5196 24.2929 22.7071C24.4804 22.8946 24.7348 23 25 23H25.91C25.7016 24.2264 25.1171 25.3578 24.2374 26.2374C23.3578 27.1171 22.2264 27.7016 21 27.91V19H22C22.2652 19 22.5196 18.8946 22.7071 18.7071C22.8946 18.5196 23 18.2652 23 18C23 17.7348 22.8946 17.4804 22.7071 17.2929C22.5196 17.1054 22.2652 17 22 17H21V15.82C21.6672 15.5841 22.2296 15.1199 22.5876 14.5095C22.9457 13.8991 23.0765 13.1818 22.9568 12.4843C22.8371 11.7868 22.4747 11.154 21.9337 10.6979C21.3926 10.2418 20.7077 9.99158 20 9.99158C19.2923 9.99158 18.6074 10.2418 18.0663 10.6979C17.5253 11.154 17.1629 11.7868 17.0432 12.4843C16.9235 13.1818 17.0543 13.8991 17.4124 14.5095C17.7704 15.1199 18.3328 15.5841 19 15.82V17H18C17.7348 17 17.4804 17.1054 17.2929 17.2929C17.1054 17.4804 17 17.7348 17 18C17 18.2652 17.1054 18.5196 17.2929 18.7071C17.4804 18.8946 17.7348 19 18 19H19V27.91C17.7736 27.7016 16.6422 27.1171 15.7626 26.2374C14.8829 25.3578 14.2984 24.2264 14.09 23H15C15.2652 23 15.5196 22.8946 15.7071 22.7071C15.8946 22.5196 16 22.2652 16 22C16 21.7348 15.8946 21.4804 15.7071 21.2929C15.5196 21.1054 15.2652 21 15 21H13C12.7348 21 12.4804 21.1054 12.2929 21.2929C12.1054 21.4804 12 21.7348 12 22C12 24.1217 12.8429 26.1566 14.3431 27.6569C15.8434 29.1572 17.8783 30 20 30C22.1217 30 24.1566 29.1572 25.6569 27.6569C27.1571 26.1566 28 24.1217 28 22C28 21.7348 27.8946 21.4804 27.7071 21.2929C27.5196 21.1054 27.2652 21 27 21ZM20 14C19.8022 14 19.6089 13.9414 19.4444 13.8315C19.28 13.7216 19.1518 13.5654 19.0761 13.3827C19.0004 13.2 18.9806 12.9989 19.0192 12.8049C19.0578 12.6109 19.153 12.4328 19.2929 12.2929C19.4327 12.153 19.6109 12.0578 19.8049 12.0192C19.9989 11.9806 20.2 12.0004 20.3827 12.0761C20.5654 12.1518 20.7216 12.28 20.8315 12.4444C20.9414 12.6089 21 12.8022 21 13C21 13.2652 20.8946 13.5196 20.7071 13.7071C20.5196 13.8946 20.2652 14 20 14Z" fill="white"/>
</svg>
