<svg width="40" height="40" viewBox="0 0 40 40" fill="none" xmlns="http://www.w3.org/2000/svg">
<circle cx="20" cy="20" r="20" fill="#504C67"/>
<path d="M18 22H22C22.2652 22 22.5196 21.8946 22.7071 21.7071C22.8946 21.5196 23 21.2652 23 21C23 20.7348 22.8946 20.4804 22.7071 20.2929C22.5196 20.1054 22.2652 20 22 20H18C17.7348 20 17.4804 20.1054 17.2929 20.2929C17.1054 20.4804 17 20.7348 17 21C17 21.2652 17.1054 21.5196 17.2929 21.7071C17.4804 21.8946 17.7348 22 18 22ZM27 11H13C12.2044 11 11.4413 11.3161 10.8787 11.8787C10.3161 12.4413 10 13.2044 10 14V17C10 17.2652 10.1054 17.5196 10.2929 17.7071C10.4804 17.8946 10.7348 18 11 18H12V26C12 26.7956 12.3161 27.5587 12.8787 28.1213C13.4413 28.6839 14.2044 29 15 29H25C25.7956 29 26.5587 28.6839 27.1213 28.1213C27.6839 27.5587 28 26.7956 28 26V18H29C29.2652 18 29.5196 17.8946 29.7071 17.7071C29.8946 17.5196 30 17.2652 30 17V14C30 13.2044 29.6839 12.4413 29.1213 11.8787C28.5587 11.3161 27.7956 11 27 11ZM26 26C26 26.2652 25.8946 26.5196 25.7071 26.7071C25.5196 26.8946 25.2652 27 25 27H15C14.7348 27 14.4804 26.8946 14.2929 26.7071C14.1054 26.5196 14 26.2652 14 26V18H26V26ZM28 16H12V14C12 13.7348 12.1054 13.4804 12.2929 13.2929C12.4804 13.1054 12.7348 13 13 13H27C27.2652 13 27.5196 13.1054 27.7071 13.2929C27.8946 13.4804 28 13.7348 28 14V16Z" fill="white"/>
</svg>
