<svg width="2418" height="2418" viewBox="0 0 2418 2418" fill="none" xmlns="http://www.w3.org/2000/svg">
<g style="mix-blend-mode:overlay" clip-path="url(#clip0_414_4908)">
<path d="M2699.43 -694.056C2689.62 -694.056 2684.69 -694.056 2674.84 -694.056C2678.69 -184.305 2916.67 271.98 2993.19 768.901C3057.83 1188.58 2947.76 1686.96 2593.46 1960.62C2506.61 2027.69 2420.21 2080.69 2387.01 2192.54C2360.08 2283.2 2379.94 2378.21 2410.97 2465.02C2488.01 2680.73 2661.32 2876.82 2674.82 3112.06C2684.67 3112.06 2689.6 3112.06 2699.4 3112.06C2686.28 2874.69 2516.44 2675.16 2440.88 2456.49C2410.36 2368.21 2391.06 2272 2417.44 2180.03C2449.59 2067.9 2533.66 2012.25 2619.81 1943.67C2967.49 1667.05 3075.02 1177.32 3011.53 759.498C2936.57 266.025 2703.19 -188.112 2699.43 -694.056Z" fill="url(#paint0_radial_414_4908)"/>
<path d="M2646.25 -694.056C2636.15 -694.056 2631.07 -694.056 2620.93 -694.056C2624.92 -176.178 2873.21 284.518 2953 788.626C2985.8 995.768 2984.15 1208.22 2921.52 1409.85C2855.79 1621.45 2718.14 1864.1 2535.67 1996.24C2447.44 2060.2 2355.91 2107.49 2320.27 2218.85C2292.19 2306.79 2313.26 2399.28 2345.37 2482.93C2425.74 2692.22 2606.47 2881.2 2620.95 3112.06C2631.1 3112.06 2636.18 3112.06 2646.27 3112.06C2632.28 2879.21 2455.01 2686.89 2376.2 2474.67C2344.58 2389.52 2324.08 2295.87 2351.61 2206.69C2386.07 2095.11 2475.18 2045.16 2562.79 1979.78C2924.73 1709.64 3037.86 1201.34 2971.85 779.491C2893.58 278.764 2650.1 -179.984 2646.25 -694.056Z" fill="url(#paint1_radial_414_4908)"/>
<path d="M2591.47 -694.055C2581.01 -694.055 2575.82 -694.055 2565.36 -694.055C2569.44 -168.23 2828.3 296.563 2911.65 807.635C2945.88 1017.53 2944 1232.96 2878.81 1436.94C2810.45 1650.69 2665.46 1902.07 2476.3 2030.65C2386.65 2091.61 2289.84 2133.33 2251.63 2244.17C2222.23 2329.47 2244.66 2419.57 2277.87 2500.17C2361.42 2703.15 2549.98 2885.32 2565.38 3112.06C2575.84 3112.06 2581.03 3112.06 2591.49 3112.06C2576.58 2883.44 2391.65 2698.13 2309.57 2492.24C2276.86 2410.25 2255.07 2319.04 2283.87 2232.53C2320.85 2121.41 2415.18 2077.17 2504.22 2014.8C2690.25 1884.54 2831.79 1637.21 2898.87 1424.47C2962.88 1221.54 2964.62 1007.5 2931.08 798.88C2849.39 291.033 2595.54 -171.902 2591.47 -694.055Z" fill="url(#paint2_radial_414_4908)"/>
<path d="M2534.98 -694.055C2524.23 -694.055 2518.79 -694.055 2508.05 -694.055C2512.41 -160.461 2782.18 307.87 2869.2 825.635C2904.89 1038.17 2902.83 1256.44 2834.97 1462.67C2763.91 1678.61 2610.99 1938.39 2415.31 2063.32C2324.3 2121.39 2221.98 2157.68 2181.06 2268.08C2150.36 2350.95 2174.09 2438.71 2208.35 2516.38C2295.15 2713.24 2491.88 2889.15 2508.07 3112.03C2518.84 3112.03 2524.26 3112.03 2535 3112.03C2519.17 2887.45 2326.34 2708.63 2240.97 2508.94C2207.25 2429.98 2184.12 2341.12 2214.21 2257.16C2253.84 2146.53 2353.58 2107.73 2443.97 2048.36C2636.62 1921.73 2785.76 1665.78 2855.54 1450.89C2922.2 1245.7 2924.14 1028.72 2889.17 817.374C2803.8 302.72 2539.12 -164.043 2534.98 -694.055Z" fill="url(#paint3_radial_414_4908)"/>
<path d="M2476.72 -694.055C2465.62 -694.055 2460.07 -694.055 2448.96 -694.055C2453.55 -153.073 2734.64 318.258 2825.5 842.27C2862.8 1057.23 2860.51 1278.23 2789.94 1486.44C2715.99 1704.56 2554.82 1972.21 2352.71 2093.47C2260.31 2148.93 2152.31 2180.05 2108.45 2290.07C2076.34 2370.67 2101.58 2456.33 2136.84 2531.22C2226.84 2722.4 2431.83 2892.51 2448.96 3112.01C2460.07 3112.01 2465.62 3112.01 2476.72 3112.01C2459.89 2890.97 2258.95 2718.32 2170.4 2524.48C2135.58 2448.31 2111.07 2361.69 2142.5 2280.08C2184.95 2169.89 2290.34 2136.35 2382.09 2079.73C2581.23 1956.77 2738.43 1692.69 2811.06 1475.63C2880.37 1268.31 2882.5 1048.54 2846.01 834.68C2756.99 313.556 2481.22 -156.453 2476.72 -694.055Z" fill="url(#paint4_radial_414_4908)"/>
<path d="M2416.68 -694.055C2405.21 -694.055 2399.48 -694.055 2388.04 -694.055C2392.99 -146.087 2685.84 327.393 2780.72 857.114C2819.63 1074.31 2817.15 1297.68 2743.82 1507.71C2666.85 1728.2 2496.9 2002.84 2288.52 2120.61C2194.65 2173.65 2080.82 2199.93 2033.94 2309.64C2000.35 2388.22 2027.02 2472.05 2063.31 2544.45C2156.49 2730.44 2369.84 2895.33 2388.04 3112.06C2399.5 3112.06 2405.21 3112.06 2416.68 3112.06C2398.92 2894.12 2189.54 2726.9 2097.81 2538.56C2061.99 2465.02 2036.02 2380.36 2068.91 2300.86C2114.38 2191.07 2225.45 2162.54 2318.59 2108.41C2524.08 1989.07 2689.89 1717.52 2765.45 1498.13C2837.48 1288.93 2839.87 1066.65 2801.74 850.442C2708.74 323.296 2421.4 -149.289 2416.68 -694.055Z" fill="url(#paint5_radial_414_4908)"/>
<path d="M2354.77 -694.055C2342.97 -694.055 2337.06 -694.055 2325.26 -694.055C2330.59 -139.729 2635.59 335.027 2734.78 869.741C2775.39 1088.82 2772.73 1314.38 2696.6 1525.83C2649.77 1655.88 2578.23 1775.6 2492.49 1883.69C2420.46 1974.48 2329.81 2092.71 2222.72 2143.74C2126.52 2189.61 2006.22 2219.12 1957.37 2326.05C1922.26 2403 1950.41 2485.17 1987.71 2555.45C2084 2736.84 2306.28 2897.53 2325.24 3112.06C2337.04 3112.06 2342.95 3112.06 2354.75 3112.06C2336.17 2896.61 2118.05 2734.02 2023.15 2550.63C1986.34 2479.39 1958.91 2396.48 1993.28 2318.84C2040.63 2211.84 2158.04 2180.39 2253.55 2133.53C2358.98 2081.74 2447.62 1964.74 2518.32 1874.31C2602.68 1766.39 2672.8 1647.11 2718.72 1517.83C2793.5 1307.02 2796.08 1082.44 2756.29 864.189C2659.24 331.647 2359.92 -142.595 2354.77 -694.055Z" fill="url(#paint6_radial_414_4908)"/>
<path d="M2290.92 -694.055C2278.76 -694.055 2272.69 -694.055 2260.54 -694.055C2266.45 -134.087 2583.99 340.692 2687.63 879.57C2730.05 1100.19 2727.26 1327.5 2648.27 1539.98C2599.37 1671.55 2524.77 1792.03 2436 1900.44C2361 1991.96 2265.98 2112.39 2155.35 2162.03C1965.56 2247.17 1779.98 2331.47 1909.99 2563.8C2009.38 2741.45 2240.65 2898.85 2260.51 3112.06C2272.67 3112.06 2278.74 3112.06 2290.9 3112.06C2271.48 2898.35 2044.39 2739.53 1946.44 2560.26C1908.58 2490.99 1879.72 2409.51 1915.66 2333.35C1966.12 2226.4 2089.78 2198.97 2186.9 2154.19C2295.87 2103.91 2388.89 1984.44 2462.44 1893.27C2549.8 1784.95 2623.01 1664.79 2670.88 1533.91C2748.5 1321.86 2751.26 1095.33 2709.7 875.361C2608.26 338.274 2296.65 -136.617 2290.92 -694.055Z" fill="url(#paint7_radial_414_4908)"/>
<path d="M2225.12 -694.055C2212.6 -694.055 2206.31 -694.055 2193.77 -694.055C2200.42 -129.385 2530.97 344.095 2639.36 886.041C2683.69 1107.74 2680.69 1336.37 2598.9 1549.42C2547.88 1682.32 2470.12 1803.27 2378.3 1911.68C2300.16 2003.98 2200.62 2125.89 2086.46 2174.34C1986.5 2216.77 1853.44 2239.18 1798.3 2346.62C1759.85 2421.49 1790.82 2501.56 1830.22 2568.86C1932.63 2743.78 2173.4 2899.27 2193.77 3112.06C2206.33 3112.06 2212.62 3112.06 2225.12 3112.06C2205.03 2899.23 1968.65 2742.95 1867.68 2566.93C1828.77 2499.12 1798.45 2418.74 1836.07 2343.56C1889.71 2236.34 2019.77 2212.47 2118.77 2169.39C2231.27 2120.43 2328.71 1999.13 2405.33 1907.2C2495.75 1798.75 2572.01 1677.98 2622.05 1545.66C2702.52 1332.79 2705.45 1104.78 2662.01 883.488C2555.87 342.819 2231.45 -131.445 2225.12 -694.055Z" fill="url(#paint8_radial_414_4908)"/>
<path d="M2157.32 -694.055C2144.38 -694.055 2137.91 -694.055 2124.97 -694.055C2132.45 -125.781 2476.5 344.722 2589.92 888.481C2636.27 1110.74 2633.13 1340.06 2548.48 1553.12C2495.26 1687.09 2414.24 1808.22 2319.4 1916.33C2237.74 2009.43 2133.77 2132.05 2016.05 2179.54C1826.3 2256.06 1603.27 2331.49 1748.3 2570.11C1853.78 2743.67 2103.99 2898.38 2124.97 3112.08C2137.91 3112.08 2144.38 3112.08 2157.32 3112.08C2136.55 2898.94 1890.76 2744.09 1786.72 2570.07C1645.18 2333.24 1859.53 2256.26 2049.01 2178.08C2165.07 2130.19 2266.98 2007.81 2346.98 1915.06C2440.43 1806.78 2519.89 1685.7 2572.1 1552.2C2655.45 1339.06 2658.5 1109.97 2613.12 887.921C2502.09 344.811 2164.33 -127.326 2157.32 -694.055Z" fill="url(#paint9_radial_414_4908)"/>
<path d="M2087.36 -694.055C2074.01 -694.055 2067.37 -694.055 2054.04 -694.055C2062.53 -123.519 2420.62 342.102 2539.39 886.085C2587.88 1108.21 2584.62 1337.65 2497.1 1549.98C2441.57 1684.72 2357.17 1805.62 2259.31 1913.06C2173.87 2006.87 2065.42 2129.43 1944.16 2176.22C1752.89 2249.95 1512.21 2323.27 1664.21 2566.71C1772.7 2740.4 2032.89 2896.07 2054.04 3112.03C2067.39 3112.03 2074.04 3112.03 2087.36 3112.03C2066.25 2897.28 1810.74 2742.3 1703.64 2568.88C1554.82 2327.84 1787.46 2253.78 1977.81 2178.86C2097.41 2131.8 2203.8 2009.07 2287.4 1915.62C2383.88 1807.77 2466.69 1686.78 2521.12 1552.31C2607.32 1339.57 2610.54 1110.06 2563.06 887.787C2446.81 343.781 2095.33 -124.415 2087.36 -694.055Z" fill="url(#paint10_radial_414_4908)"/>
<path d="M2015.27 -694.055C2001.54 -694.055 1994.67 -694.055 1980.94 -694.055C1990.66 -122.825 2363.21 335.632 2487.76 878.003C2538.54 1099.25 2535.16 1327.95 2444.77 1538.86C2386.83 1674.02 2298.98 1794.18 2198.14 1900.53C2108.54 1994.98 1995.72 2116.4 1870.88 2162.86C1676.37 2235.13 1419.56 2308.16 1577.99 2557.84C1689.57 2733.73 1959.79 2892.02 1980.94 3112.06C1994.67 3112.06 2001.54 3112.06 2015.27 3112.06C1994.11 2894.17 1728.53 2737.31 1618.42 2562.7C1462.93 2316.15 1712.43 2243.28 1905.2 2170.42C2028.39 2123.9 2139.19 2001.81 2226.77 1907.67C2326.25 1800.76 2412.45 1680.15 2469.25 1545.17C2558.33 1333.48 2561.64 1104.31 2511.92 882.57C2390.15 339.147 2024.4 -122.915 2015.27 -694.055Z" fill="url(#paint11_radial_414_4908)"/>
<path d="M1940.96 -694.056C1926.79 -694.056 1919.71 -694.056 1905.54 -694.056C1916.78 -123.967 2304.37 324.616 2434.99 863.271C2488.21 1082.68 2484.76 1309.75 2391.53 1518.3C2331.15 1653.37 2239.71 1772.37 2135.9 1877.08C2041.8 1972.01 1924.68 2091.26 1796.26 2137.67C1596.24 2209.9 1325.44 2284.94 1489.55 2542.59C1604.43 2722.94 1884.65 2885.86 1905.54 3112.08C1919.71 3112.08 1926.79 3112.08 1940.96 3112.08C1919.89 2889.02 1644.35 2728.49 1531.04 2550.56C1369.46 2296.9 1634.03 2223.08 1831.18 2150.97C1957.91 2104.62 2073.05 1984.24 2165 1889.47C2267.45 1783.95 2357.19 1664.3 2416.43 1529.14C2508.31 1319.38 2511.76 1091.41 2459.69 871.017C2331.98 330.37 1951.46 -123.184 1940.96 -694.056Z" fill="url(#paint12_radial_414_4908)"/>
<path d="M1864.34 -694.056C1849.74 -694.056 1842.4 -694.056 1827.78 -694.056C1840.81 -127.326 2244.04 308.385 2381.26 840.725C2437.09 1057.29 2433.6 1281.63 2337.58 1486.69C2274.53 1621.25 2179.47 1738.34 2072.81 1840.88C1973.67 1936.12 1852.41 2051.96 1720.45 2098.76C1512.08 2172.57 1230.18 2252.21 1399.01 2519.91C1465.62 2625.52 1559.05 2713.06 1641.75 2805.73C1717.4 2890.56 1817.5 2992.54 1827.8 3112.1C1842.4 3112.1 1849.77 3112.1 1864.36 3112.1C1853.86 2994.78 1755.22 2894.86 1680.71 2811.73C1599.24 2720.9 1507.19 2635.06 1441.46 2531.51C1274.73 2268.8 1551.84 2191.6 1755.91 2118.75C1886.26 2072.23 2005.59 1954.64 2102.34 1859.49C2207.68 1755.8 2301.04 1637.79 2362.83 1502.88C2457.54 1296.09 2461.1 1070.32 2406.47 852.278C2272.33 316.691 1876.43 -125.467 1864.34 -694.056Z" fill="url(#paint13_radial_414_4908)"/>
<path d="M1785.33 -694.056C1770.29 -694.056 1762.76 -694.056 1747.67 -694.056C1762.85 -133.169 2182.2 286.13 2326.54 809.157C2385.22 1021.65 2381.59 1242 2282.86 1442.29C2217.1 1575.71 2118.19 1690.18 2008.82 1789.88C1904.26 1885.17 1778.97 1996.24 1643.43 2043.81C1423.48 2121.03 1133.86 2208.44 1306.3 2488.52C1374.61 2599.51 1471.19 2691.82 1556.47 2789.41C1634.97 2879.14 1737.94 2986.72 1747.7 3112.03C1762.79 3112.03 1770.31 3112.03 1785.36 3112.03C1775.35 2989.59 1673.63 2884.83 1596.48 2797.58C1512.43 2702.52 1417.28 2612.56 1349.78 2504.29C1178.91 2230.25 1465.35 2146.94 1679.48 2071.51C1813.39 2024.38 1936.77 1910.89 2038.75 1815.56C2146.89 1714.45 2243.97 1598.66 2308.43 1464.64C2405.95 1261.95 2409.53 1039.61 2352.2 825.03C2211.21 297.324 1799.42 -130.102 1785.33 -694.056Z" fill="url(#paint14_radial_414_4908)"/>
<path d="M1703.9 -694.056C1688.39 -694.056 1680.64 -694.056 1665.13 -694.056C1682.79 -141.968 2118.95 256.957 2270.95 767.155C2332.61 974.163 2328.98 1189.01 2227.6 1383.19C2158.91 1514.72 2056.1 1625.75 1944.16 1721.86C1833.74 1816.66 1704.44 1921.66 1565.47 1970.51C1330.17 2053.15 1036.71 2152.29 1211.48 2447.28C1281.29 2565.14 1381.12 2663.87 1469.02 2767.89C1550.58 2864.43 1656.15 2979.36 1665.15 3112.08C1680.66 3112.08 1688.41 3112.08 1703.93 3112.08C1694.57 2983.03 1590.15 2871.76 1510.08 2778.64C1423.37 2677.84 1325.06 2582.27 1255.95 2467.86C1082.07 2180.12 1374.32 2086.98 1601.97 2007.14C1739.37 1958.96 1866.78 1850.91 1974.41 1755.83C2085.21 1657.96 2186.14 1545.19 2253.44 1412.69C2353.63 1215.47 2357.26 997.895 2296.99 788.134C2148.59 271.465 1720.36 -137.468 1703.9 -694.056Z" fill="url(#paint15_radial_414_4908)"/>
<path d="M1619.95 -694.056C1603.94 -694.056 1595.94 -694.056 1579.94 -694.056C1600.71 -154.125 2054.13 219.836 2214.48 713.153C2279.45 913.064 2275.69 1120.68 2171.85 1307.04C2035.91 1551.08 1748.17 1783.03 1486.69 1875.9C1348.41 1925 1163.79 1962.01 1083.55 2101.49C1027.85 2198.34 1063.74 2304.09 1114.54 2394.47C1185.56 2520.85 1288.43 2628.37 1379.29 2740.31C1464.52 2845.31 1572.03 2970.45 1579.96 3112.06C1595.97 3112.06 1603.96 3112.06 1619.97 3112.06C1611.57 2975.01 1504.96 2854.49 1421.4 2753.97C1331.76 2646.14 1230.45 2542.73 1159.99 2420.57C1110.04 2334 1073.88 2232.1 1128.4 2138.7C1207.47 2003.18 1388.96 1970.31 1523.49 1922.8C1783.59 1831.01 2066.56 1588.02 2197.87 1344.77C2300.59 1154.53 2304.31 943.333 2240.9 739.885C2084.49 238.195 1639.24 -147.991 1619.95 -694.056Z" fill="url(#paint16_radial_414_4908)"/>
<path d="M1533.41 -694.056C1516.93 -694.056 1508.67 -694.056 1492.13 -694.056C1516.71 -170.223 1987.97 173.827 2157.28 645.36C2344.27 1166.13 1861.63 1592.1 1407.21 1756.95C1259.98 1810.34 1068.8 1858.26 986.205 2007.43C927.703 2113.09 962.943 2228.52 1015.56 2328.53C1148.32 2580.92 1479.01 2810.5 1492.13 3112.06C1508.65 3112.06 1516.93 3112.06 1533.41 3112.06C1526.11 2964.65 1417.62 2833.63 1330.43 2722.87C1238.17 2605.64 1133.57 2492.78 1061.95 2361.02C1010.21 2265.73 974.608 2155.11 1031.77 2053.78C1113.28 1909.35 1301.44 1866.88 1444.3 1815.63C1707.24 1721.3 2000.31 1503.19 2141.99 1258.57C2247.06 1077.13 2250.86 874.129 2184.01 678.786C2019.03 196.418 1556.07 -162.185 1533.41 -694.056Z" fill="url(#paint17_radial_414_4908)"/>
<path d="M1444.17 -694.056C1427.15 -694.056 1418.67 -694.056 1401.65 -694.056C1430.78 -190.91 1920.45 117.81 2099.43 561.872C2309.54 1083.26 1752.53 1451.23 1327.23 1610.16C1169.77 1669.02 972.033 1731.29 887.403 1891.77C825.923 2008.35 860.223 2135.65 914.628 2247.6C1056.51 2539.48 1369.79 2774.61 1401.68 3112.06C1418.69 3112.06 1427.18 3112.06 1444.19 3112.06C1432.64 2796.6 1096.6 2553.9 961.935 2287.29C908.359 2181.22 873.589 2059.73 933.636 1948.53C1017.35 1793.55 1212.06 1738.41 1364.6 1682.26C1804.77 1520.21 2325.31 1124.71 2126.47 602.866C1952.04 145.214 1471.1 -180.634 1444.17 -694.056Z" fill="url(#paint18_radial_414_4908)"/>
<path d="M1352.2 -694.056C1334.67 -694.056 1325.87 -694.056 1308.34 -694.056C1343.15 -217.15 1851.83 50.845 2041.04 460.383C2278.56 974.722 1631.34 1282.46 1247.06 1431.57C1077.78 1497.26 873.702 1577.97 787.236 1751.44C722.733 1880.87 755.018 2023.69 811.729 2149.45C957.929 2473.73 1279.52 2742.93 1308.34 3112.03C1325.87 3112.03 1334.67 3112.03 1352.2 3112.03C1321.95 2758.67 1004.54 2505.38 859.932 2197.45C804.117 2078.58 771.094 1943.09 834.096 1820.08C919.733 1652.9 1120.9 1581.33 1284.47 1519.02C1689.53 1364.67 2292.51 1028.9 2068.31 510.063C1883.93 83.488 1384.12 -204.164 1352.2 -694.056Z" fill="url(#paint19_radial_414_4908)"/>
<path d="M1257.36 -694.056C1239.29 -694.056 1230.24 -694.056 1212.15 -694.056C1254.16 -249.412 1781.68 -25.7249 1981.06 341.923C2249.45 836.874 1499.47 1088.7 1169.03 1222.79C986.362 1296.94 777.787 1400.22 689.06 1587.91C620.684 1732.56 651.76 1892.91 709.613 2035.24C857.402 2398.97 1187.28 2705.47 1212.15 3112.06C1230.24 3112.06 1239.29 3112.06 1257.36 3112.06C1230.29 2723 903.613 2434.34 756.07 2089.29C698.508 1954.64 666.918 1802.95 733.301 1665.29C820.662 1484.16 1028.07 1391.67 1204.27 1321.71C1560.82 1180.16 2263.74 903.839 2009.69 398.007C1814.97 10.3436 1295.66 -233.874 1257.36 -694.056Z" fill="url(#paint20_radial_414_4908)"/>
<path d="M1159.58 -694.056C1140.96 -694.056 1131.64 -694.056 1112.99 -694.056C1168.79 -265.353 1684.2 -56.4873 1888.59 294.503C2164.08 767.603 1446.27 1001.81 1133.5 1137.53C948.144 1217.96 746.331 1333.48 657.178 1524.26C587.191 1674.02 609.982 1840.41 662.305 1991.67C793.459 2370.76 1102.56 2696.83 1112.99 3112.03C1131.64 3112.03 1140.96 3112.03 1159.58 3112.03C1142.7 2700.64 823.953 2383.43 685.187 2011.26C630.267 1863.99 603.758 1700.3 673.097 1552.85C762.204 1363.42 967.108 1253.49 1151.39 1175.93C1472.02 1040.99 2205.26 798.925 1932.7 315.818C1730.46 -42.6062 1209.18 -258.077 1159.58 -694.056Z" fill="url(#paint21_radial_414_4908)"/>
<path d="M1058.81 -694.056C1039.6 -694.056 1030 -694.056 1010.77 -694.056C1047.17 -471.533 1228.92 -314.721 1387.24 -168.589C1527.82 -38.7553 1686.08 88.5927 1787.71 253.241C2067.14 706.011 1385.22 925.266 1087.09 1063.11C900.501 1149.4 705.516 1276.14 616.744 1469.11C545.66 1623.6 561.422 1795.14 608.304 1954.06C723.987 2346.13 1012.58 2689.78 1010.77 3112.08C1029.98 3112.08 1039.58 3112.08 1058.81 3112.08C1055.16 2692.89 757.056 2357.15 634.32 1970.85C584.908 1815.36 566.011 1646.12 636.671 1493.72C725.711 1301.71 923.898 1180.03 1110.08 1096.43C1414.66 959.699 2113.78 733.706 1835.75 271.711C1734.87 104.019 1575.48 -26.0385 1434.23 -158.334C1274.93 -307.579 1092.35 -467.838 1058.81 -694.056Z" fill="url(#paint22_radial_414_4908)"/>
<path d="M954.906 -694.056C935.092 -694.056 925.196 -694.056 905.36 -694.056C982.982 -293.362 1468.91 -106.191 1678.2 218.269C1958.33 652.479 1315.79 858.995 1029.51 999.798C843.007 1091.53 655.186 1228.28 567.511 1422.57C495.867 1581.3 505.785 1757.17 547.384 1922.42C648.783 2325.2 917.36 2684.2 905.36 3112.06C925.196 3112.06 935.092 3112.06 954.906 3112.06C962.339 2686.58 684.56 2334.49 576.624 1936.37C532.585 1773.96 520.114 1599.98 591.535 1443.17C679.814 1249.39 871.015 1117.14 1057.74 1027.9C1349.13 888.593 2010.56 676.368 1730.3 233.762C1628.14 72.428 1471.42 -52.1886 1331.67 -179.38C1174.7 -322.311 994.244 -475.54 954.906 -694.056Z" fill="url(#paint23_radial_414_4908)"/>
<path d="M847.775 -694.056C827.357 -694.056 817.147 -694.056 796.729 -694.056C880.261 -310.624 1341.45 -127.281 1552.49 178.865C1830.78 582.648 1289.19 786.813 1001.79 925.892C795.139 1025.88 589.049 1186.16 501.151 1404.23C435.685 1566.64 444.842 1744.09 482.702 1911.83C574.049 2316.89 816.99 2685.61 796.729 3112.03C817.147 3112.03 827.357 3112.03 847.775 3112.03C864.455 2687.29 612.714 2324.1 515.479 1922.76C475.381 1757.24 463.985 1581.28 529.405 1420.46C618.267 1202.01 828.745 1046.99 1036.04 949.042C1327.28 811.44 1889.15 602.686 1608.71 191.179C1397.2 -119.131 928.129 -305.273 847.775 -694.056Z" fill="url(#paint24_radial_414_4908)"/>
<path d="M737.353 -694.056C716.308 -694.056 705.785 -694.056 684.717 -694.056C773.466 -321.057 1216.61 -141.722 1425.18 157.192C1696.43 545.841 1200.29 741.587 919.554 884.764C715.457 988.85 519.129 1159.36 433.805 1376.04C368.72 1541.3 373.758 1721.24 407.072 1892.96C486.799 2304.31 711.36 2683.17 684.717 3112.06C705.762 3112.06 716.285 3112.06 737.353 3112.06C761.264 2684.14 528.219 2309.64 443.208 1900.95C407.856 1730.97 400.982 1552.09 466.313 1388.11C552.958 1170.65 753.921 1004.68 959.361 902.474C1243.01 761.357 1760.53 561.961 1485.61 166.484C1275.69 -135.565 824.021 -316.333 737.353 -694.056Z" fill="url(#paint25_radial_414_4908)"/>
<path d="M623.506 -694.056C601.811 -694.056 590.952 -694.056 569.257 -694.056C661.029 -328.87 1085.95 -154.013 1288.81 141.945C1363.37 250.666 1402.64 373.76 1337.71 497.033C1236.2 689.734 1003.04 759.61 825.409 855.345C431.23 1067.79 251.649 1446.34 324.166 1880.26C393.594 2295.64 600.647 2682.32 569.257 3112.06C590.952 3112.06 601.811 3112.06 623.506 3112.06C652.925 2682.55 437.79 2299.14 363.727 1885.39C285.456 1448.29 473.007 1076.46 870.791 867.592C1148.66 721.683 1619.61 529.631 1353.52 148.237C1147.03 -147.744 714.024 -326.027 623.506 -694.056Z" fill="url(#paint26_radial_414_4908)"/>
<path d="M506.121 -694.056C483.754 -694.056 472.56 -694.056 450.194 -694.056C542.234 -336.707 946.577 -159.655 1143.2 133.147C1215.04 240.121 1255.07 361.872 1195.59 484.137C1104.28 671.779 886.732 741.744 719.241 837.546C334.868 1057.4 172.303 1447.98 233.917 1873.75C294.3 2291.06 484.672 2683.06 450.194 3112.06C472.56 3112.06 483.754 3112.06 506.121 3112.06C539.368 2682.55 341.361 2292.71 276.903 1876.03C210.408 1446.28 380.9 1060.88 770.198 844.419C942.324 748.707 1167.2 678.988 1263.2 489.04C1325.22 366.349 1285.32 244.084 1212.22 136.46C1012.42 -157.573 598.43 -333.236 506.121 -694.056Z" fill="url(#paint27_radial_414_4908)"/>
<path d="M385.131 -694.056C362.07 -694.056 350.54 -694.056 327.48 -694.056C417.483 -343.199 799.952 -161.043 988.355 130.661C1057.16 237.21 1096.74 358.446 1042.38 480.174C960.727 663.114 759.272 734.579 601.139 831.165C229.461 1058.1 83.8659 1457.16 136.368 1873.32C189.049 2290.41 363.57 2685.46 327.48 3112.06C350.54 3112.06 362.07 3112.06 385.131 3112.06C420.684 2684.14 238.887 2290.23 182.758 1872.79C126.181 1451.99 279.724 1056.37 657.648 832.732C820.08 736.617 1029.08 666.025 1115.19 480.936C1171.9 359.006 1131.96 237.636 1061.68 131.042C869.201 -160.931 476.41 -340.334 385.131 -694.056Z" fill="url(#paint28_radial_414_4908)"/>
<path d="M260.402 -694.056C236.625 -694.056 224.715 -694.056 200.96 -694.056C286.732 -348.416 646.073 -158.178 824.244 134.244C889.62 241.576 927.569 363.148 878.112 484.809C805.527 663.383 620.662 737.714 471.283 835.755C115.143 1069.49 -13.4585 1473.46 31.5432 1878.74C77.6643 2293.63 237.23 2689.33 200.937 3112.06C224.714 3112.06 236.603 3112.06 260.38 3112.06C296.784 2687.32 130.301 2291.66 81.2913 1875.52C32.9537 1465.04 169.481 1062.87 533.233 832.285C686.664 735.05 879.299 662.174 956.048 481.607C1007.74 359.969 968.899 238.643 901.866 131.848C718.703 -160.036 348.435 -346.132 260.402 -694.056Z" fill="url(#paint29_radial_414_4908)"/>
<path d="M131.801 -694.056C107.285 -694.056 95.0158 -694.056 70.5224 -694.056C150.204 -352.491 484.963 -151.259 650.977 143.58C712.479 252.815 747.876 375.417 702.986 497.571C638.887 672.025 471.037 750.364 330.01 850.733C-450.333 1406.18 133.256 2366.48 70.5 3112.06C95.0158 3112.06 107.285 3112.06 131.778 3112.06C167.578 2692.04 15.7368 2296.88 -27.3618 1883.91C-68.9827 1484.94 50.5515 1079.84 397.221 842.516C542.122 743.333 717.92 666.987 785.892 490.63C832.886 368.79 796.191 246.748 732.831 138.542C560.951 -154.976 214.505 -350.744 131.801 -694.056Z" fill="url(#paint30_radial_414_4908)"/>
<path d="M-0.763855 -694.056C-26.0409 -694.056 -38.6682 -694.056 -63.9452 -694.056C8.05745 -355.446 316.621 -140.513 468.731 158.177C525.823 270.279 557.929 394.582 517.338 517.743C461.119 688.257 310.509 771.655 177.81 875.204C-542.418 1437.3 -5.73412 2382.76 -63.9452 3112.06C-38.6682 3112.06 -26.0409 3112.06 -0.763855 3112.06C59.7981 2375.06 -498.648 1421.65 250.059 862.666C386.654 760.685 545.301 679.794 605.124 507.444C647.686 384.82 613.968 261.413 554.749 150.744C395.967 -145.998 74.9778 -354.192 -0.763855 -694.056Z" fill="url(#paint31_radial_414_4908)"/>
<path d="M-137.47 -694.056C-163.509 -694.056 -176.539 -694.056 -202.6 -694.056C-139.396 -357.394 141.16 -126.318 277.799 177.454C329.875 293.227 358.22 419.769 321.614 544.52C272.717 711.161 139.413 800.492 15.3787 908.049C-640.773 1477.2 -150.568 2399.86 -202.6 3112.06C-176.539 3112.06 -163.509 3112.06 -137.47 3112.06C-82.3265 2391.8 -594.204 1457.61 92.3069 891.772C220.438 786.163 361.802 699.72 414.058 531.266C452.499 407.343 422.342 281.898 367.847 167.939C223.819 -133.348 -70.0126 -356.633 -137.47 -694.056Z" fill="url(#paint32_radial_414_4908)"/>
<path d="M-278.364 -694.056C-305.23 -694.056 -318.664 -694.056 -345.53 -694.056C-291.819 -358.357 -41.2207 -109.146 78.627 200.537C125.084 320.609 149.309 449.838 116.509 576.693C74.4179 739.483 -41.7357 835.508 -156.367 947.833C-744.545 1524.28 -301.021 2417.35 -345.53 3112.06C-318.664 3112.06 -305.23 3112.06 -278.364 3112.06C-230.205 2409.16 -695.536 1501.58 -75.2293 928.534C43.9019 818.493 168.026 725.691 213.251 561.11C247.798 435.307 221.625 307.377 172.459 189.365C44.6632 -117.475 -220.13 -358.021 -278.364 -694.056Z" fill="url(#paint33_radial_414_4908)"/>
<path d="M-423.623 -694.056C-451.295 -694.056 -465.176 -694.056 -492.849 -694.056C-448.228 -354.237 -224.72 -83.3539 -124.597 237.949C-85.0579 364.804 -67.7512 498.735 -100.999 629.128C-142.62 792.365 -252.997 891.033 -354.956 1016.72C-839.183 1613.84 -456.892 2433.47 -492.849 3112.06C-465.176 3112.06 -451.318 3112.06 -423.623 3112.06C-383.658 2425.16 -787.935 1590.66 -271.557 995.41C-164.225 871.711 -45.7429 776.782 -0.651611 611.62C34.5661 482.637 15.5355 350.095 -26.9363 225.389C-135.366 -92.9363 -374.367 -354.349 -423.623 -694.056Z" fill="url(#paint34_radial_414_4908)"/>
</g>
<defs>
<radialGradient id="paint0_radial_414_4908" cx="0" cy="0" r="1" gradientUnits="userSpaceOnUse" gradientTransform="translate(2701.57 1209) rotate(90) scale(1903.06 327.217)">
<stop/>
<stop offset="1" stop-opacity="0.16"/>
</radialGradient>
<radialGradient id="paint1_radial_414_4908" cx="0" cy="0" r="1" gradientUnits="userSpaceOnUse" gradientTransform="translate(2648.42 1209) rotate(90) scale(1903.06 341.26)">
<stop/>
<stop offset="1" stop-opacity="0.16"/>
</radialGradient>
<radialGradient id="paint2_radial_414_4908" cx="0" cy="0" r="1" gradientUnits="userSpaceOnUse" gradientTransform="translate(2595.33 1209) rotate(90) scale(1903.06 357.352)">
<stop/>
<stop offset="1" stop-opacity="0.16"/>
</radialGradient>
<radialGradient id="paint3_radial_414_4908" cx="0" cy="0" r="1" gradientUnits="userSpaceOnUse" gradientTransform="translate(2539.26 1208.99) rotate(90) scale(1903.04 372.393)">
<stop/>
<stop offset="1" stop-opacity="0.16"/>
</radialGradient>
<radialGradient id="paint4_radial_414_4908" cx="0" cy="0" r="1" gradientUnits="userSpaceOnUse" gradientTransform="translate(2481.57 1208.98) rotate(90) scale(1903.03 387.879)">
<stop/>
<stop offset="1" stop-opacity="0.16"/>
</radialGradient>
<radialGradient id="paint5_radial_414_4908" cx="0" cy="0" r="1" gradientUnits="userSpaceOnUse" gradientTransform="translate(2422.37 1209) rotate(90) scale(1903.06 403.826)">
<stop/>
<stop offset="1" stop-opacity="0.16"/>
</radialGradient>
<radialGradient id="paint6_radial_414_4908" cx="0" cy="0" r="1" gradientUnits="userSpaceOnUse" gradientTransform="translate(2361.57 1209) rotate(90) scale(1903.06 420.243)">
<stop/>
<stop offset="1" stop-opacity="0.16"/>
</radialGradient>
<radialGradient id="paint7_radial_414_4908" cx="0" cy="0" r="1" gradientUnits="userSpaceOnUse" gradientTransform="translate(2301.47 1209) rotate(90) scale(1903.06 434.894)">
<stop/>
<stop offset="1" stop-opacity="0.16"/>
</radialGradient>
<radialGradient id="paint8_radial_414_4908" cx="0" cy="0" r="1" gradientUnits="userSpaceOnUse" gradientTransform="translate(2235.31 1209) rotate(90) scale(1903.06 454.597)">
<stop/>
<stop offset="1" stop-opacity="0.16"/>
</radialGradient>
<radialGradient id="paint9_radial_414_4908" cx="0" cy="0" r="1" gradientUnits="userSpaceOnUse" gradientTransform="translate(2172.03 1209.01) rotate(90) scale(1903.07 470.294)">
<stop/>
<stop offset="1" stop-opacity="0.16"/>
</radialGradient>
<radialGradient id="paint10_radial_414_4908" cx="0" cy="0" r="1" gradientUnits="userSpaceOnUse" gradientTransform="translate(2104.93 1208.99) rotate(90) scale(1903.04 488.736)">
<stop/>
<stop offset="1" stop-opacity="0.16"/>
</radialGradient>
<radialGradient id="paint11_radial_414_4908" cx="0" cy="0" r="1" gradientUnits="userSpaceOnUse" gradientTransform="translate(2036.36 1209) rotate(90) scale(1903.06 507.726)">
<stop/>
<stop offset="1" stop-opacity="0.16"/>
</radialGradient>
<radialGradient id="paint12_radial_414_4908" cx="0" cy="0" r="1" gradientUnits="userSpaceOnUse" gradientTransform="translate(1966.23 1209.01) rotate(90) scale(1903.07 527.248)">
<stop/>
<stop offset="1" stop-opacity="0.16"/>
</radialGradient>
<radialGradient id="paint13_radial_414_4908" cx="0" cy="0" r="1" gradientUnits="userSpaceOnUse" gradientTransform="translate(1894.74 1209.02) rotate(90) scale(1903.08 547.328)">
<stop/>
<stop offset="1" stop-opacity="0.16"/>
</radialGradient>
<radialGradient id="paint14_radial_414_4908" cx="0" cy="0" r="1" gradientUnits="userSpaceOnUse" gradientTransform="translate(1821.81 1208.99) rotate(90) scale(1903.04 567.948)">
<stop/>
<stop offset="1" stop-opacity="0.16"/>
</radialGradient>
<radialGradient id="paint15_radial_414_4908" cx="0" cy="0" r="1" gradientUnits="userSpaceOnUse" gradientTransform="translate(1747.57 1209.01) rotate(90) scale(1903.07 589.126)">
<stop/>
<stop offset="1" stop-opacity="0.16"/>
</radialGradient>
<radialGradient id="paint16_radial_414_4908" cx="0" cy="0" r="1" gradientUnits="userSpaceOnUse" gradientTransform="translate(1669.18 1209) rotate(90) scale(1903.06 613.751)">
<stop/>
<stop offset="1" stop-opacity="0.16"/>
</radialGradient>
<radialGradient id="paint17_radial_414_4908" cx="0" cy="0" r="1" gradientUnits="userSpaceOnUse" gradientTransform="translate(1592.26 1209) rotate(90) scale(1903.06 636.364)">
<stop/>
<stop offset="1" stop-opacity="0.16"/>
</radialGradient>
<radialGradient id="paint18_radial_414_4908" cx="0" cy="0" r="1" gradientUnits="userSpaceOnUse" gradientTransform="translate(1512.37 1209) rotate(90) scale(1903.06 657.718)">
<stop/>
<stop offset="1" stop-opacity="0.16"/>
</radialGradient>
<radialGradient id="paint19_radial_414_4908" cx="0" cy="0" r="1" gradientUnits="userSpaceOnUse" gradientTransform="translate(1434.23 1208.99) rotate(90) scale(1903.04 682.592)">
<stop/>
<stop offset="1" stop-opacity="0.16"/>
</radialGradient>
<radialGradient id="paint20_radial_414_4908" cx="0" cy="0" r="1" gradientUnits="userSpaceOnUse" gradientTransform="translate(1356.96 1209) rotate(90) scale(1903.06 706.868)">
<stop/>
<stop offset="1" stop-opacity="0.16"/>
</radialGradient>
<radialGradient id="paint21_radial_414_4908" cx="0" cy="0" r="1" gradientUnits="userSpaceOnUse" gradientTransform="translate(1302.77 1208.99) rotate(90) scale(1903.04 689.481)">
<stop/>
<stop offset="1" stop-opacity="0.16"/>
</radialGradient>
<radialGradient id="paint22_radial_414_4908" cx="0" cy="0" r="1" gradientUnits="userSpaceOnUse" gradientTransform="translate(1234.01 1209.01) rotate(90) scale(1903.07 665.767)">
<stop/>
<stop offset="1" stop-opacity="0.16"/>
</radialGradient>
<radialGradient id="paint23_radial_414_4908" cx="0" cy="0" r="1" gradientUnits="userSpaceOnUse" gradientTransform="translate(1156.47 1209) rotate(90) scale(1903.06 641.572)">
<stop/>
<stop offset="1" stop-opacity="0.16"/>
</radialGradient>
<radialGradient id="paint24_radial_414_4908" cx="0" cy="0" r="1" gradientUnits="userSpaceOnUse" gradientTransform="translate(1069.04 1208.99) rotate(90) scale(1903.04 615.935)">
<stop/>
<stop offset="1" stop-opacity="0.16"/>
</radialGradient>
<radialGradient id="paint25_radial_414_4908" cx="0" cy="0" r="1" gradientUnits="userSpaceOnUse" gradientTransform="translate(973.381 1209) rotate(90) scale(1903.06 590.298)">
<stop/>
<stop offset="1" stop-opacity="0.16"/>
</radialGradient>
<radialGradient id="paint26_radial_414_4908" cx="0" cy="0" r="1" gradientUnits="userSpaceOnUse" gradientTransform="translate(870.338 1209) rotate(90) scale(1903.06 561.93)">
<stop/>
<stop offset="1" stop-opacity="0.16"/>
</radialGradient>
<radialGradient id="paint27_radial_414_4908" cx="0" cy="0" r="1" gradientUnits="userSpaceOnUse" gradientTransform="translate(757.515 1209) rotate(90) scale(1903.06 536.305)">
<stop/>
<stop offset="1" stop-opacity="0.16"/>
</radialGradient>
<radialGradient id="paint28_radial_414_4908" cx="0" cy="0" r="1" gradientUnits="userSpaceOnUse" gradientTransform="translate(634.067 1209) rotate(90) scale(1903.06 508.071)">
<stop/>
<stop offset="1" stop-opacity="0.16"/>
</radialGradient>
<radialGradient id="paint29_radial_414_4908" cx="0" cy="0" r="1" gradientUnits="userSpaceOnUse" gradientTransform="translate(501.407 1209) rotate(90) scale(1903.06 478.498)">
<stop/>
<stop offset="1" stop-opacity="0.16"/>
</radialGradient>
<radialGradient id="paint30_radial_414_4908" cx="0" cy="0" r="1" gradientUnits="userSpaceOnUse" gradientTransform="translate(363.32 1209) rotate(90) scale(1903.06 443.852)">
<stop/>
<stop offset="1" stop-opacity="0.16"/>
</radialGradient>
<radialGradient id="paint31_radial_414_4908" cx="0" cy="0" r="1" gradientUnits="userSpaceOnUse" gradientTransform="translate(211.194 1209) rotate(90) scale(1903.06 413.034)">
<stop/>
<stop offset="1" stop-opacity="0.16"/>
</radialGradient>
<radialGradient id="paint32_radial_414_4908" cx="0" cy="0" r="1" gradientUnits="userSpaceOnUse" gradientTransform="translate(50.6953 1209) rotate(90) scale(1903.06 380.655)">
<stop/>
<stop offset="1" stop-opacity="0.16"/>
</radialGradient>
<radialGradient id="paint33_radial_414_4908" cx="0" cy="0" r="1" gradientUnits="userSpaceOnUse" gradientTransform="translate(-117.644 1209) rotate(90) scale(1903.06 346.646)">
<stop/>
<stop offset="1" stop-opacity="0.16"/>
</radialGradient>
<radialGradient id="paint34_radial_414_4908" cx="0" cy="0" r="1" gradientUnits="userSpaceOnUse" gradientTransform="translate(-292.31 1209) rotate(90) scale(1903.06 310.04)">
<stop/>
<stop offset="1" stop-opacity="0.16"/>
</radialGradient>
<clipPath id="clip0_414_4908">
<rect width="2418" height="2418" fill="white"/>
</clipPath>
</defs>
</svg>
