<svg width="518" height="522" viewBox="0 0 518 522" fill="none" xmlns="http://www.w3.org/2000/svg">
<circle cx="259" cy="263" r="99.5" fill="white" fill-opacity="0.5" stroke="url(#paint0_linear_1062_3602)"/>
<path fill-rule="evenodd" clip-rule="evenodd" d="M259 420C345.709 420 416 349.709 416 263C416 176.291 345.709 106 259 106C172.291 106 102 176.291 102 263C102 349.709 172.291 420 259 420ZM259 470C373.323 470 466 377.323 466 263C466 148.677 373.323 56 259 56C144.677 56 52 148.677 52 263C52 377.323 144.677 470 259 470Z" fill="white" fill-opacity="0.5"/>
<circle cx="259" cy="263" r="257.5" stroke="white" stroke-width="3"/>
<g filter="url(#filter0_d_1062_3602)">
<path fill-rule="evenodd" clip-rule="evenodd" d="M299.858 34.361L301.453 35.3686C305.109 37.6772 307.325 41.6986 307.325 46.0218V80.5263C307.325 87.485 301.684 93.1262 294.725 93.1262H250.433C243.474 93.1262 237.833 87.485 237.833 80.5262V45.6058C237.833 41.5118 239.822 37.673 243.167 35.312L263.772 20.7676C267.935 17.8291 273.458 17.6872 277.766 20.4083L281.407 22.7079C282.293 19.9755 284.859 18 287.887 18H293.047C296.809 18 299.858 21.0493 299.858 24.8108V34.361Z" fill="url(#paint1_linear_1062_3602)"/>
<g filter="url(#filter1_d_1062_3602)">
<rect x="289.49" y="44.373" width="10.4342" height="10.4342" rx="3.4054" fill="white"/>
</g>
<g filter="url(#filter2_d_1062_3602)">
<rect x="289.49" y="59.0594" width="10.4342" height="10.4342" rx="3.4054" fill="white"/>
</g>
<g filter="url(#filter3_d_1062_3602)">
<rect x="274.803" y="44.373" width="10.4342" height="10.4342" rx="3.4054" fill="white"/>
</g>
<g filter="url(#filter4_d_1062_3602)">
<rect x="274.803" y="59.0594" width="10.4342" height="10.4342" rx="3.4054" fill="white"/>
</g>
<g filter="url(#filter5_bii_1062_3602)">
<path d="M210.675 51.1383C210.675 47.7586 212.32 44.5904 215.084 42.646L234.04 29.3129C237.465 26.9044 242.001 26.7881 245.544 29.0179L267.275 42.6936C270.295 44.5942 272.127 47.9126 272.127 51.4809V82.9903C272.127 88.7245 267.479 93.373 261.744 93.373H221.057C215.323 93.373 210.675 88.7245 210.675 82.9903V51.1383Z" fill="#6555EE" fill-opacity="0.1"/>
</g>
<g filter="url(#filter6_bii_1062_3602)">
<rect x="218" y="74.8072" width="10.4342" height="10.4342" rx="3.4054" fill="white" fill-opacity="0.7"/>
</g>
<g filter="url(#filter7_bii_1062_3602)">
<rect x="233.434" y="59.373" width="10.4342" height="10.4342" rx="3.4054" fill="white" fill-opacity="0.7"/>
</g>
<g filter="url(#filter8_bii_1062_3602)">
<rect x="233.434" y="74.8072" width="10.4342" height="10.4342" rx="3.4054" fill="white" fill-opacity="0.7"/>
</g>
<g filter="url(#filter9_bii_1062_3602)">
<rect x="218" y="59.373" width="10.4342" height="10.4342" rx="3.4054" fill="white" fill-opacity="0.7"/>
</g>
</g>
<path d="M82 142L120.105 164V208L82 230L43.8949 208V164L82 142Z" fill="white"/>
<path fill-rule="evenodd" clip-rule="evenodd" d="M119.912 163.663L82 185.551V229.551L82.5843 229.888L120.496 208V164L119.912 163.663Z" fill="#4A3CC1"/>
<path fill-rule="evenodd" clip-rule="evenodd" d="M81.8068 229.888L43.895 208V164L44.4793 163.663L82.3911 185.551V229.551L81.8068 229.888Z" fill="#8274F9"/>
<g filter="url(#filter10_bii_1062_3602)">
<path d="M82.2024 154.736L108.619 170.194L108.441 200.801L81.8453 215.95L55.4282 200.492L55.6067 169.885L82.2024 154.736Z" fill="#6555EE" fill-opacity="0.1"/>
</g>
<g filter="url(#filter11_bii_1062_3602)">
<path d="M82.1435 164.849L99.832 175.199L99.7125 195.693L81.9044 205.837L64.2158 195.486L64.3353 174.992L82.1435 164.849Z" fill="#6555EE" fill-opacity="0.6"/>
</g>
<path d="M380.391 365.125V371.875H414.141V365.125C414.141 358.847 418.461 353.616 424.266 352.097V348.25C424.266 342.681 419.71 338.125 414.141 338.125H380.391C374.822 338.125 370.266 342.681 370.266 348.25V352.097C376.071 353.616 380.391 358.847 380.391 365.125Z" fill="url(#paint2_linear_1062_3602)"/>
<path d="M427.641 358.375C423.929 358.375 420.891 361.412 420.891 365.125V378.625H373.641V365.125C373.641 361.412 370.604 358.375 366.891 358.375C363.179 358.375 360.141 361.412 360.141 365.125V382C360.141 387.569 364.697 392.125 370.266 392.125V395.5C370.266 397.356 371.785 398.875 373.641 398.875C375.497 398.875 377.016 397.356 377.016 395.5V392.125H417.516V395.5C417.516 397.356 419.035 398.875 420.891 398.875C422.747 398.875 424.266 397.356 424.266 395.5V392.125C429.835 392.125 434.391 387.569 434.391 382V365.125C434.391 361.412 431.354 358.375 427.641 358.375Z" fill="url(#paint3_linear_1062_3602)"/>
<g filter="url(#filter12_d_1062_3602)">
<circle cx="385.169" cy="346.935" r="2.1039" fill="white"/>
</g>
<g filter="url(#filter13_d_1062_3602)">
<circle cx="391.48" cy="355.351" r="2.1039" fill="white"/>
</g>
<g filter="url(#filter14_d_1062_3602)">
<circle cx="396.74" cy="346.935" r="2.1039" fill="white"/>
</g>
<g filter="url(#filter15_d_1062_3602)">
<circle cx="403.052" cy="355.351" r="2.1039" fill="white"/>
</g>
<g filter="url(#filter16_d_1062_3602)">
<circle cx="396.74" cy="363.766" r="2.1039" fill="white"/>
</g>
<g filter="url(#filter17_d_1062_3602)">
<circle cx="408.312" cy="346.935" r="2.1039" fill="white"/>
</g>
<g filter="url(#filter18_bii_1062_3602)">
<rect x="400.948" y="341.675" width="46.2857" height="47.3377" rx="6" fill="#D9D9D9" fill-opacity="0.1"/>
</g>
<g clip-path="url(#clip0_1062_3602)">
<path d="M398 200.337L415.37 214.86H466.325L473.62 205.161L398.006 200.337H398ZM442.869 142V199.903L466.318 201.43L442.869 142ZM439.673 151.757L405.793 197.377L439.673 199.541V151.757Z" fill="url(#paint4_linear_1062_3602)"/>
</g>
<g filter="url(#filter19_bii_1062_3602)">
<path d="M455.232 148.995C457.181 145.801 461.819 145.801 463.768 148.995L495.13 200.396C497.163 203.728 494.765 208 490.862 208H428.138C424.235 208 421.837 203.728 423.87 200.396L455.232 148.995Z" fill="white" fill-opacity="0.1"/>
</g>
<path d="M217.445 111.93H214.539L214.523 110.414H217.016C217.443 110.414 217.799 110.354 218.086 110.234C218.372 110.115 218.589 109.94 218.734 109.711C218.885 109.482 218.961 109.203 218.961 108.875C218.961 108.51 218.891 108.214 218.75 107.984C218.615 107.755 218.401 107.589 218.109 107.484C217.818 107.375 217.448 107.32 217 107.32H215.234V117H213.086V105.625H217C217.646 105.625 218.221 105.688 218.727 105.812C219.237 105.932 219.669 106.12 220.023 106.375C220.378 106.63 220.646 106.951 220.828 107.336C221.016 107.721 221.109 108.18 221.109 108.711C221.109 109.18 221 109.612 220.781 110.008C220.568 110.398 220.237 110.716 219.789 110.961C219.346 111.206 218.784 111.346 218.102 111.383L217.445 111.93ZM217.352 117H213.906L214.805 115.312H217.352C217.779 115.312 218.13 115.242 218.406 115.102C218.688 114.961 218.896 114.768 219.031 114.523C219.172 114.273 219.242 113.987 219.242 113.664C219.242 113.31 219.18 113.003 219.055 112.742C218.935 112.482 218.742 112.281 218.477 112.141C218.216 112 217.872 111.93 217.445 111.93H215.211L215.227 110.414H218.07L218.562 111C219.219 111.005 219.753 111.135 220.164 111.391C220.581 111.646 220.888 111.974 221.086 112.375C221.284 112.776 221.383 113.208 221.383 113.672C221.383 114.401 221.224 115.013 220.906 115.508C220.594 116.003 220.135 116.375 219.531 116.625C218.932 116.875 218.206 117 217.352 117ZM227.742 115.203V111.305C227.742 111.018 227.693 110.771 227.594 110.562C227.495 110.354 227.344 110.193 227.141 110.078C226.938 109.964 226.68 109.906 226.367 109.906C226.091 109.906 225.849 109.953 225.641 110.047C225.438 110.141 225.281 110.273 225.172 110.445C225.062 110.612 225.008 110.805 225.008 111.023H222.938C222.938 110.674 223.021 110.344 223.188 110.031C223.354 109.714 223.591 109.432 223.898 109.188C224.211 108.938 224.583 108.742 225.016 108.602C225.453 108.461 225.943 108.391 226.484 108.391C227.125 108.391 227.695 108.5 228.195 108.719C228.701 108.932 229.096 109.255 229.383 109.688C229.674 110.12 229.82 110.664 229.82 111.32V115.008C229.82 115.43 229.846 115.792 229.898 116.094C229.956 116.391 230.039 116.648 230.148 116.867V117H228.047C227.948 116.786 227.872 116.516 227.82 116.188C227.768 115.854 227.742 115.526 227.742 115.203ZM228.031 111.852L228.047 113.078H226.742C226.419 113.078 226.135 113.112 225.891 113.18C225.646 113.242 225.445 113.336 225.289 113.461C225.133 113.581 225.016 113.727 224.938 113.898C224.859 114.065 224.82 114.255 224.82 114.469C224.82 114.677 224.867 114.865 224.961 115.031C225.06 115.198 225.201 115.331 225.383 115.43C225.57 115.523 225.789 115.57 226.039 115.57C226.404 115.57 226.721 115.497 226.992 115.352C227.263 115.201 227.474 115.018 227.625 114.805C227.776 114.591 227.857 114.388 227.867 114.195L228.461 115.086C228.388 115.299 228.279 115.526 228.133 115.766C227.987 116.005 227.799 116.229 227.57 116.438C227.341 116.646 227.065 116.818 226.742 116.953C226.419 117.089 226.044 117.156 225.617 117.156C225.07 117.156 224.581 117.047 224.148 116.828C223.716 116.609 223.375 116.31 223.125 115.93C222.875 115.549 222.75 115.117 222.75 114.633C222.75 114.185 222.833 113.789 223 113.445C223.167 113.102 223.414 112.812 223.742 112.578C224.07 112.339 224.477 112.159 224.961 112.039C225.451 111.914 226.01 111.852 226.641 111.852H228.031ZM223.648 107.391L225.875 105.523H227.109L229.344 107.391H227.711L226.492 106.328L225.273 107.391H223.648ZM228.766 106.25L230.008 104.164H231.742L230.008 106.25H228.766ZM235.68 108.547V110.031H230.836V108.547H235.68ZM232.133 106.469H234.203V114.562C234.203 114.812 234.237 115.005 234.305 115.141C234.372 115.276 234.474 115.367 234.609 115.414C234.745 115.461 234.906 115.484 235.094 115.484C235.229 115.484 235.354 115.477 235.469 115.461C235.583 115.445 235.68 115.43 235.758 115.414L235.766 116.961C235.594 117.018 235.398 117.065 235.18 117.102C234.966 117.138 234.724 117.156 234.453 117.156C233.99 117.156 233.583 117.078 233.234 116.922C232.885 116.76 232.615 116.503 232.422 116.148C232.229 115.789 232.133 115.315 232.133 114.727V106.469ZM246.109 115.203V105H248.188V117H246.312L246.109 115.203ZM240.68 112.875V112.711C240.68 112.065 240.753 111.479 240.898 110.953C241.049 110.422 241.268 109.966 241.555 109.586C241.841 109.206 242.188 108.911 242.594 108.703C243.005 108.495 243.471 108.391 243.992 108.391C244.497 108.391 244.938 108.492 245.312 108.695C245.693 108.898 246.016 109.188 246.281 109.562C246.552 109.938 246.768 110.383 246.93 110.898C247.091 111.409 247.208 111.971 247.281 112.586V113.031C247.208 113.63 247.091 114.18 246.93 114.68C246.768 115.18 246.552 115.617 246.281 115.992C246.016 116.362 245.693 116.648 245.312 116.852C244.932 117.055 244.487 117.156 243.977 117.156C243.461 117.156 242.997 117.049 242.586 116.836C242.18 116.622 241.833 116.323 241.547 115.938C241.266 115.552 241.049 115.099 240.898 114.578C240.753 114.057 240.68 113.49 240.68 112.875ZM242.75 112.711V112.875C242.75 113.24 242.781 113.581 242.844 113.898C242.906 114.216 243.008 114.497 243.148 114.742C243.289 114.982 243.469 115.169 243.688 115.305C243.911 115.44 244.182 115.508 244.5 115.508C244.906 115.508 245.24 115.419 245.5 115.242C245.766 115.06 245.971 114.812 246.117 114.5C246.263 114.182 246.357 113.826 246.398 113.43V112.203C246.378 111.891 246.323 111.602 246.234 111.336C246.151 111.07 246.031 110.841 245.875 110.648C245.724 110.456 245.536 110.305 245.312 110.195C245.089 110.086 244.823 110.031 244.516 110.031C244.198 110.031 243.927 110.102 243.703 110.242C243.479 110.378 243.297 110.568 243.156 110.812C243.016 111.057 242.911 111.341 242.844 111.664C242.781 111.987 242.75 112.336 242.75 112.711ZM249.453 106.094V107.438H244.094V106.094H249.453ZM250.641 112.859V112.695C250.641 112.076 250.729 111.505 250.906 110.984C251.083 110.458 251.341 110.003 251.68 109.617C252.018 109.232 252.432 108.932 252.922 108.719C253.411 108.5 253.969 108.391 254.594 108.391C255.229 108.391 255.792 108.5 256.281 108.719C256.776 108.932 257.193 109.232 257.531 109.617C257.87 110.003 258.128 110.458 258.305 110.984C258.482 111.505 258.57 112.076 258.57 112.695V112.859C258.57 113.474 258.482 114.044 258.305 114.57C258.128 115.091 257.87 115.547 257.531 115.938C257.193 116.323 256.779 116.622 256.289 116.836C255.799 117.049 255.24 117.156 254.609 117.156C253.984 117.156 253.424 117.049 252.93 116.836C252.435 116.622 252.018 116.323 251.68 115.938C251.341 115.547 251.083 115.091 250.906 114.57C250.729 114.044 250.641 113.474 250.641 112.859ZM252.703 112.695V112.859C252.703 113.229 252.74 113.576 252.812 113.898C252.885 114.221 252.997 114.505 253.148 114.75C253.299 114.995 253.495 115.188 253.734 115.328C253.979 115.464 254.271 115.531 254.609 115.531C254.943 115.531 255.229 115.464 255.469 115.328C255.708 115.188 255.904 114.995 256.055 114.75C256.211 114.505 256.326 114.221 256.398 113.898C256.471 113.576 256.508 113.229 256.508 112.859V112.695C256.508 112.331 256.471 111.99 256.398 111.672C256.326 111.349 256.211 111.065 256.055 110.82C255.904 110.57 255.706 110.375 255.461 110.234C255.221 110.089 254.932 110.016 254.594 110.016C254.26 110.016 253.974 110.089 253.734 110.234C253.495 110.375 253.299 110.57 253.148 110.82C252.997 111.065 252.885 111.349 252.812 111.672C252.74 111.99 252.703 112.331 252.703 112.695ZM255.18 105L257.445 107.164V107.258H255.789L254.578 106.07L253.375 107.258H251.742V107.148L253.977 105H255.18ZM253.414 118.906C253.414 118.62 253.518 118.38 253.727 118.188C253.94 117.995 254.227 117.898 254.586 117.898C254.945 117.898 255.229 117.995 255.438 118.188C255.651 118.38 255.758 118.62 255.758 118.906C255.758 119.188 255.651 119.422 255.438 119.609C255.229 119.802 254.945 119.898 254.586 119.898C254.227 119.898 253.94 119.802 253.727 119.609C253.518 119.422 253.414 119.188 253.414 118.906ZM262.094 110.352V117H260.031V108.547H261.969L262.094 110.352ZM261.766 112.469H261.156C261.161 111.854 261.245 111.297 261.406 110.797C261.568 110.297 261.794 109.867 262.086 109.508C262.383 109.148 262.734 108.872 263.141 108.68C263.547 108.487 264 108.391 264.5 108.391C264.906 108.391 265.273 108.448 265.602 108.562C265.93 108.677 266.211 108.859 266.445 109.109C266.685 109.359 266.867 109.688 266.992 110.094C267.122 110.495 267.188 110.99 267.188 111.578V117H265.109V111.562C265.109 111.177 265.052 110.872 264.938 110.648C264.828 110.424 264.667 110.266 264.453 110.172C264.245 110.078 263.987 110.031 263.68 110.031C263.362 110.031 263.083 110.096 262.844 110.227C262.609 110.352 262.411 110.526 262.25 110.75C262.094 110.974 261.974 111.232 261.891 111.523C261.807 111.815 261.766 112.13 261.766 112.469ZM274.383 108.547H276.258V116.742C276.258 117.508 276.091 118.156 275.758 118.688C275.43 119.224 274.969 119.63 274.375 119.906C273.781 120.188 273.091 120.328 272.305 120.328C271.966 120.328 271.599 120.281 271.203 120.188C270.812 120.094 270.435 119.945 270.07 119.742C269.711 119.544 269.411 119.286 269.172 118.969L270.102 117.75C270.383 118.078 270.701 118.326 271.055 118.492C271.409 118.664 271.792 118.75 272.203 118.75C272.62 118.75 272.974 118.672 273.266 118.516C273.562 118.365 273.789 118.141 273.945 117.844C274.107 117.552 274.188 117.193 274.188 116.766V110.477L274.383 108.547ZM268.672 112.875V112.711C268.672 112.065 268.75 111.479 268.906 110.953C269.062 110.422 269.286 109.966 269.578 109.586C269.875 109.206 270.232 108.911 270.648 108.703C271.07 108.495 271.544 108.391 272.07 108.391C272.628 108.391 273.096 108.492 273.477 108.695C273.862 108.898 274.18 109.188 274.43 109.562C274.685 109.938 274.883 110.383 275.023 110.898C275.169 111.409 275.281 111.971 275.359 112.586V113.031C275.286 113.63 275.169 114.18 275.008 114.68C274.852 115.18 274.643 115.617 274.383 115.992C274.122 116.362 273.799 116.648 273.414 116.852C273.029 117.055 272.576 117.156 272.055 117.156C271.534 117.156 271.065 117.049 270.648 116.836C270.232 116.622 269.875 116.323 269.578 115.938C269.286 115.552 269.062 115.099 268.906 114.578C268.75 114.057 268.672 113.49 268.672 112.875ZM270.734 112.711V112.875C270.734 113.24 270.771 113.581 270.844 113.898C270.917 114.216 271.029 114.497 271.18 114.742C271.331 114.982 271.521 115.169 271.75 115.305C271.979 115.44 272.253 115.508 272.57 115.508C272.997 115.508 273.346 115.419 273.617 115.242C273.893 115.06 274.102 114.812 274.242 114.5C274.388 114.182 274.482 113.826 274.523 113.43V112.203C274.497 111.891 274.44 111.602 274.352 111.336C274.268 111.07 274.151 110.841 274 110.648C273.849 110.456 273.656 110.305 273.422 110.195C273.188 110.086 272.909 110.031 272.586 110.031C272.273 110.031 272 110.102 271.766 110.242C271.531 110.378 271.339 110.568 271.188 110.812C271.036 111.057 270.922 111.341 270.844 111.664C270.771 111.987 270.734 112.336 270.734 112.711ZM286.75 114.688C286.75 114.51 286.703 114.352 286.609 114.211C286.516 114.07 286.339 113.943 286.078 113.828C285.823 113.708 285.448 113.596 284.953 113.492C284.516 113.398 284.112 113.281 283.742 113.141C283.372 113 283.055 112.831 282.789 112.633C282.523 112.43 282.315 112.193 282.164 111.922C282.018 111.646 281.945 111.328 281.945 110.969C281.945 110.62 282.021 110.292 282.172 109.984C282.323 109.672 282.542 109.398 282.828 109.164C283.115 108.924 283.464 108.737 283.875 108.602C284.286 108.461 284.75 108.391 285.266 108.391C285.984 108.391 286.602 108.508 287.117 108.742C287.638 108.977 288.036 109.299 288.312 109.711C288.589 110.117 288.727 110.576 288.727 111.086H286.664C286.664 110.862 286.612 110.659 286.508 110.477C286.409 110.294 286.255 110.148 286.047 110.039C285.839 109.924 285.576 109.867 285.258 109.867C284.971 109.867 284.729 109.914 284.531 110.008C284.339 110.102 284.193 110.224 284.094 110.375C283.995 110.526 283.945 110.693 283.945 110.875C283.945 111.01 283.971 111.133 284.023 111.242C284.081 111.346 284.172 111.443 284.297 111.531C284.422 111.62 284.591 111.701 284.805 111.773C285.023 111.846 285.292 111.917 285.609 111.984C286.24 112.109 286.789 112.276 287.258 112.484C287.732 112.688 288.102 112.958 288.367 113.297C288.633 113.635 288.766 114.068 288.766 114.594C288.766 114.969 288.685 115.312 288.523 115.625C288.362 115.932 288.128 116.201 287.82 116.43C287.513 116.659 287.146 116.839 286.719 116.969C286.292 117.094 285.81 117.156 285.273 117.156C284.497 117.156 283.841 117.018 283.305 116.742C282.768 116.461 282.362 116.107 282.086 115.68C281.81 115.247 281.672 114.799 281.672 114.336H283.648C283.664 114.664 283.753 114.927 283.914 115.125C284.076 115.323 284.279 115.466 284.523 115.555C284.773 115.638 285.036 115.68 285.312 115.68C285.625 115.68 285.888 115.638 286.102 115.555C286.315 115.466 286.477 115.349 286.586 115.203C286.695 115.052 286.75 114.88 286.75 114.688ZM294.992 115.203V111.305C294.992 111.018 294.943 110.771 294.844 110.562C294.745 110.354 294.594 110.193 294.391 110.078C294.188 109.964 293.93 109.906 293.617 109.906C293.341 109.906 293.099 109.953 292.891 110.047C292.688 110.141 292.531 110.273 292.422 110.445C292.312 110.612 292.258 110.805 292.258 111.023H290.188C290.188 110.674 290.271 110.344 290.438 110.031C290.604 109.714 290.841 109.432 291.148 109.188C291.461 108.938 291.833 108.742 292.266 108.602C292.703 108.461 293.193 108.391 293.734 108.391C294.375 108.391 294.945 108.5 295.445 108.719C295.951 108.932 296.346 109.255 296.633 109.688C296.924 110.12 297.07 110.664 297.07 111.32V115.008C297.07 115.43 297.096 115.792 297.148 116.094C297.206 116.391 297.289 116.648 297.398 116.867V117H295.297C295.198 116.786 295.122 116.516 295.07 116.188C295.018 115.854 294.992 115.526 294.992 115.203ZM295.281 111.852L295.297 113.078H293.992C293.669 113.078 293.385 113.112 293.141 113.18C292.896 113.242 292.695 113.336 292.539 113.461C292.383 113.581 292.266 113.727 292.188 113.898C292.109 114.065 292.07 114.255 292.07 114.469C292.07 114.677 292.117 114.865 292.211 115.031C292.31 115.198 292.451 115.331 292.633 115.43C292.82 115.523 293.039 115.57 293.289 115.57C293.654 115.57 293.971 115.497 294.242 115.352C294.513 115.201 294.724 115.018 294.875 114.805C295.026 114.591 295.107 114.388 295.117 114.195L295.711 115.086C295.638 115.299 295.529 115.526 295.383 115.766C295.237 116.005 295.049 116.229 294.82 116.438C294.591 116.646 294.315 116.818 293.992 116.953C293.669 117.089 293.294 117.156 292.867 117.156C292.32 117.156 291.831 117.047 291.398 116.828C290.966 116.609 290.625 116.31 290.375 115.93C290.125 115.549 290 115.117 290 114.633C290 114.185 290.083 113.789 290.25 113.445C290.417 113.102 290.664 112.812 290.992 112.578C291.32 112.339 291.727 112.159 292.211 112.039C292.701 111.914 293.26 111.852 293.891 111.852H295.281ZM294.539 107.133H292.992L292.898 106.055C293.159 106.039 293.37 106.013 293.531 105.977C293.693 105.935 293.81 105.878 293.883 105.805C293.961 105.727 294 105.63 294 105.516C294 105.411 293.969 105.323 293.906 105.25C293.849 105.177 293.768 105.12 293.664 105.078C293.56 105.036 293.435 105.008 293.289 104.992C293.148 104.971 292.995 104.961 292.828 104.961L292.883 103.969C293.352 103.969 293.763 104.005 294.117 104.078C294.471 104.146 294.766 104.247 295 104.383C295.24 104.513 295.419 104.672 295.539 104.859C295.664 105.042 295.727 105.247 295.727 105.477C295.727 105.841 295.602 106.112 295.352 106.289C295.107 106.466 294.836 106.576 294.539 106.617V107.133ZM300.953 110.352V117H298.891V108.547H300.828L300.953 110.352ZM300.625 112.469H300.016C300.021 111.854 300.104 111.297 300.266 110.797C300.427 110.297 300.654 109.867 300.945 109.508C301.242 109.148 301.594 108.872 302 108.68C302.406 108.487 302.859 108.391 303.359 108.391C303.766 108.391 304.133 108.448 304.461 108.562C304.789 108.677 305.07 108.859 305.305 109.109C305.544 109.359 305.727 109.688 305.852 110.094C305.982 110.495 306.047 110.99 306.047 111.578V117H303.969V111.562C303.969 111.177 303.911 110.872 303.797 110.648C303.688 110.424 303.526 110.266 303.312 110.172C303.104 110.078 302.846 110.031 302.539 110.031C302.221 110.031 301.943 110.096 301.703 110.227C301.469 110.352 301.271 110.526 301.109 110.75C300.953 110.974 300.833 111.232 300.75 111.523C300.667 111.815 300.625 112.13 300.625 112.469Z" fill="#504C67"/>
<path d="M51.4531 246.93H48.5469L48.5312 245.414H51.0234C51.4505 245.414 51.8073 245.354 52.0938 245.234C52.3802 245.115 52.5964 244.94 52.7422 244.711C52.8932 244.482 52.9688 244.203 52.9688 243.875C52.9688 243.51 52.8984 243.214 52.7578 242.984C52.6224 242.755 52.4089 242.589 52.1172 242.484C51.8255 242.375 51.4557 242.32 51.0078 242.32H49.2422V252H47.0938V240.625H51.0078C51.6536 240.625 52.2292 240.688 52.7344 240.812C53.2448 240.932 53.6771 241.12 54.0312 241.375C54.3854 241.63 54.6536 241.951 54.8359 242.336C55.0234 242.721 55.1172 243.18 55.1172 243.711C55.1172 244.18 55.0078 244.612 54.7891 245.008C54.5755 245.398 54.2448 245.716 53.7969 245.961C53.3542 246.206 52.7917 246.346 52.1094 246.383L51.4531 246.93ZM51.3594 252H47.9141L48.8125 250.312H51.3594C51.7865 250.312 52.138 250.242 52.4141 250.102C52.6953 249.961 52.9036 249.768 53.0391 249.523C53.1797 249.273 53.25 248.987 53.25 248.664C53.25 248.31 53.1875 248.003 53.0625 247.742C52.9427 247.482 52.75 247.281 52.4844 247.141C52.224 247 51.8802 246.93 51.4531 246.93H49.2188L49.2344 245.414H52.0781L52.5703 246C53.2266 246.005 53.7604 246.135 54.1719 246.391C54.5885 246.646 54.8958 246.974 55.0938 247.375C55.2917 247.776 55.3906 248.208 55.3906 248.672C55.3906 249.401 55.2318 250.013 54.9141 250.508C54.6016 251.003 54.1432 251.375 53.5391 251.625C52.9401 251.875 52.2135 252 51.3594 252ZM59.2812 240V252H57.2109V240H59.2812ZM60.8828 247.859V247.695C60.8828 247.076 60.9714 246.505 61.1484 245.984C61.3255 245.458 61.5833 245.003 61.9219 244.617C62.2604 244.232 62.6745 243.932 63.1641 243.719C63.6536 243.5 64.2109 243.391 64.8359 243.391C65.4714 243.391 66.0339 243.5 66.5234 243.719C67.0182 243.932 67.4349 244.232 67.7734 244.617C68.112 245.003 68.3698 245.458 68.5469 245.984C68.724 246.505 68.8125 247.076 68.8125 247.695V247.859C68.8125 248.474 68.724 249.044 68.5469 249.57C68.3698 250.091 68.112 250.547 67.7734 250.938C67.4349 251.323 67.0208 251.622 66.5312 251.836C66.0417 252.049 65.4818 252.156 64.8516 252.156C64.2266 252.156 63.6667 252.049 63.1719 251.836C62.6771 251.622 62.2604 251.323 61.9219 250.938C61.5833 250.547 61.3255 250.091 61.1484 249.57C60.9714 249.044 60.8828 248.474 60.8828 247.859ZM62.9453 247.695V247.859C62.9453 248.229 62.9818 248.576 63.0547 248.898C63.1276 249.221 63.2396 249.505 63.3906 249.75C63.5417 249.995 63.737 250.188 63.9766 250.328C64.2214 250.464 64.513 250.531 64.8516 250.531C65.1849 250.531 65.4714 250.464 65.7109 250.328C65.9505 250.188 66.1458 249.995 66.2969 249.75C66.4531 249.505 66.5677 249.221 66.6406 248.898C66.7135 248.576 66.75 248.229 66.75 247.859V247.695C66.75 247.331 66.7135 246.99 66.6406 246.672C66.5677 246.349 66.4531 246.065 66.2969 245.82C66.1458 245.57 65.9479 245.375 65.7031 245.234C65.4635 245.089 65.1745 245.016 64.8359 245.016C64.5026 245.016 64.2161 245.089 63.9766 245.234C63.737 245.375 63.5417 245.57 63.3906 245.82C63.2396 246.065 63.1276 246.349 63.0547 246.672C62.9818 246.99 62.9453 247.331 62.9453 247.695ZM73.7812 250.531C74.0729 250.531 74.3333 250.474 74.5625 250.359C74.7917 250.245 74.974 250.083 75.1094 249.875C75.25 249.667 75.3255 249.424 75.3359 249.148H77.2812C77.2708 249.721 77.1094 250.234 76.7969 250.688C76.4844 251.141 76.0677 251.5 75.5469 251.766C75.0312 252.026 74.4531 252.156 73.8125 252.156C73.1615 252.156 72.5938 252.047 72.1094 251.828C71.625 251.609 71.2214 251.305 70.8984 250.914C70.5807 250.523 70.3411 250.07 70.1797 249.555C70.0234 249.039 69.9453 248.487 69.9453 247.898V247.648C69.9453 247.06 70.0234 246.508 70.1797 245.992C70.3411 245.477 70.5807 245.023 70.8984 244.633C71.2214 244.242 71.625 243.938 72.1094 243.719C72.5938 243.5 73.1589 243.391 73.8047 243.391C74.487 243.391 75.0859 243.523 75.6016 243.789C76.1224 244.055 76.5286 244.43 76.8203 244.914C77.1172 245.398 77.2708 245.969 77.2812 246.625H75.3359C75.3255 246.323 75.2578 246.052 75.1328 245.812C75.0078 245.573 74.8307 245.38 74.6016 245.234C74.3724 245.089 74.0938 245.016 73.7656 245.016C73.4167 245.016 73.125 245.089 72.8906 245.234C72.6615 245.38 72.4818 245.581 72.3516 245.836C72.2266 246.086 72.138 246.367 72.0859 246.68C72.0391 246.987 72.0156 247.31 72.0156 247.648V247.898C72.0156 248.242 72.0391 248.57 72.0859 248.883C72.138 249.195 72.2266 249.477 72.3516 249.727C72.4818 249.971 72.6615 250.167 72.8906 250.312C73.125 250.458 73.4219 250.531 73.7812 250.531ZM80.7188 239.992V252H78.6562V239.992H80.7188ZM86.0156 243.547L82.3359 247.68L80.3438 249.703L79.6875 248.102L81.2266 246.164L83.5234 243.547H86.0156ZM83.9062 252L81.2891 248.062L82.6641 246.727L86.2969 252H83.9062ZM90.4219 250.531C90.7135 250.531 90.974 250.474 91.2031 250.359C91.4323 250.245 91.6146 250.083 91.75 249.875C91.8906 249.667 91.9661 249.424 91.9766 249.148H93.9219C93.9115 249.721 93.75 250.234 93.4375 250.688C93.125 251.141 92.7083 251.5 92.1875 251.766C91.6719 252.026 91.0938 252.156 90.4531 252.156C89.8021 252.156 89.2344 252.047 88.75 251.828C88.2656 251.609 87.862 251.305 87.5391 250.914C87.2214 250.523 86.9818 250.07 86.8203 249.555C86.6641 249.039 86.5859 248.487 86.5859 247.898V247.648C86.5859 247.06 86.6641 246.508 86.8203 245.992C86.9818 245.477 87.2214 245.023 87.5391 244.633C87.862 244.242 88.2656 243.938 88.75 243.719C89.2344 243.5 89.7995 243.391 90.4453 243.391C91.1276 243.391 91.7266 243.523 92.2422 243.789C92.763 244.055 93.1693 244.43 93.4609 244.914C93.7578 245.398 93.9115 245.969 93.9219 246.625H91.9766C91.9661 246.323 91.8984 246.052 91.7734 245.812C91.6484 245.573 91.4714 245.38 91.2422 245.234C91.013 245.089 90.7344 245.016 90.4062 245.016C90.0573 245.016 89.7656 245.089 89.5312 245.234C89.3021 245.38 89.1224 245.581 88.9922 245.836C88.8672 246.086 88.7786 246.367 88.7266 246.68C88.6797 246.987 88.6562 247.31 88.6562 247.648V247.898C88.6562 248.242 88.6797 248.57 88.7266 248.883C88.7786 249.195 88.8672 249.477 88.9922 249.727C89.1224 249.971 89.3021 250.167 89.5312 250.312C89.7656 250.458 90.0625 250.531 90.4219 250.531ZM97.3203 240V252H95.25V240H97.3203ZM96.9922 247.469H96.3828C96.3828 246.88 96.4609 246.339 96.6172 245.844C96.7734 245.349 96.9948 244.919 97.2812 244.555C97.5677 244.185 97.9089 243.898 98.3047 243.695C98.7057 243.492 99.1484 243.391 99.6328 243.391C100.049 243.391 100.427 243.451 100.766 243.57C101.109 243.685 101.404 243.87 101.648 244.125C101.893 244.38 102.081 244.714 102.211 245.125C102.346 245.531 102.414 246.026 102.414 246.609V252H100.336V246.594C100.336 246.203 100.279 245.896 100.164 245.672C100.049 245.443 99.8854 245.279 99.6719 245.18C99.4635 245.081 99.2057 245.031 98.8984 245.031C98.5651 245.031 98.2786 245.096 98.0391 245.227C97.7995 245.352 97.6016 245.526 97.4453 245.75C97.2943 245.974 97.1797 246.232 97.1016 246.523C97.0286 246.815 96.9922 247.13 96.9922 247.469ZM108.891 250.203V246.305C108.891 246.018 108.841 245.771 108.742 245.562C108.643 245.354 108.492 245.193 108.289 245.078C108.086 244.964 107.828 244.906 107.516 244.906C107.24 244.906 106.997 244.953 106.789 245.047C106.586 245.141 106.43 245.273 106.32 245.445C106.211 245.612 106.156 245.805 106.156 246.023H104.086C104.086 245.674 104.169 245.344 104.336 245.031C104.503 244.714 104.74 244.432 105.047 244.188C105.359 243.938 105.732 243.742 106.164 243.602C106.602 243.461 107.091 243.391 107.633 243.391C108.273 243.391 108.844 243.5 109.344 243.719C109.849 243.932 110.245 244.255 110.531 244.688C110.823 245.12 110.969 245.664 110.969 246.32V250.008C110.969 250.43 110.995 250.792 111.047 251.094C111.104 251.391 111.188 251.648 111.297 251.867V252H109.195C109.096 251.786 109.021 251.516 108.969 251.188C108.917 250.854 108.891 250.526 108.891 250.203ZM109.18 246.852L109.195 248.078H107.891C107.568 248.078 107.284 248.112 107.039 248.18C106.794 248.242 106.594 248.336 106.438 248.461C106.281 248.581 106.164 248.727 106.086 248.898C106.008 249.065 105.969 249.255 105.969 249.469C105.969 249.677 106.016 249.865 106.109 250.031C106.208 250.198 106.349 250.331 106.531 250.43C106.719 250.523 106.938 250.57 107.188 250.57C107.552 250.57 107.87 250.497 108.141 250.352C108.411 250.201 108.622 250.018 108.773 249.805C108.924 249.591 109.005 249.388 109.016 249.195L109.609 250.086C109.536 250.299 109.427 250.526 109.281 250.766C109.135 251.005 108.948 251.229 108.719 251.438C108.49 251.646 108.214 251.818 107.891 251.953C107.568 252.089 107.193 252.156 106.766 252.156C106.219 252.156 105.729 252.047 105.297 251.828C104.865 251.609 104.523 251.31 104.273 250.93C104.023 250.549 103.898 250.117 103.898 249.633C103.898 249.185 103.982 248.789 104.148 248.445C104.315 248.102 104.562 247.812 104.891 247.578C105.219 247.339 105.625 247.159 106.109 247.039C106.599 246.914 107.159 246.852 107.789 246.852H109.18ZM115.016 243.547V252H112.945V243.547H115.016ZM112.805 241.336C112.805 241.029 112.909 240.773 113.117 240.57C113.331 240.367 113.617 240.266 113.977 240.266C114.336 240.266 114.62 240.367 114.828 240.57C115.042 240.773 115.148 241.029 115.148 241.336C115.148 241.638 115.042 241.891 114.828 242.094C114.62 242.297 114.336 242.398 113.977 242.398C113.617 242.398 113.331 242.297 113.117 242.094C112.909 241.891 112.805 241.638 112.805 241.336ZM119.008 245.352V252H116.945V243.547H118.883L119.008 245.352ZM118.68 247.469H118.07C118.076 246.854 118.159 246.297 118.32 245.797C118.482 245.297 118.708 244.867 119 244.508C119.297 244.148 119.648 243.872 120.055 243.68C120.461 243.487 120.914 243.391 121.414 243.391C121.82 243.391 122.188 243.448 122.516 243.562C122.844 243.677 123.125 243.859 123.359 244.109C123.599 244.359 123.781 244.688 123.906 245.094C124.036 245.495 124.102 245.99 124.102 246.578V252H122.023V246.562C122.023 246.177 121.966 245.872 121.852 245.648C121.742 245.424 121.581 245.266 121.367 245.172C121.159 245.078 120.901 245.031 120.594 245.031C120.276 245.031 119.997 245.096 119.758 245.227C119.523 245.352 119.326 245.526 119.164 245.75C119.008 245.974 118.888 246.232 118.805 246.523C118.721 246.815 118.68 247.13 118.68 247.469Z" fill="#504C67"/>
<path d="M82.1641 424.258H84.3125C84.2552 425.018 84.0443 425.693 83.6797 426.281C83.3151 426.865 82.8073 427.323 82.1562 427.656C81.5052 427.99 80.7161 428.156 79.7891 428.156C79.0755 428.156 78.4323 428.031 77.8594 427.781C77.2917 427.526 76.8047 427.164 76.3984 426.695C75.9974 426.221 75.6901 425.654 75.4766 424.992C75.263 424.326 75.1562 423.578 75.1562 422.75V421.883C75.1562 421.055 75.2656 420.307 75.4844 419.641C75.7031 418.974 76.0156 418.406 76.4219 417.938C76.8333 417.464 77.3255 417.099 77.8984 416.844C78.4766 416.589 79.1224 416.461 79.8359 416.461C80.763 416.461 81.5469 416.633 82.1875 416.977C82.8281 417.315 83.3255 417.781 83.6797 418.375C84.0339 418.969 84.2474 419.651 84.3203 420.422H82.1719C82.1302 419.943 82.026 419.536 81.8594 419.203C81.6979 418.87 81.4531 418.617 81.125 418.445C80.8021 418.268 80.3724 418.18 79.8359 418.18C79.4193 418.18 79.0521 418.258 78.7344 418.414C78.4219 418.57 78.1615 418.805 77.9531 419.117C77.7448 419.424 77.5885 419.81 77.4844 420.273C77.3802 420.732 77.3281 421.263 77.3281 421.867V422.75C77.3281 423.328 77.375 423.846 77.4688 424.305C77.5625 424.763 77.7083 425.151 77.9062 425.469C78.1042 425.786 78.3594 426.029 78.6719 426.195C78.9844 426.362 79.3568 426.445 79.7891 426.445C80.3151 426.445 80.7422 426.362 81.0703 426.195C81.4036 426.029 81.6562 425.784 81.8281 425.461C82.0052 425.138 82.1172 424.737 82.1641 424.258ZM85.4531 423.859V423.695C85.4531 423.076 85.5417 422.505 85.7188 421.984C85.8958 421.458 86.1536 421.003 86.4922 420.617C86.8307 420.232 87.2448 419.932 87.7344 419.719C88.224 419.5 88.7812 419.391 89.4062 419.391C90.0417 419.391 90.6042 419.5 91.0938 419.719C91.5885 419.932 92.0052 420.232 92.3438 420.617C92.6823 421.003 92.9401 421.458 93.1172 421.984C93.2943 422.505 93.3828 423.076 93.3828 423.695V423.859C93.3828 424.474 93.2943 425.044 93.1172 425.57C92.9401 426.091 92.6823 426.547 92.3438 426.938C92.0052 427.323 91.5911 427.622 91.1016 427.836C90.612 428.049 90.0521 428.156 89.4219 428.156C88.7969 428.156 88.237 428.049 87.7422 427.836C87.2474 427.622 86.8307 427.323 86.4922 426.938C86.1536 426.547 85.8958 426.091 85.7188 425.57C85.5417 425.044 85.4531 424.474 85.4531 423.859ZM87.5156 423.695V423.859C87.5156 424.229 87.5521 424.576 87.625 424.898C87.6979 425.221 87.8099 425.505 87.9609 425.75C88.112 425.995 88.3073 426.188 88.5469 426.328C88.7917 426.464 89.0833 426.531 89.4219 426.531C89.7552 426.531 90.0417 426.464 90.2812 426.328C90.5208 426.188 90.7161 425.995 90.8672 425.75C91.0234 425.505 91.138 425.221 91.2109 424.898C91.2839 424.576 91.3203 424.229 91.3203 423.859V423.695C91.3203 423.331 91.2839 422.99 91.2109 422.672C91.138 422.349 91.0234 422.065 90.8672 421.82C90.7161 421.57 90.5182 421.375 90.2734 421.234C90.0339 421.089 89.7448 421.016 89.4062 421.016C89.0729 421.016 88.7865 421.089 88.5469 421.234C88.3073 421.375 88.112 421.57 87.9609 421.82C87.8099 422.065 87.6979 422.349 87.625 422.672C87.5521 422.99 87.5156 423.331 87.5156 423.695ZM89.9922 416L92.2578 418.164V418.258H90.6016L89.3906 417.07L88.1875 418.258H86.5547V418.148L88.7891 416H89.9922ZM96.9062 421.352V428H94.8438V419.547H96.7812L96.9062 421.352ZM96.5781 423.469H95.9688C95.974 422.854 96.0573 422.297 96.2188 421.797C96.3802 421.297 96.6068 420.867 96.8984 420.508C97.1953 420.148 97.5469 419.872 97.9531 419.68C98.3594 419.487 98.8125 419.391 99.3125 419.391C99.7188 419.391 100.086 419.448 100.414 419.562C100.742 419.677 101.023 419.859 101.258 420.109C101.497 420.359 101.68 420.688 101.805 421.094C101.935 421.495 102 421.99 102 422.578V428H99.9219V422.562C99.9219 422.177 99.8646 421.872 99.75 421.648C99.6406 421.424 99.4792 421.266 99.2656 421.172C99.0573 421.078 98.7995 421.031 98.4922 421.031C98.1745 421.031 97.8958 421.096 97.6562 421.227C97.4219 421.352 97.224 421.526 97.0625 421.75C96.9062 421.974 96.7865 422.232 96.7031 422.523C96.6198 422.815 96.5781 423.13 96.5781 423.469ZM109.195 419.547H111.07V427.742C111.07 428.508 110.904 429.156 110.57 429.688C110.242 430.224 109.781 430.63 109.188 430.906C108.594 431.188 107.904 431.328 107.117 431.328C106.779 431.328 106.411 431.281 106.016 431.188C105.625 431.094 105.247 430.945 104.883 430.742C104.523 430.544 104.224 430.286 103.984 429.969L104.914 428.75C105.195 429.078 105.513 429.326 105.867 429.492C106.221 429.664 106.604 429.75 107.016 429.75C107.432 429.75 107.786 429.672 108.078 429.516C108.375 429.365 108.602 429.141 108.758 428.844C108.919 428.552 109 428.193 109 427.766V421.477L109.195 419.547ZM103.484 423.875V423.711C103.484 423.065 103.562 422.479 103.719 421.953C103.875 421.422 104.099 420.966 104.391 420.586C104.688 420.206 105.044 419.911 105.461 419.703C105.883 419.495 106.357 419.391 106.883 419.391C107.44 419.391 107.909 419.492 108.289 419.695C108.674 419.898 108.992 420.188 109.242 420.562C109.497 420.938 109.695 421.383 109.836 421.898C109.982 422.409 110.094 422.971 110.172 423.586V424.031C110.099 424.63 109.982 425.18 109.82 425.68C109.664 426.18 109.456 426.617 109.195 426.992C108.935 427.362 108.612 427.648 108.227 427.852C107.841 428.055 107.388 428.156 106.867 428.156C106.346 428.156 105.878 428.049 105.461 427.836C105.044 427.622 104.688 427.323 104.391 426.938C104.099 426.552 103.875 426.099 103.719 425.578C103.562 425.057 103.484 424.49 103.484 423.875ZM105.547 423.711V423.875C105.547 424.24 105.583 424.581 105.656 424.898C105.729 425.216 105.841 425.497 105.992 425.742C106.143 425.982 106.333 426.169 106.562 426.305C106.792 426.44 107.065 426.508 107.383 426.508C107.81 426.508 108.159 426.419 108.43 426.242C108.706 426.06 108.914 425.812 109.055 425.5C109.201 425.182 109.294 424.826 109.336 424.43V423.203C109.31 422.891 109.253 422.602 109.164 422.336C109.081 422.07 108.964 421.841 108.812 421.648C108.661 421.456 108.469 421.305 108.234 421.195C108 421.086 107.721 421.031 107.398 421.031C107.086 421.031 106.812 421.102 106.578 421.242C106.344 421.378 106.151 421.568 106 421.812C105.849 422.057 105.734 422.341 105.656 422.664C105.583 422.987 105.547 423.336 105.547 423.711ZM118.938 421.352V428H116.875V419.547H118.812L118.938 421.352ZM118.609 423.469H118C118.005 422.854 118.089 422.297 118.25 421.797C118.411 421.297 118.638 420.867 118.93 420.508C119.227 420.148 119.578 419.872 119.984 419.68C120.391 419.487 120.844 419.391 121.344 419.391C121.75 419.391 122.117 419.448 122.445 419.562C122.773 419.677 123.055 419.859 123.289 420.109C123.529 420.359 123.711 420.688 123.836 421.094C123.966 421.495 124.031 421.99 124.031 422.578V428H121.953V422.562C121.953 422.177 121.896 421.872 121.781 421.648C121.672 421.424 121.51 421.266 121.297 421.172C121.089 421.078 120.831 421.031 120.523 421.031C120.206 421.031 119.927 421.096 119.688 421.227C119.453 421.352 119.255 421.526 119.094 421.75C118.938 421.974 118.818 422.232 118.734 422.523C118.651 422.815 118.609 423.13 118.609 423.469ZM131.227 419.547H133.102V427.742C133.102 428.508 132.935 429.156 132.602 429.688C132.273 430.224 131.812 430.63 131.219 430.906C130.625 431.188 129.935 431.328 129.148 431.328C128.81 431.328 128.443 431.281 128.047 431.188C127.656 431.094 127.279 430.945 126.914 430.742C126.555 430.544 126.255 430.286 126.016 429.969L126.945 428.75C127.227 429.078 127.544 429.326 127.898 429.492C128.253 429.664 128.635 429.75 129.047 429.75C129.464 429.75 129.818 429.672 130.109 429.516C130.406 429.365 130.633 429.141 130.789 428.844C130.951 428.552 131.031 428.193 131.031 427.766V421.477L131.227 419.547ZM125.516 423.875V423.711C125.516 423.065 125.594 422.479 125.75 421.953C125.906 421.422 126.13 420.966 126.422 420.586C126.719 420.206 127.076 419.911 127.492 419.703C127.914 419.495 128.388 419.391 128.914 419.391C129.471 419.391 129.94 419.492 130.32 419.695C130.706 419.898 131.023 420.188 131.273 420.562C131.529 420.938 131.727 421.383 131.867 421.898C132.013 422.409 132.125 422.971 132.203 423.586V424.031C132.13 424.63 132.013 425.18 131.852 425.68C131.695 426.18 131.487 426.617 131.227 426.992C130.966 427.362 130.643 427.648 130.258 427.852C129.872 428.055 129.419 428.156 128.898 428.156C128.378 428.156 127.909 428.049 127.492 427.836C127.076 427.622 126.719 427.323 126.422 426.938C126.13 426.552 125.906 426.099 125.75 425.578C125.594 425.057 125.516 424.49 125.516 423.875ZM127.578 423.711V423.875C127.578 424.24 127.615 424.581 127.688 424.898C127.76 425.216 127.872 425.497 128.023 425.742C128.174 425.982 128.365 426.169 128.594 426.305C128.823 426.44 129.096 426.508 129.414 426.508C129.841 426.508 130.19 426.419 130.461 426.242C130.737 426.06 130.945 425.812 131.086 425.5C131.232 425.182 131.326 424.826 131.367 424.43V423.203C131.341 422.891 131.284 422.602 131.195 422.336C131.112 422.07 130.995 421.841 130.844 421.648C130.693 421.456 130.5 421.305 130.266 421.195C130.031 421.086 129.753 421.031 129.43 421.031C129.117 421.031 128.844 421.102 128.609 421.242C128.375 421.378 128.182 421.568 128.031 421.812C127.88 422.057 127.766 422.341 127.688 422.664C127.615 422.987 127.578 423.336 127.578 423.711ZM136.984 416V428H134.914V416H136.984ZM136.656 423.469H136.047C136.047 422.88 136.125 422.339 136.281 421.844C136.438 421.349 136.659 420.919 136.945 420.555C137.232 420.185 137.573 419.898 137.969 419.695C138.37 419.492 138.812 419.391 139.297 419.391C139.714 419.391 140.091 419.451 140.43 419.57C140.773 419.685 141.068 419.87 141.312 420.125C141.557 420.38 141.745 420.714 141.875 421.125C142.01 421.531 142.078 422.026 142.078 422.609V428H140V422.594C140 422.203 139.943 421.896 139.828 421.672C139.714 421.443 139.549 421.279 139.336 421.18C139.128 421.081 138.87 421.031 138.562 421.031C138.229 421.031 137.943 421.096 137.703 421.227C137.464 421.352 137.266 421.526 137.109 421.75C136.958 421.974 136.844 422.232 136.766 422.523C136.693 422.815 136.656 423.13 136.656 423.469ZM147.695 428.156C147.055 428.156 146.479 428.052 145.969 427.844C145.458 427.635 145.023 427.346 144.664 426.977C144.31 426.602 144.036 426.167 143.844 425.672C143.656 425.172 143.562 424.635 143.562 424.062V423.75C143.562 423.099 143.656 422.508 143.844 421.977C144.031 421.44 144.297 420.979 144.641 420.594C144.984 420.208 145.396 419.911 145.875 419.703C146.354 419.495 146.883 419.391 147.461 419.391C148.06 419.391 148.589 419.492 149.047 419.695C149.505 419.893 149.888 420.174 150.195 420.539C150.503 420.904 150.734 421.341 150.891 421.852C151.047 422.357 151.125 422.917 151.125 423.531V424.398H144.5V422.977H149.094V422.82C149.083 422.492 149.021 422.193 148.906 421.922C148.792 421.646 148.615 421.427 148.375 421.266C148.135 421.099 147.826 421.016 147.445 421.016C147.138 421.016 146.87 421.083 146.641 421.219C146.417 421.349 146.229 421.536 146.078 421.781C145.932 422.021 145.823 422.307 145.75 422.641C145.677 422.974 145.641 423.344 145.641 423.75V424.062C145.641 424.417 145.688 424.745 145.781 425.047C145.88 425.349 146.023 425.612 146.211 425.836C146.404 426.055 146.633 426.227 146.898 426.352C147.169 426.471 147.477 426.531 147.82 426.531C148.253 426.531 148.643 426.448 148.992 426.281C149.346 426.109 149.654 425.857 149.914 425.523L150.953 426.602C150.776 426.862 150.536 427.112 150.234 427.352C149.938 427.591 149.578 427.786 149.156 427.938C148.734 428.083 148.247 428.156 147.695 428.156ZM147.859 415.992L150.125 418.156V418.25H148.469L147.258 417.062L146.055 418.25H144.422V418.141L146.656 415.992H147.859ZM146.227 429.859C146.227 429.573 146.331 429.333 146.539 429.141C146.753 428.948 147.039 428.852 147.398 428.852C147.758 428.852 148.042 428.948 148.25 429.141C148.464 429.333 148.57 429.573 148.57 429.859C148.57 430.141 148.464 430.375 148.25 430.562C148.042 430.755 147.758 430.852 147.398 430.852C147.039 430.852 146.753 430.755 146.539 430.562C146.331 430.375 146.227 430.141 146.227 429.859Z" fill="#504C67"/>
<path d="M366.117 416.625L368.391 420.68L370.672 416.625H373.141L369.766 422.266L373.227 428H370.734L368.391 423.867L366.055 428H363.555L367.016 422.266L363.641 416.625H366.117ZM379.047 426.203V422.305C379.047 422.018 378.997 421.771 378.898 421.562C378.799 421.354 378.648 421.193 378.445 421.078C378.242 420.964 377.984 420.906 377.672 420.906C377.396 420.906 377.154 420.953 376.945 421.047C376.742 421.141 376.586 421.273 376.477 421.445C376.367 421.612 376.312 421.805 376.312 422.023H374.242C374.242 421.674 374.326 421.344 374.492 421.031C374.659 420.714 374.896 420.432 375.203 420.188C375.516 419.938 375.888 419.742 376.32 419.602C376.758 419.461 377.247 419.391 377.789 419.391C378.43 419.391 379 419.5 379.5 419.719C380.005 419.932 380.401 420.255 380.688 420.688C380.979 421.12 381.125 421.664 381.125 422.32V426.008C381.125 426.43 381.151 426.792 381.203 427.094C381.26 427.391 381.344 427.648 381.453 427.867V428H379.352C379.253 427.786 379.177 427.516 379.125 427.188C379.073 426.854 379.047 426.526 379.047 426.203ZM379.336 422.852L379.352 424.078H378.047C377.724 424.078 377.44 424.112 377.195 424.18C376.951 424.242 376.75 424.336 376.594 424.461C376.438 424.581 376.32 424.727 376.242 424.898C376.164 425.065 376.125 425.255 376.125 425.469C376.125 425.677 376.172 425.865 376.266 426.031C376.365 426.198 376.505 426.331 376.688 426.43C376.875 426.523 377.094 426.57 377.344 426.57C377.708 426.57 378.026 426.497 378.297 426.352C378.568 426.201 378.779 426.018 378.93 425.805C379.081 425.591 379.161 425.388 379.172 425.195L379.766 426.086C379.693 426.299 379.583 426.526 379.438 426.766C379.292 427.005 379.104 427.229 378.875 427.438C378.646 427.646 378.37 427.818 378.047 427.953C377.724 428.089 377.349 428.156 376.922 428.156C376.375 428.156 375.885 428.047 375.453 427.828C375.021 427.609 374.68 427.31 374.43 426.93C374.18 426.549 374.055 426.117 374.055 425.633C374.055 425.185 374.138 424.789 374.305 424.445C374.471 424.102 374.719 423.812 375.047 423.578C375.375 423.339 375.781 423.159 376.266 423.039C376.755 422.914 377.315 422.852 377.945 422.852H379.336ZM378.422 416L380.688 418.164V418.258H379.031L377.82 417.07L376.617 418.258H374.984V418.148L377.219 416H378.422ZM385.336 427.062L387.602 419.547H389.812L386.422 429.281C386.344 429.49 386.242 429.716 386.117 429.961C385.997 430.206 385.836 430.438 385.633 430.656C385.43 430.88 385.174 431.062 384.867 431.203C384.565 431.344 384.198 431.414 383.766 431.414C383.578 431.414 383.411 431.401 383.266 431.375C383.12 431.349 382.966 431.315 382.805 431.273V429.727C382.857 429.732 382.917 429.734 382.984 429.734C383.057 429.74 383.12 429.742 383.172 429.742C383.474 429.742 383.724 429.706 383.922 429.633C384.12 429.565 384.279 429.453 384.398 429.297C384.523 429.146 384.628 428.948 384.711 428.703L385.336 427.062ZM384.219 419.547L386.133 425.773L386.469 427.953L385.047 428.211L381.992 419.547H384.219ZM399.867 426.203V416H401.945V428H400.07L399.867 426.203ZM394.438 423.875V423.711C394.438 423.065 394.51 422.479 394.656 421.953C394.807 421.422 395.026 420.966 395.312 420.586C395.599 420.206 395.945 419.911 396.352 419.703C396.763 419.495 397.229 419.391 397.75 419.391C398.255 419.391 398.695 419.492 399.07 419.695C399.451 419.898 399.773 420.188 400.039 420.562C400.31 420.938 400.526 421.383 400.688 421.898C400.849 422.409 400.966 422.971 401.039 423.586V424.031C400.966 424.63 400.849 425.18 400.688 425.68C400.526 426.18 400.31 426.617 400.039 426.992C399.773 427.362 399.451 427.648 399.07 427.852C398.69 428.055 398.245 428.156 397.734 428.156C397.219 428.156 396.755 428.049 396.344 427.836C395.938 427.622 395.591 427.323 395.305 426.938C395.023 426.552 394.807 426.099 394.656 425.578C394.51 425.057 394.438 424.49 394.438 423.875ZM396.508 423.711V423.875C396.508 424.24 396.539 424.581 396.602 424.898C396.664 425.216 396.766 425.497 396.906 425.742C397.047 425.982 397.227 426.169 397.445 426.305C397.669 426.44 397.94 426.508 398.258 426.508C398.664 426.508 398.997 426.419 399.258 426.242C399.523 426.06 399.729 425.812 399.875 425.5C400.021 425.182 400.115 424.826 400.156 424.43V423.203C400.135 422.891 400.081 422.602 399.992 422.336C399.909 422.07 399.789 421.841 399.633 421.648C399.482 421.456 399.294 421.305 399.07 421.195C398.846 421.086 398.581 421.031 398.273 421.031C397.956 421.031 397.685 421.102 397.461 421.242C397.237 421.378 397.055 421.568 396.914 421.812C396.773 422.057 396.669 422.341 396.602 422.664C396.539 422.987 396.508 423.336 396.508 423.711ZM411.945 418.82H413.227C413.227 419.445 413.138 419.969 412.961 420.391C412.784 420.812 412.482 421.13 412.055 421.344C411.633 421.557 411.047 421.664 410.297 421.664L410.305 420.648C410.805 420.648 411.169 420.583 411.398 420.453C411.633 420.323 411.781 420.122 411.844 419.852C411.911 419.581 411.945 419.237 411.945 418.82ZM408.844 425.992V419.547H410.922V428H408.969L408.844 425.992ZM409.109 424.242L409.75 424.227C409.75 424.794 409.688 425.318 409.562 425.797C409.438 426.276 409.242 426.693 408.977 427.047C408.716 427.396 408.385 427.669 407.984 427.867C407.583 428.06 407.109 428.156 406.562 428.156C406.146 428.156 405.766 428.099 405.422 427.984C405.078 427.865 404.781 427.68 404.531 427.43C404.286 427.174 404.096 426.849 403.961 426.453C403.826 426.052 403.758 425.57 403.758 425.008V419.547H405.82V425.023C405.82 425.305 405.852 425.539 405.914 425.727C405.982 425.914 406.073 426.068 406.188 426.188C406.307 426.302 406.445 426.385 406.602 426.438C406.763 426.484 406.935 426.508 407.117 426.508C407.617 426.508 408.01 426.409 408.297 426.211C408.589 426.008 408.797 425.737 408.922 425.398C409.047 425.055 409.109 424.669 409.109 424.242ZM406.148 429.859C406.148 429.573 406.253 429.333 406.461 429.141C406.674 428.948 406.961 428.852 407.32 428.852C407.68 428.852 407.964 428.948 408.172 429.141C408.385 429.333 408.492 429.573 408.492 429.859C408.492 430.141 408.385 430.375 408.172 430.562C407.964 430.755 407.68 430.852 407.32 430.852C406.961 430.852 406.674 430.755 406.461 430.562C406.253 430.375 406.148 430.141 406.148 429.859ZM415.586 421.352V428H413.523V419.547H415.461L415.586 421.352ZM415.258 423.469H414.648C414.654 422.854 414.737 422.297 414.898 421.797C415.06 421.297 415.286 420.867 415.578 420.508C415.875 420.148 416.227 419.872 416.633 419.68C417.039 419.487 417.492 419.391 417.992 419.391C418.398 419.391 418.766 419.448 419.094 419.562C419.422 419.677 419.703 419.859 419.938 420.109C420.177 420.359 420.359 420.688 420.484 421.094C420.615 421.495 420.68 421.99 420.68 422.578V428H418.602V422.562C418.602 422.177 418.544 421.872 418.43 421.648C418.32 421.424 418.159 421.266 417.945 421.172C417.737 421.078 417.479 421.031 417.172 421.031C416.854 421.031 416.576 421.096 416.336 421.227C416.102 421.352 415.904 421.526 415.742 421.75C415.586 421.974 415.466 422.232 415.383 422.523C415.299 422.815 415.258 423.13 415.258 423.469ZM427.875 419.547H429.75V427.742C429.75 428.508 429.583 429.156 429.25 429.688C428.922 430.224 428.461 430.63 427.867 430.906C427.273 431.188 426.583 431.328 425.797 431.328C425.458 431.328 425.091 431.281 424.695 431.188C424.305 431.094 423.927 430.945 423.562 430.742C423.203 430.544 422.904 430.286 422.664 429.969L423.594 428.75C423.875 429.078 424.193 429.326 424.547 429.492C424.901 429.664 425.284 429.75 425.695 429.75C426.112 429.75 426.466 429.672 426.758 429.516C427.055 429.365 427.281 429.141 427.438 428.844C427.599 428.552 427.68 428.193 427.68 427.766V421.477L427.875 419.547ZM422.164 423.875V423.711C422.164 423.065 422.242 422.479 422.398 421.953C422.555 421.422 422.779 420.966 423.07 420.586C423.367 420.206 423.724 419.911 424.141 419.703C424.562 419.495 425.036 419.391 425.562 419.391C426.12 419.391 426.589 419.492 426.969 419.695C427.354 419.898 427.672 420.188 427.922 420.562C428.177 420.938 428.375 421.383 428.516 421.898C428.661 422.409 428.773 422.971 428.852 423.586V424.031C428.779 424.63 428.661 425.18 428.5 425.68C428.344 426.18 428.135 426.617 427.875 426.992C427.615 427.362 427.292 427.648 426.906 427.852C426.521 428.055 426.068 428.156 425.547 428.156C425.026 428.156 424.557 428.049 424.141 427.836C423.724 427.622 423.367 427.323 423.07 426.938C422.779 426.552 422.555 426.099 422.398 425.578C422.242 425.057 422.164 424.49 422.164 423.875ZM424.227 423.711V423.875C424.227 424.24 424.263 424.581 424.336 424.898C424.409 425.216 424.521 425.497 424.672 425.742C424.823 425.982 425.013 426.169 425.242 426.305C425.471 426.44 425.745 426.508 426.062 426.508C426.49 426.508 426.839 426.419 427.109 426.242C427.385 426.06 427.594 425.812 427.734 425.5C427.88 425.182 427.974 424.826 428.016 424.43V423.203C427.99 422.891 427.932 422.602 427.844 422.336C427.76 422.07 427.643 421.841 427.492 421.648C427.341 421.456 427.148 421.305 426.914 421.195C426.68 421.086 426.401 421.031 426.078 421.031C425.766 421.031 425.492 421.102 425.258 421.242C425.023 421.378 424.831 421.568 424.68 421.812C424.529 422.057 424.414 422.341 424.336 422.664C424.263 422.987 424.227 423.336 424.227 423.711Z" fill="#504C67"/>
<path d="M425.352 236.117V240.547C425.185 240.76 424.922 240.992 424.562 241.242C424.208 241.492 423.745 241.708 423.172 241.891C422.599 242.068 421.896 242.156 421.062 242.156C420.339 242.156 419.677 242.036 419.078 241.797C418.479 241.552 417.964 241.195 417.531 240.727C417.099 240.258 416.766 239.685 416.531 239.008C416.297 238.331 416.18 237.557 416.18 236.688V235.938C416.18 235.068 416.289 234.294 416.508 233.617C416.732 232.94 417.049 232.367 417.461 231.898C417.878 231.43 418.375 231.073 418.953 230.828C419.536 230.583 420.188 230.461 420.906 230.461C421.87 230.461 422.661 230.62 423.281 230.938C423.906 231.255 424.385 231.693 424.719 232.25C425.052 232.802 425.26 233.438 425.344 234.156H423.25C423.193 233.76 423.078 233.414 422.906 233.117C422.734 232.815 422.49 232.581 422.172 232.414C421.859 232.242 421.453 232.156 420.953 232.156C420.531 232.156 420.159 232.24 419.836 232.406C419.513 232.573 419.242 232.815 419.023 233.133C418.805 233.451 418.638 233.844 418.523 234.312C418.414 234.781 418.359 235.318 418.359 235.922V236.688C418.359 237.297 418.422 237.839 418.547 238.312C418.672 238.781 418.852 239.177 419.086 239.5C419.326 239.818 419.62 240.06 419.969 240.227C420.323 240.388 420.724 240.469 421.172 240.469C421.578 240.469 421.914 240.435 422.18 240.367C422.451 240.294 422.667 240.208 422.828 240.109C422.99 240.01 423.115 239.914 423.203 239.82V237.688H420.945V236.117H425.352ZM429.414 233.547V242H427.344V233.547H429.414ZM427.203 231.336C427.203 231.029 427.307 230.773 427.516 230.57C427.729 230.367 428.016 230.266 428.375 230.266C428.734 230.266 429.018 230.367 429.227 230.57C429.44 230.773 429.547 231.029 429.547 231.336C429.547 231.638 429.44 231.891 429.227 232.094C429.018 232.297 428.734 232.398 428.375 232.398C428.016 232.398 427.729 232.297 427.516 232.094C427.307 231.891 427.203 231.638 427.203 231.336ZM436.039 240.203V236.305C436.039 236.018 435.99 235.771 435.891 235.562C435.792 235.354 435.641 235.193 435.438 235.078C435.234 234.964 434.977 234.906 434.664 234.906C434.388 234.906 434.146 234.953 433.938 235.047C433.734 235.141 433.578 235.273 433.469 235.445C433.359 235.612 433.305 235.805 433.305 236.023H431.234C431.234 235.674 431.318 235.344 431.484 235.031C431.651 234.714 431.888 234.432 432.195 234.188C432.508 233.938 432.88 233.742 433.312 233.602C433.75 233.461 434.24 233.391 434.781 233.391C435.422 233.391 435.992 233.5 436.492 233.719C436.997 233.932 437.393 234.255 437.68 234.688C437.971 235.12 438.117 235.664 438.117 236.32V240.008C438.117 240.43 438.143 240.792 438.195 241.094C438.253 241.391 438.336 241.648 438.445 241.867V242H436.344C436.245 241.786 436.169 241.516 436.117 241.188C436.065 240.854 436.039 240.526 436.039 240.203ZM436.328 236.852L436.344 238.078H435.039C434.716 238.078 434.432 238.112 434.188 238.18C433.943 238.242 433.742 238.336 433.586 238.461C433.43 238.581 433.312 238.727 433.234 238.898C433.156 239.065 433.117 239.255 433.117 239.469C433.117 239.677 433.164 239.865 433.258 240.031C433.357 240.198 433.497 240.331 433.68 240.43C433.867 240.523 434.086 240.57 434.336 240.57C434.701 240.57 435.018 240.497 435.289 240.352C435.56 240.201 435.771 240.018 435.922 239.805C436.073 239.591 436.154 239.388 436.164 239.195L436.758 240.086C436.685 240.299 436.576 240.526 436.43 240.766C436.284 241.005 436.096 241.229 435.867 241.438C435.638 241.646 435.362 241.818 435.039 241.953C434.716 242.089 434.341 242.156 433.914 242.156C433.367 242.156 432.878 242.047 432.445 241.828C432.013 241.609 431.672 241.31 431.422 240.93C431.172 240.549 431.047 240.117 431.047 239.633C431.047 239.185 431.13 238.789 431.297 238.445C431.464 238.102 431.711 237.812 432.039 237.578C432.367 237.339 432.773 237.159 433.258 237.039C433.747 236.914 434.307 236.852 434.938 236.852H436.328ZM435.586 232.133H434.039L433.945 231.055C434.206 231.039 434.417 231.013 434.578 230.977C434.74 230.935 434.857 230.878 434.93 230.805C435.008 230.727 435.047 230.63 435.047 230.516C435.047 230.411 435.016 230.323 434.953 230.25C434.896 230.177 434.815 230.12 434.711 230.078C434.607 230.036 434.482 230.008 434.336 229.992C434.195 229.971 434.042 229.961 433.875 229.961L433.93 228.969C434.398 228.969 434.81 229.005 435.164 229.078C435.518 229.146 435.812 229.247 436.047 229.383C436.286 229.513 436.466 229.672 436.586 229.859C436.711 230.042 436.773 230.247 436.773 230.477C436.773 230.841 436.648 231.112 436.398 231.289C436.154 231.466 435.883 231.576 435.586 231.617V232.133ZM442.164 233.547V242H440.094V233.547H442.164ZM439.953 231.336C439.953 231.029 440.057 230.773 440.266 230.57C440.479 230.367 440.766 230.266 441.125 230.266C441.484 230.266 441.768 230.367 441.977 230.57C442.19 230.773 442.297 231.029 442.297 231.336C442.297 231.638 442.19 231.891 441.977 232.094C441.768 232.297 441.484 232.398 441.125 232.398C440.766 232.398 440.479 232.297 440.266 232.094C440.057 231.891 439.953 231.638 439.953 231.336ZM452.117 233.547V235.031H447.273V233.547H452.117ZM448.57 231.469H450.641V239.562C450.641 239.812 450.674 240.005 450.742 240.141C450.81 240.276 450.911 240.367 451.047 240.414C451.182 240.461 451.344 240.484 451.531 240.484C451.667 240.484 451.792 240.477 451.906 240.461C452.021 240.445 452.117 240.43 452.195 240.414L452.203 241.961C452.031 242.018 451.836 242.065 451.617 242.102C451.404 242.138 451.161 242.156 450.891 242.156C450.427 242.156 450.021 242.078 449.672 241.922C449.323 241.76 449.052 241.503 448.859 241.148C448.667 240.789 448.57 240.315 448.57 239.727V231.469ZM455.555 235.273V242H453.492V233.547H455.445L455.555 235.273ZM458.125 233.492L458.094 235.414C457.979 235.393 457.849 235.378 457.703 235.367C457.562 235.357 457.43 235.352 457.305 235.352C456.987 235.352 456.708 235.396 456.469 235.484C456.229 235.568 456.029 235.69 455.867 235.852C455.711 236.013 455.591 236.211 455.508 236.445C455.424 236.674 455.378 236.935 455.367 237.227L454.922 237.172C454.922 236.635 454.977 236.138 455.086 235.68C455.195 235.221 455.354 234.82 455.562 234.477C455.771 234.133 456.031 233.867 456.344 233.68C456.661 233.487 457.026 233.391 457.438 233.391C457.552 233.391 457.674 233.401 457.805 233.422C457.94 233.438 458.047 233.461 458.125 233.492ZM461.484 233.547V242H459.414V233.547H461.484ZM459.453 232.469L460.984 230.094H463.266L461.133 232.469H459.453Z" fill="#504C67"/>
<g clip-path="url(#clip1_1062_3602)">
<path fill-rule="evenodd" clip-rule="evenodd" d="M82 343.333C82 341.388 82.7726 339.523 84.1479 338.148C85.5231 336.773 87.3884 336 89.3333 336H140.667C142.612 336 144.477 336.773 145.852 338.148C147.227 339.523 148 341.388 148 343.333V383.667C148 385.612 147.227 387.477 145.852 388.852C144.477 390.227 142.612 391 140.667 391H126V394.667H129.667C130.639 394.667 131.572 395.053 132.259 395.741C132.947 396.428 133.333 397.361 133.333 398.333C133.333 399.306 132.947 400.238 132.259 400.926C131.572 401.614 130.639 402 129.667 402H100.333C99.3609 402 98.4282 401.614 97.7406 400.926C97.053 400.238 96.6667 399.306 96.6667 398.333C96.6667 397.361 97.053 396.428 97.7406 395.741C98.4282 395.053 99.3609 394.667 100.333 394.667H104V391H89.3333C87.3884 391 85.5231 390.227 84.1479 388.852C82.7726 387.477 82 385.612 82 383.667V343.333ZM118.667 394.667V391H111.333V394.667H118.667Z" fill="url(#paint5_linear_1062_3602)"/>
<rect x="87" y="344" width="55" height="38" rx="6" fill="#4D3ECF"/>
<rect x="87" y="344" width="55" height="38" rx="6" fill="#4D3ECF"/>
<line x1="93.5" y1="352.5" x2="135.5" y2="352.5" stroke="white" stroke-width="3" stroke-linecap="round"/>
<line x1="93.5" y1="359.5" x2="135.5" y2="359.5" stroke="white" stroke-width="3" stroke-linecap="round"/>
<line x1="93.5" y1="366.5" x2="135.5" y2="366.5" stroke="white" stroke-width="3" stroke-linecap="round"/>
<line x1="93.5" y1="373.5" x2="121.5" y2="373.5" stroke="white" stroke-width="3" stroke-linecap="round"/>
</g>
<g filter="url(#filter20_bii_1062_3602)">
<rect x="61" y="349" width="66" height="49" rx="6" fill="white" fill-opacity="0.2"/>
</g>
<g filter="url(#filter21_bii_1062_3602)">
<path fill-rule="evenodd" clip-rule="evenodd" d="M72 362.5C72 361.672 72.6716 361 73.5 361L115.5 361C116.328 361 117 361.672 117 362.5C117 363.328 116.328 364 115.5 364L73.5 364C72.6716 364 72 363.328 72 362.5Z" fill="white" fill-opacity="0.8"/>
</g>
<g filter="url(#filter22_bii_1062_3602)">
<path fill-rule="evenodd" clip-rule="evenodd" d="M72 369.5C72 368.672 72.6716 368 73.5 368L115.5 368C116.328 368 117 368.672 117 369.5C117 370.328 116.328 371 115.5 371L73.5 371C72.6716 371 72 370.328 72 369.5Z" fill="white" fill-opacity="0.8"/>
</g>
<g filter="url(#filter23_bii_1062_3602)">
<path fill-rule="evenodd" clip-rule="evenodd" d="M72 376.5C72 375.672 72.6716 375 73.5 375L115.5 375C116.328 375 117 375.672 117 376.5C117 377.328 116.328 378 115.5 378L73.5 378C72.6716 378 72 377.328 72 376.5Z" fill="white" fill-opacity="0.8"/>
</g>
<g filter="url(#filter24_bii_1062_3602)">
<path fill-rule="evenodd" clip-rule="evenodd" d="M72 383.5C72 382.672 72.4626 382 73.0333 382L101.967 382C102.537 382 103 382.672 103 383.5C103 384.328 102.537 385 101.967 385L73.0333 385C72.4626 385 72 384.328 72 383.5Z" fill="white" fill-opacity="0.8"/>
</g>
<defs>
<filter id="filter0_d_1062_3602" x="193.327" y="0.652321" width="166.041" height="144.764" filterUnits="userSpaceOnUse" color-interpolation-filters="sRGB">
<feFlood flood-opacity="0" result="BackgroundImageFix"/>
<feColorMatrix in="SourceAlpha" type="matrix" values="0 0 0 0 0 0 0 0 0 0 0 0 0 0 0 0 0 0 127 0" result="hardAlpha"/>
<feOffset dx="17.3477" dy="17.3477"/>
<feGaussianBlur stdDeviation="17.3477"/>
<feComposite in2="hardAlpha" operator="out"/>
<feColorMatrix type="matrix" values="0 0 0 0 0 0 0 0 0 0 0 0 0 0 0 0 0 0 0.1 0"/>
<feBlend mode="normal" in2="BackgroundImageFix" result="effect1_dropShadow_1062_3602"/>
<feBlend mode="normal" in="SourceGraphic" in2="effect1_dropShadow_1062_3602" result="shape"/>
</filter>
<filter id="filter1_d_1062_3602" x="275.612" y="30.4948" width="38.1905" height="38.1905" filterUnits="userSpaceOnUse" color-interpolation-filters="sRGB">
<feFlood flood-opacity="0" result="BackgroundImageFix"/>
<feColorMatrix in="SourceAlpha" type="matrix" values="0 0 0 0 0 0 0 0 0 0 0 0 0 0 0 0 0 0 127 0" result="hardAlpha"/>
<feOffset/>
<feGaussianBlur stdDeviation="6.93907"/>
<feComposite in2="hardAlpha" operator="out"/>
<feColorMatrix type="matrix" values="0 0 0 0 1 0 0 0 0 1 0 0 0 0 1 0 0 0 0.5 0"/>
<feBlend mode="normal" in2="BackgroundImageFix" result="effect1_dropShadow_1062_3602"/>
<feBlend mode="normal" in="SourceGraphic" in2="effect1_dropShadow_1062_3602" result="shape"/>
</filter>
<filter id="filter2_d_1062_3602" x="275.612" y="45.1813" width="38.1905" height="38.1905" filterUnits="userSpaceOnUse" color-interpolation-filters="sRGB">
<feFlood flood-opacity="0" result="BackgroundImageFix"/>
<feColorMatrix in="SourceAlpha" type="matrix" values="0 0 0 0 0 0 0 0 0 0 0 0 0 0 0 0 0 0 127 0" result="hardAlpha"/>
<feOffset/>
<feGaussianBlur stdDeviation="6.93907"/>
<feComposite in2="hardAlpha" operator="out"/>
<feColorMatrix type="matrix" values="0 0 0 0 1 0 0 0 0 1 0 0 0 0 1 0 0 0 0.5 0"/>
<feBlend mode="normal" in2="BackgroundImageFix" result="effect1_dropShadow_1062_3602"/>
<feBlend mode="normal" in="SourceGraphic" in2="effect1_dropShadow_1062_3602" result="shape"/>
</filter>
<filter id="filter3_d_1062_3602" x="260.925" y="30.4948" width="38.1905" height="38.1905" filterUnits="userSpaceOnUse" color-interpolation-filters="sRGB">
<feFlood flood-opacity="0" result="BackgroundImageFix"/>
<feColorMatrix in="SourceAlpha" type="matrix" values="0 0 0 0 0 0 0 0 0 0 0 0 0 0 0 0 0 0 127 0" result="hardAlpha"/>
<feOffset/>
<feGaussianBlur stdDeviation="6.93907"/>
<feComposite in2="hardAlpha" operator="out"/>
<feColorMatrix type="matrix" values="0 0 0 0 1 0 0 0 0 1 0 0 0 0 1 0 0 0 0.5 0"/>
<feBlend mode="normal" in2="BackgroundImageFix" result="effect1_dropShadow_1062_3602"/>
<feBlend mode="normal" in="SourceGraphic" in2="effect1_dropShadow_1062_3602" result="shape"/>
</filter>
<filter id="filter4_d_1062_3602" x="260.925" y="45.1813" width="38.1905" height="38.1905" filterUnits="userSpaceOnUse" color-interpolation-filters="sRGB">
<feFlood flood-opacity="0" result="BackgroundImageFix"/>
<feColorMatrix in="SourceAlpha" type="matrix" values="0 0 0 0 0 0 0 0 0 0 0 0 0 0 0 0 0 0 127 0" result="hardAlpha"/>
<feOffset/>
<feGaussianBlur stdDeviation="6.93907"/>
<feComposite in2="hardAlpha" operator="out"/>
<feColorMatrix type="matrix" values="0 0 0 0 1 0 0 0 0 1 0 0 0 0 1 0 0 0 0.5 0"/>
<feBlend mode="normal" in2="BackgroundImageFix" result="effect1_dropShadow_1062_3602"/>
<feBlend mode="normal" in="SourceGraphic" in2="effect1_dropShadow_1062_3602" result="shape"/>
</filter>
<filter id="filter5_bii_1062_3602" x="187.706" y="4.45412" width="107.389" height="111.887" filterUnits="userSpaceOnUse" color-interpolation-filters="sRGB">
<feFlood flood-opacity="0" result="BackgroundImageFix"/>
<feGaussianBlur in="BackgroundImageFix" stdDeviation="11.4842"/>
<feComposite in2="SourceAlpha" operator="in" result="effect1_backgroundBlur_1062_3602"/>
<feBlend mode="normal" in="SourceGraphic" in2="effect1_backgroundBlur_1062_3602" result="shape"/>
<feColorMatrix in="SourceAlpha" type="matrix" values="0 0 0 0 0 0 0 0 0 0 0 0 0 0 0 0 0 0 127 0" result="hardAlpha"/>
<feOffset dx="-6.5757" dy="6.5757"/>
<feGaussianBlur stdDeviation="3.28785"/>
<feComposite in2="hardAlpha" operator="arithmetic" k2="-1" k3="1"/>
<feColorMatrix type="matrix" values="0 0 0 0 1 0 0 0 0 1 0 0 0 0 1 0 0 0 0.1 0"/>
<feBlend mode="normal" in2="shape" result="effect2_innerShadow_1062_3602"/>
<feColorMatrix in="SourceAlpha" type="matrix" values="0 0 0 0 0 0 0 0 0 0 0 0 0 0 0 0 0 0 127 0" result="hardAlpha"/>
<feOffset dx="6.5757" dy="-6.5757"/>
<feGaussianBlur stdDeviation="3.28785"/>
<feComposite in2="hardAlpha" operator="arithmetic" k2="-1" k3="1"/>
<feColorMatrix type="matrix" values="0 0 0 0 0.30102 0 0 0 0 0.253333 0 0 0 0 0.709333 0 0 0 0.1 0"/>
<feBlend mode="normal" in2="effect2_innerShadow_1062_3602" result="effect3_innerShadow_1062_3602"/>
</filter>
<filter id="filter6_bii_1062_3602" x="216.609" y="73.416" width="13.2167" height="13.2167" filterUnits="userSpaceOnUse" color-interpolation-filters="sRGB">
<feFlood flood-opacity="0" result="BackgroundImageFix"/>
<feGaussianBlur in="BackgroundImageFix" stdDeviation="0.695614"/>
<feComposite in2="SourceAlpha" operator="in" result="effect1_backgroundBlur_1062_3602"/>
<feBlend mode="normal" in="SourceGraphic" in2="effect1_backgroundBlur_1062_3602" result="shape"/>
<feColorMatrix in="SourceAlpha" type="matrix" values="0 0 0 0 0 0 0 0 0 0 0 0 0 0 0 0 0 0 127 0" result="hardAlpha"/>
<feOffset dx="-0.695614" dy="0.695614"/>
<feGaussianBlur stdDeviation="0.347807"/>
<feComposite in2="hardAlpha" operator="arithmetic" k2="-1" k3="1"/>
<feColorMatrix type="matrix" values="0 0 0 0 1 0 0 0 0 1 0 0 0 0 1 0 0 0 0.1 0"/>
<feBlend mode="normal" in2="shape" result="effect2_innerShadow_1062_3602"/>
<feColorMatrix in="SourceAlpha" type="matrix" values="0 0 0 0 0 0 0 0 0 0 0 0 0 0 0 0 0 0 127 0" result="hardAlpha"/>
<feOffset dx="0.695614" dy="-0.695614"/>
<feGaussianBlur stdDeviation="0.347807"/>
<feComposite in2="hardAlpha" operator="arithmetic" k2="-1" k3="1"/>
<feColorMatrix type="matrix" values="0 0 0 0 0.76 0 0 0 0 0.76 0 0 0 0 0.76 0 0 0 0.1 0"/>
<feBlend mode="normal" in2="effect2_innerShadow_1062_3602" result="effect3_innerShadow_1062_3602"/>
</filter>
<filter id="filter7_bii_1062_3602" x="232.043" y="57.9818" width="13.2167" height="13.2167" filterUnits="userSpaceOnUse" color-interpolation-filters="sRGB">
<feFlood flood-opacity="0" result="BackgroundImageFix"/>
<feGaussianBlur in="BackgroundImageFix" stdDeviation="0.695614"/>
<feComposite in2="SourceAlpha" operator="in" result="effect1_backgroundBlur_1062_3602"/>
<feBlend mode="normal" in="SourceGraphic" in2="effect1_backgroundBlur_1062_3602" result="shape"/>
<feColorMatrix in="SourceAlpha" type="matrix" values="0 0 0 0 0 0 0 0 0 0 0 0 0 0 0 0 0 0 127 0" result="hardAlpha"/>
<feOffset dx="-0.695614" dy="0.695614"/>
<feGaussianBlur stdDeviation="0.347807"/>
<feComposite in2="hardAlpha" operator="arithmetic" k2="-1" k3="1"/>
<feColorMatrix type="matrix" values="0 0 0 0 1 0 0 0 0 1 0 0 0 0 1 0 0 0 0.1 0"/>
<feBlend mode="normal" in2="shape" result="effect2_innerShadow_1062_3602"/>
<feColorMatrix in="SourceAlpha" type="matrix" values="0 0 0 0 0 0 0 0 0 0 0 0 0 0 0 0 0 0 127 0" result="hardAlpha"/>
<feOffset dx="0.695614" dy="-0.695614"/>
<feGaussianBlur stdDeviation="0.347807"/>
<feComposite in2="hardAlpha" operator="arithmetic" k2="-1" k3="1"/>
<feColorMatrix type="matrix" values="0 0 0 0 0.76 0 0 0 0 0.76 0 0 0 0 0.76 0 0 0 0.1 0"/>
<feBlend mode="normal" in2="effect2_innerShadow_1062_3602" result="effect3_innerShadow_1062_3602"/>
</filter>
<filter id="filter8_bii_1062_3602" x="232.043" y="73.416" width="13.2167" height="13.2167" filterUnits="userSpaceOnUse" color-interpolation-filters="sRGB">
<feFlood flood-opacity="0" result="BackgroundImageFix"/>
<feGaussianBlur in="BackgroundImageFix" stdDeviation="0.695614"/>
<feComposite in2="SourceAlpha" operator="in" result="effect1_backgroundBlur_1062_3602"/>
<feBlend mode="normal" in="SourceGraphic" in2="effect1_backgroundBlur_1062_3602" result="shape"/>
<feColorMatrix in="SourceAlpha" type="matrix" values="0 0 0 0 0 0 0 0 0 0 0 0 0 0 0 0 0 0 127 0" result="hardAlpha"/>
<feOffset dx="-0.695614" dy="0.695614"/>
<feGaussianBlur stdDeviation="0.347807"/>
<feComposite in2="hardAlpha" operator="arithmetic" k2="-1" k3="1"/>
<feColorMatrix type="matrix" values="0 0 0 0 1 0 0 0 0 1 0 0 0 0 1 0 0 0 0.1 0"/>
<feBlend mode="normal" in2="shape" result="effect2_innerShadow_1062_3602"/>
<feColorMatrix in="SourceAlpha" type="matrix" values="0 0 0 0 0 0 0 0 0 0 0 0 0 0 0 0 0 0 127 0" result="hardAlpha"/>
<feOffset dx="0.695614" dy="-0.695614"/>
<feGaussianBlur stdDeviation="0.347807"/>
<feComposite in2="hardAlpha" operator="arithmetic" k2="-1" k3="1"/>
<feColorMatrix type="matrix" values="0 0 0 0 0.76 0 0 0 0 0.76 0 0 0 0 0.76 0 0 0 0.1 0"/>
<feBlend mode="normal" in2="effect2_innerShadow_1062_3602" result="effect3_innerShadow_1062_3602"/>
</filter>
<filter id="filter9_bii_1062_3602" x="216.609" y="57.9818" width="13.2167" height="13.2167" filterUnits="userSpaceOnUse" color-interpolation-filters="sRGB">
<feFlood flood-opacity="0" result="BackgroundImageFix"/>
<feGaussianBlur in="BackgroundImageFix" stdDeviation="0.695614"/>
<feComposite in2="SourceAlpha" operator="in" result="effect1_backgroundBlur_1062_3602"/>
<feBlend mode="normal" in="SourceGraphic" in2="effect1_backgroundBlur_1062_3602" result="shape"/>
<feColorMatrix in="SourceAlpha" type="matrix" values="0 0 0 0 0 0 0 0 0 0 0 0 0 0 0 0 0 0 127 0" result="hardAlpha"/>
<feOffset dx="-0.695614" dy="0.695614"/>
<feGaussianBlur stdDeviation="0.347807"/>
<feComposite in2="hardAlpha" operator="arithmetic" k2="-1" k3="1"/>
<feColorMatrix type="matrix" values="0 0 0 0 1 0 0 0 0 1 0 0 0 0 1 0 0 0 0.1 0"/>
<feBlend mode="normal" in2="shape" result="effect2_innerShadow_1062_3602"/>
<feColorMatrix in="SourceAlpha" type="matrix" values="0 0 0 0 0 0 0 0 0 0 0 0 0 0 0 0 0 0 127 0" result="hardAlpha"/>
<feOffset dx="0.695614" dy="-0.695614"/>
<feGaussianBlur stdDeviation="0.347807"/>
<feComposite in2="hardAlpha" operator="arithmetic" k2="-1" k3="1"/>
<feColorMatrix type="matrix" values="0 0 0 0 0.76 0 0 0 0 0.76 0 0 0 0 0.76 0 0 0 0.1 0"/>
<feBlend mode="normal" in2="effect2_innerShadow_1062_3602" result="effect3_innerShadow_1062_3602"/>
</filter>
<filter id="filter10_bii_1062_3602" x="44.3047" y="143.613" width="75.4382" height="83.4609" filterUnits="userSpaceOnUse" color-interpolation-filters="sRGB">
<feFlood flood-opacity="0" result="BackgroundImageFix"/>
<feGaussianBlur in="BackgroundImageFix" stdDeviation="5.56177"/>
<feComposite in2="SourceAlpha" operator="in" result="effect1_backgroundBlur_1062_3602"/>
<feBlend mode="normal" in="SourceGraphic" in2="effect1_backgroundBlur_1062_3602" result="shape"/>
<feColorMatrix in="SourceAlpha" type="matrix" values="0 0 0 0 0 0 0 0 0 0 0 0 0 0 0 0 0 0 127 0" result="hardAlpha"/>
<feOffset dx="-5.56177" dy="5.56177"/>
<feGaussianBlur stdDeviation="2.78088"/>
<feComposite in2="hardAlpha" operator="arithmetic" k2="-1" k3="1"/>
<feColorMatrix type="matrix" values="0 0 0 0 1 0 0 0 0 1 0 0 0 0 1 0 0 0 0.1 0"/>
<feBlend mode="normal" in2="shape" result="effect2_innerShadow_1062_3602"/>
<feColorMatrix in="SourceAlpha" type="matrix" values="0 0 0 0 0 0 0 0 0 0 0 0 0 0 0 0 0 0 127 0" result="hardAlpha"/>
<feOffset dx="5.56177" dy="-5.56177"/>
<feGaussianBlur stdDeviation="2.78088"/>
<feComposite in2="hardAlpha" operator="arithmetic" k2="-1" k3="1"/>
<feColorMatrix type="matrix" values="0 0 0 0 0.30102 0 0 0 0 0.253333 0 0 0 0 0.709333 0 0 0 0.1 0"/>
<feBlend mode="normal" in2="effect2_innerShadow_1062_3602" result="effect3_innerShadow_1062_3602"/>
</filter>
<filter id="filter11_bii_1062_3602" x="56.7676" y="157.401" width="50.5126" height="55.8845" filterUnits="userSpaceOnUse" color-interpolation-filters="sRGB">
<feFlood flood-opacity="0" result="BackgroundImageFix"/>
<feGaussianBlur in="BackgroundImageFix" stdDeviation="3.7241"/>
<feComposite in2="SourceAlpha" operator="in" result="effect1_backgroundBlur_1062_3602"/>
<feBlend mode="normal" in="SourceGraphic" in2="effect1_backgroundBlur_1062_3602" result="shape"/>
<feColorMatrix in="SourceAlpha" type="matrix" values="0 0 0 0 0 0 0 0 0 0 0 0 0 0 0 0 0 0 127 0" result="hardAlpha"/>
<feOffset dx="-3.7241" dy="3.7241"/>
<feGaussianBlur stdDeviation="1.86205"/>
<feComposite in2="hardAlpha" operator="arithmetic" k2="-1" k3="1"/>
<feColorMatrix type="matrix" values="0 0 0 0 1 0 0 0 0 1 0 0 0 0 1 0 0 0 0.1 0"/>
<feBlend mode="normal" in2="shape" result="effect2_innerShadow_1062_3602"/>
<feColorMatrix in="SourceAlpha" type="matrix" values="0 0 0 0 0 0 0 0 0 0 0 0 0 0 0 0 0 0 127 0" result="hardAlpha"/>
<feOffset dx="3.7241" dy="-3.7241"/>
<feGaussianBlur stdDeviation="1.86205"/>
<feComposite in2="hardAlpha" operator="arithmetic" k2="-1" k3="1"/>
<feColorMatrix type="matrix" values="0 0 0 0 0.30102 0 0 0 0 0.253333 0 0 0 0 0.709333 0 0 0 0.1 0"/>
<feBlend mode="normal" in2="effect2_innerShadow_1062_3602" result="effect3_innerShadow_1062_3602"/>
</filter>
<filter id="filter12_d_1062_3602" x="377.065" y="338.831" width="16.2078" height="16.2078" filterUnits="userSpaceOnUse" color-interpolation-filters="sRGB">
<feFlood flood-opacity="0" result="BackgroundImageFix"/>
<feColorMatrix in="SourceAlpha" type="matrix" values="0 0 0 0 0 0 0 0 0 0 0 0 0 0 0 0 0 0 127 0" result="hardAlpha"/>
<feOffset/>
<feGaussianBlur stdDeviation="3"/>
<feComposite in2="hardAlpha" operator="out"/>
<feColorMatrix type="matrix" values="0 0 0 0 1 0 0 0 0 1 0 0 0 0 1 0 0 0 0.64 0"/>
<feBlend mode="normal" in2="BackgroundImageFix" result="effect1_dropShadow_1062_3602"/>
<feBlend mode="normal" in="SourceGraphic" in2="effect1_dropShadow_1062_3602" result="shape"/>
</filter>
<filter id="filter13_d_1062_3602" x="383.377" y="347.247" width="16.2078" height="16.2078" filterUnits="userSpaceOnUse" color-interpolation-filters="sRGB">
<feFlood flood-opacity="0" result="BackgroundImageFix"/>
<feColorMatrix in="SourceAlpha" type="matrix" values="0 0 0 0 0 0 0 0 0 0 0 0 0 0 0 0 0 0 127 0" result="hardAlpha"/>
<feOffset/>
<feGaussianBlur stdDeviation="3"/>
<feComposite in2="hardAlpha" operator="out"/>
<feColorMatrix type="matrix" values="0 0 0 0 1 0 0 0 0 1 0 0 0 0 1 0 0 0 0.64 0"/>
<feBlend mode="normal" in2="BackgroundImageFix" result="effect1_dropShadow_1062_3602"/>
<feBlend mode="normal" in="SourceGraphic" in2="effect1_dropShadow_1062_3602" result="shape"/>
</filter>
<filter id="filter14_d_1062_3602" x="388.636" y="338.831" width="16.2078" height="16.2078" filterUnits="userSpaceOnUse" color-interpolation-filters="sRGB">
<feFlood flood-opacity="0" result="BackgroundImageFix"/>
<feColorMatrix in="SourceAlpha" type="matrix" values="0 0 0 0 0 0 0 0 0 0 0 0 0 0 0 0 0 0 127 0" result="hardAlpha"/>
<feOffset/>
<feGaussianBlur stdDeviation="3"/>
<feComposite in2="hardAlpha" operator="out"/>
<feColorMatrix type="matrix" values="0 0 0 0 1 0 0 0 0 1 0 0 0 0 1 0 0 0 0.64 0"/>
<feBlend mode="normal" in2="BackgroundImageFix" result="effect1_dropShadow_1062_3602"/>
<feBlend mode="normal" in="SourceGraphic" in2="effect1_dropShadow_1062_3602" result="shape"/>
</filter>
<filter id="filter15_d_1062_3602" x="394.948" y="347.247" width="16.2078" height="16.2078" filterUnits="userSpaceOnUse" color-interpolation-filters="sRGB">
<feFlood flood-opacity="0" result="BackgroundImageFix"/>
<feColorMatrix in="SourceAlpha" type="matrix" values="0 0 0 0 0 0 0 0 0 0 0 0 0 0 0 0 0 0 127 0" result="hardAlpha"/>
<feOffset/>
<feGaussianBlur stdDeviation="3"/>
<feComposite in2="hardAlpha" operator="out"/>
<feColorMatrix type="matrix" values="0 0 0 0 1 0 0 0 0 1 0 0 0 0 1 0 0 0 0.64 0"/>
<feBlend mode="normal" in2="BackgroundImageFix" result="effect1_dropShadow_1062_3602"/>
<feBlend mode="normal" in="SourceGraphic" in2="effect1_dropShadow_1062_3602" result="shape"/>
</filter>
<filter id="filter16_d_1062_3602" x="388.636" y="355.662" width="16.2078" height="16.2078" filterUnits="userSpaceOnUse" color-interpolation-filters="sRGB">
<feFlood flood-opacity="0" result="BackgroundImageFix"/>
<feColorMatrix in="SourceAlpha" type="matrix" values="0 0 0 0 0 0 0 0 0 0 0 0 0 0 0 0 0 0 127 0" result="hardAlpha"/>
<feOffset/>
<feGaussianBlur stdDeviation="3"/>
<feComposite in2="hardAlpha" operator="out"/>
<feColorMatrix type="matrix" values="0 0 0 0 1 0 0 0 0 1 0 0 0 0 1 0 0 0 0.64 0"/>
<feBlend mode="normal" in2="BackgroundImageFix" result="effect1_dropShadow_1062_3602"/>
<feBlend mode="normal" in="SourceGraphic" in2="effect1_dropShadow_1062_3602" result="shape"/>
</filter>
<filter id="filter17_d_1062_3602" x="400.208" y="338.831" width="16.2078" height="16.2078" filterUnits="userSpaceOnUse" color-interpolation-filters="sRGB">
<feFlood flood-opacity="0" result="BackgroundImageFix"/>
<feColorMatrix in="SourceAlpha" type="matrix" values="0 0 0 0 0 0 0 0 0 0 0 0 0 0 0 0 0 0 127 0" result="hardAlpha"/>
<feOffset/>
<feGaussianBlur stdDeviation="3"/>
<feComposite in2="hardAlpha" operator="out"/>
<feColorMatrix type="matrix" values="0 0 0 0 1 0 0 0 0 1 0 0 0 0 1 0 0 0 0.64 0"/>
<feBlend mode="normal" in2="BackgroundImageFix" result="effect1_dropShadow_1062_3602"/>
<feBlend mode="normal" in="SourceGraphic" in2="effect1_dropShadow_1062_3602" result="shape"/>
</filter>
<filter id="filter18_bii_1062_3602" x="394.948" y="335.675" width="58.2858" height="59.3377" filterUnits="userSpaceOnUse" color-interpolation-filters="sRGB">
<feFlood flood-opacity="0" result="BackgroundImageFix"/>
<feGaussianBlur in="BackgroundImageFix" stdDeviation="3"/>
<feComposite in2="SourceAlpha" operator="in" result="effect1_backgroundBlur_1062_3602"/>
<feBlend mode="normal" in="SourceGraphic" in2="effect1_backgroundBlur_1062_3602" result="shape"/>
<feColorMatrix in="SourceAlpha" type="matrix" values="0 0 0 0 0 0 0 0 0 0 0 0 0 0 0 0 0 0 127 0" result="hardAlpha"/>
<feOffset dx="-3" dy="3"/>
<feGaussianBlur stdDeviation="1.5"/>
<feComposite in2="hardAlpha" operator="arithmetic" k2="-1" k3="1"/>
<feColorMatrix type="matrix" values="0 0 0 0 1 0 0 0 0 1 0 0 0 0 1 0 0 0 0.1 0"/>
<feBlend mode="normal" in2="shape" result="effect2_innerShadow_1062_3602"/>
<feColorMatrix in="SourceAlpha" type="matrix" values="0 0 0 0 0 0 0 0 0 0 0 0 0 0 0 0 0 0 127 0" result="hardAlpha"/>
<feOffset dx="3" dy="-3"/>
<feGaussianBlur stdDeviation="1.5"/>
<feComposite in2="hardAlpha" operator="arithmetic" k2="-1" k3="1"/>
<feColorMatrix type="matrix" values="0 0 0 0 0.646745 0 0 0 0 0.646745 0 0 0 0 0.646745 0 0 0 0.1 0"/>
<feBlend mode="normal" in2="effect2_innerShadow_1062_3602" result="effect3_innerShadow_1062_3602"/>
</filter>
<filter id="filter19_bii_1062_3602" x="410.73" y="134.2" width="97.54" height="86.2004" filterUnits="userSpaceOnUse" color-interpolation-filters="sRGB">
<feFlood flood-opacity="0" result="BackgroundImageFix"/>
<feGaussianBlur in="BackgroundImageFix" stdDeviation="6.2"/>
<feComposite in2="SourceAlpha" operator="in" result="effect1_backgroundBlur_1062_3602"/>
<feBlend mode="normal" in="SourceGraphic" in2="effect1_backgroundBlur_1062_3602" result="shape"/>
<feColorMatrix in="SourceAlpha" type="matrix" values="0 0 0 0 0 0 0 0 0 0 0 0 0 0 0 0 0 0 127 0" result="hardAlpha"/>
<feOffset dx="-6.2" dy="6.2"/>
<feGaussianBlur stdDeviation="3.1"/>
<feComposite in2="hardAlpha" operator="arithmetic" k2="-1" k3="1"/>
<feColorMatrix type="matrix" values="0 0 0 0 1 0 0 0 0 1 0 0 0 0 1 0 0 0 0.1 0"/>
<feBlend mode="normal" in2="shape" result="effect2_innerShadow_1062_3602"/>
<feColorMatrix in="SourceAlpha" type="matrix" values="0 0 0 0 0 0 0 0 0 0 0 0 0 0 0 0 0 0 127 0" result="hardAlpha"/>
<feOffset dx="6.2" dy="-6.2"/>
<feGaussianBlur stdDeviation="3.1"/>
<feComposite in2="hardAlpha" operator="arithmetic" k2="-1" k3="1"/>
<feColorMatrix type="matrix" values="0 0 0 0 0.76 0 0 0 0 0.76 0 0 0 0 0.76 0 0 0 0.1 0"/>
<feBlend mode="normal" in2="effect2_innerShadow_1062_3602" result="effect3_innerShadow_1062_3602"/>
</filter>
<filter id="filter20_bii_1062_3602" x="54.8" y="342.8" width="78.4" height="61.4" filterUnits="userSpaceOnUse" color-interpolation-filters="sRGB">
<feFlood flood-opacity="0" result="BackgroundImageFix"/>
<feGaussianBlur in="BackgroundImageFix" stdDeviation="3.1"/>
<feComposite in2="SourceAlpha" operator="in" result="effect1_backgroundBlur_1062_3602"/>
<feBlend mode="normal" in="SourceGraphic" in2="effect1_backgroundBlur_1062_3602" result="shape"/>
<feColorMatrix in="SourceAlpha" type="matrix" values="0 0 0 0 0 0 0 0 0 0 0 0 0 0 0 0 0 0 127 0" result="hardAlpha"/>
<feOffset dx="-3.1" dy="3.1"/>
<feGaussianBlur stdDeviation="1.55"/>
<feComposite in2="hardAlpha" operator="arithmetic" k2="-1" k3="1"/>
<feColorMatrix type="matrix" values="0 0 0 0 1 0 0 0 0 1 0 0 0 0 1 0 0 0 0.1 0"/>
<feBlend mode="normal" in2="shape" result="effect2_innerShadow_1062_3602"/>
<feColorMatrix in="SourceAlpha" type="matrix" values="0 0 0 0 0 0 0 0 0 0 0 0 0 0 0 0 0 0 127 0" result="hardAlpha"/>
<feOffset dx="3.1" dy="-3.1"/>
<feGaussianBlur stdDeviation="1.55"/>
<feComposite in2="hardAlpha" operator="arithmetic" k2="-1" k3="1"/>
<feColorMatrix type="matrix" values="0 0 0 0 0.230453 0 0 0 0 0.18525 0 0 0 0 0.6175 0 0 0 0.1 0"/>
<feBlend mode="normal" in2="effect2_innerShadow_1062_3602" result="effect3_innerShadow_1062_3602"/>
</filter>
<filter id="filter21_bii_1062_3602" x="68.8" y="357.8" width="51.4" height="9.4" filterUnits="userSpaceOnUse" color-interpolation-filters="sRGB">
<feFlood flood-opacity="0" result="BackgroundImageFix"/>
<feGaussianBlur in="BackgroundImageFix" stdDeviation="1.6"/>
<feComposite in2="SourceAlpha" operator="in" result="effect1_backgroundBlur_1062_3602"/>
<feBlend mode="normal" in="SourceGraphic" in2="effect1_backgroundBlur_1062_3602" result="shape"/>
<feColorMatrix in="SourceAlpha" type="matrix" values="0 0 0 0 0 0 0 0 0 0 0 0 0 0 0 0 0 0 127 0" result="hardAlpha"/>
<feOffset dx="-1.6" dy="1.6"/>
<feGaussianBlur stdDeviation="0.8"/>
<feComposite in2="hardAlpha" operator="arithmetic" k2="-1" k3="1"/>
<feColorMatrix type="matrix" values="0 0 0 0 1 0 0 0 0 1 0 0 0 0 1 0 0 0 0.1 0"/>
<feBlend mode="normal" in2="shape" result="effect2_innerShadow_1062_3602"/>
<feColorMatrix in="SourceAlpha" type="matrix" values="0 0 0 0 0 0 0 0 0 0 0 0 0 0 0 0 0 0 127 0" result="hardAlpha"/>
<feOffset dx="1.6" dy="-1.6"/>
<feGaussianBlur stdDeviation="0.8"/>
<feComposite in2="hardAlpha" operator="arithmetic" k2="-1" k3="1"/>
<feColorMatrix type="matrix" values="0 0 0 0 0.76 0 0 0 0 0.76 0 0 0 0 0.76 0 0 0 0.1 0"/>
<feBlend mode="normal" in2="effect2_innerShadow_1062_3602" result="effect3_innerShadow_1062_3602"/>
</filter>
<filter id="filter22_bii_1062_3602" x="68.8" y="364.8" width="51.4" height="9.4" filterUnits="userSpaceOnUse" color-interpolation-filters="sRGB">
<feFlood flood-opacity="0" result="BackgroundImageFix"/>
<feGaussianBlur in="BackgroundImageFix" stdDeviation="1.6"/>
<feComposite in2="SourceAlpha" operator="in" result="effect1_backgroundBlur_1062_3602"/>
<feBlend mode="normal" in="SourceGraphic" in2="effect1_backgroundBlur_1062_3602" result="shape"/>
<feColorMatrix in="SourceAlpha" type="matrix" values="0 0 0 0 0 0 0 0 0 0 0 0 0 0 0 0 0 0 127 0" result="hardAlpha"/>
<feOffset dx="-1.6" dy="1.6"/>
<feGaussianBlur stdDeviation="0.8"/>
<feComposite in2="hardAlpha" operator="arithmetic" k2="-1" k3="1"/>
<feColorMatrix type="matrix" values="0 0 0 0 1 0 0 0 0 1 0 0 0 0 1 0 0 0 0.1 0"/>
<feBlend mode="normal" in2="shape" result="effect2_innerShadow_1062_3602"/>
<feColorMatrix in="SourceAlpha" type="matrix" values="0 0 0 0 0 0 0 0 0 0 0 0 0 0 0 0 0 0 127 0" result="hardAlpha"/>
<feOffset dx="1.6" dy="-1.6"/>
<feGaussianBlur stdDeviation="0.8"/>
<feComposite in2="hardAlpha" operator="arithmetic" k2="-1" k3="1"/>
<feColorMatrix type="matrix" values="0 0 0 0 0.76 0 0 0 0 0.76 0 0 0 0 0.76 0 0 0 0.1 0"/>
<feBlend mode="normal" in2="effect2_innerShadow_1062_3602" result="effect3_innerShadow_1062_3602"/>
</filter>
<filter id="filter23_bii_1062_3602" x="68.8" y="371.8" width="51.4" height="9.4" filterUnits="userSpaceOnUse" color-interpolation-filters="sRGB">
<feFlood flood-opacity="0" result="BackgroundImageFix"/>
<feGaussianBlur in="BackgroundImageFix" stdDeviation="1.6"/>
<feComposite in2="SourceAlpha" operator="in" result="effect1_backgroundBlur_1062_3602"/>
<feBlend mode="normal" in="SourceGraphic" in2="effect1_backgroundBlur_1062_3602" result="shape"/>
<feColorMatrix in="SourceAlpha" type="matrix" values="0 0 0 0 0 0 0 0 0 0 0 0 0 0 0 0 0 0 127 0" result="hardAlpha"/>
<feOffset dx="-1.6" dy="1.6"/>
<feGaussianBlur stdDeviation="0.8"/>
<feComposite in2="hardAlpha" operator="arithmetic" k2="-1" k3="1"/>
<feColorMatrix type="matrix" values="0 0 0 0 1 0 0 0 0 1 0 0 0 0 1 0 0 0 0.1 0"/>
<feBlend mode="normal" in2="shape" result="effect2_innerShadow_1062_3602"/>
<feColorMatrix in="SourceAlpha" type="matrix" values="0 0 0 0 0 0 0 0 0 0 0 0 0 0 0 0 0 0 127 0" result="hardAlpha"/>
<feOffset dx="1.6" dy="-1.6"/>
<feGaussianBlur stdDeviation="0.8"/>
<feComposite in2="hardAlpha" operator="arithmetic" k2="-1" k3="1"/>
<feColorMatrix type="matrix" values="0 0 0 0 0.76 0 0 0 0 0.76 0 0 0 0 0.76 0 0 0 0.1 0"/>
<feBlend mode="normal" in2="effect2_innerShadow_1062_3602" result="effect3_innerShadow_1062_3602"/>
</filter>
<filter id="filter24_bii_1062_3602" x="68.8" y="378.8" width="37.4" height="9.4" filterUnits="userSpaceOnUse" color-interpolation-filters="sRGB">
<feFlood flood-opacity="0" result="BackgroundImageFix"/>
<feGaussianBlur in="BackgroundImageFix" stdDeviation="1.6"/>
<feComposite in2="SourceAlpha" operator="in" result="effect1_backgroundBlur_1062_3602"/>
<feBlend mode="normal" in="SourceGraphic" in2="effect1_backgroundBlur_1062_3602" result="shape"/>
<feColorMatrix in="SourceAlpha" type="matrix" values="0 0 0 0 0 0 0 0 0 0 0 0 0 0 0 0 0 0 127 0" result="hardAlpha"/>
<feOffset dx="-1.6" dy="1.6"/>
<feGaussianBlur stdDeviation="0.8"/>
<feComposite in2="hardAlpha" operator="arithmetic" k2="-1" k3="1"/>
<feColorMatrix type="matrix" values="0 0 0 0 1 0 0 0 0 1 0 0 0 0 1 0 0 0 0.1 0"/>
<feBlend mode="normal" in2="shape" result="effect2_innerShadow_1062_3602"/>
<feColorMatrix in="SourceAlpha" type="matrix" values="0 0 0 0 0 0 0 0 0 0 0 0 0 0 0 0 0 0 127 0" result="hardAlpha"/>
<feOffset dx="1.6" dy="-1.6"/>
<feGaussianBlur stdDeviation="0.8"/>
<feComposite in2="hardAlpha" operator="arithmetic" k2="-1" k3="1"/>
<feColorMatrix type="matrix" values="0 0 0 0 0.76 0 0 0 0 0.76 0 0 0 0 0.76 0 0 0 0.1 0"/>
<feBlend mode="normal" in2="effect2_innerShadow_1062_3602" result="effect3_innerShadow_1062_3602"/>
</filter>
<linearGradient id="paint0_linear_1062_3602" x1="135.429" y1="68" x2="394.492" y2="126.236" gradientUnits="userSpaceOnUse">
<stop stop-color="#C5CEE8"/>
<stop offset="0.0001" stop-color="#DFE7FD"/>
<stop offset="1" stop-color="#CFD8F1" stop-opacity="0.12"/>
</linearGradient>
<linearGradient id="paint1_linear_1062_3602" x1="215.387" y1="43.8115" x2="268.33" y2="115.081" gradientUnits="userSpaceOnUse">
<stop stop-color="#AC5DD9"/>
<stop offset="1" stop-color="#004FC4"/>
</linearGradient>
<linearGradient id="paint2_linear_1062_3602" x1="352.824" y1="349.721" x2="370.839" y2="391.669" gradientUnits="userSpaceOnUse">
<stop stop-color="#AC5DD9"/>
<stop offset="1" stop-color="#004FC4"/>
</linearGradient>
<linearGradient id="paint3_linear_1062_3602" x1="336.158" y1="372.29" x2="355.752" y2="424.569" gradientUnits="userSpaceOnUse">
<stop stop-color="#AC5DD9"/>
<stop offset="1" stop-color="#004FC4"/>
</linearGradient>
<linearGradient id="paint4_linear_1062_3602" x1="417.5" y1="159.505" x2="474.754" y2="233.543" gradientUnits="userSpaceOnUse">
<stop stop-color="#AC5DD9"/>
<stop offset="0.956859" stop-color="#004FC4"/>
</linearGradient>
<linearGradient id="paint5_linear_1062_3602" x1="60.6814" y1="357.319" x2="103.319" y2="423.319" gradientUnits="userSpaceOnUse">
<stop stop-color="#3E7BFA"/>
<stop offset="1" stop-color="#6600CC"/>
</linearGradient>
<clipPath id="clip0_1062_3602">
<rect width="77" height="72.8602" fill="white" transform="translate(398 142)"/>
</clipPath>
<clipPath id="clip1_1062_3602">
<rect width="88" height="88" fill="white" transform="translate(71 325)"/>
</clipPath>
</defs>
</svg>
