<svg width="1480" height="4185" viewBox="0 0 1480 4185" fill="none" xmlns="http://www.w3.org/2000/svg">
<g clip-path="url(#clip0_460_5183)">
<path d="M1458.52 559.625C1457.07 599.627 1435.73 637.106 1398.18 670.639C1360.62 704.173 1306.92 733.696 1240.92 757.751C1108.94 805.86 928.003 832.028 729.408 824.807C530.813 817.587 352.254 778.348 224.114 720.781C160.041 691.997 108.621 658.651 73.6006 622.478C38.5824 586.307 20.0201 547.377 21.4746 507.375C22.929 467.373 44.2695 429.894 81.822 396.361C119.377 362.827 173.083 333.304 239.077 309.248C371.06 261.14 551.997 234.972 750.591 242.192C949.186 249.413 1127.75 288.652 1255.89 346.219C1319.96 375.003 1371.38 408.349 1406.4 444.522C1441.42 480.693 1459.98 519.623 1458.52 559.625Z" stroke="url(#paint0_linear_460_5183)" stroke-width="2"/>
<path d="M1581.34 500.177C1583.2 547.072 1561.58 592.77 1520.7 635.278C1479.81 677.788 1419.72 717.04 1344.8 750.993C1194.96 818.896 986.024 865.523 753.515 874.732C521.006 883.941 309.038 853.985 154.3 798.144C76.9286 770.223 13.9152 735.848 -30.2047 696.704C-74.3217 657.563 -99.4831 613.717 -101.34 566.822C-103.198 519.928 -81.583 474.229 -40.6997 431.721C0.186084 389.211 60.2833 349.96 135.204 316.007C285.041 248.103 493.975 201.476 726.485 192.267C958.994 183.058 1170.96 213.015 1325.7 268.855C1403.07 296.777 1466.08 331.152 1510.2 370.295C1554.32 409.436 1579.48 453.282 1581.34 500.177Z" stroke="url(#paint1_linear_460_5183)" stroke-width="2"/>
<path d="M1725.89 486.764C1728.5 541.78 1703.56 595.589 1656.01 645.812C1608.46 696.038 1538.37 742.608 1450.86 783.096C1275.85 864.072 1031.39 920.636 758.964 933.551C486.538 946.465 237.821 913.279 55.9374 849.222C-35.0069 817.193 -109.192 777.463 -161.279 731.96C-213.363 686.461 -243.285 635.252 -245.893 580.236C-248.501 525.22 -223.557 471.41 -176.011 421.188C-128.462 370.962 -58.368 324.392 29.1386 283.903C204.147 202.928 448.609 146.363 721.036 133.449C993.462 120.535 1242.18 153.72 1424.06 217.777C1515.01 249.807 1589.19 289.537 1641.28 335.04C1693.36 380.539 1723.28 431.748 1725.89 486.764Z" stroke="url(#paint2_linear_460_5183)" stroke-width="2"/>
<path d="M1905.41 570.722C1903.33 635.846 1868.88 696.947 1808.18 751.686C1747.47 806.427 1660.55 854.741 1553.72 894.255C1340.04 973.283 1046.88 1017.04 724.885 1006.76C402.887 996.474 113.114 934.096 -95.0778 841.595C-199.176 795.343 -282.831 741.582 -339.924 683.078C-397.014 624.577 -427.486 561.402 -425.406 496.278C-423.326 431.154 -388.885 370.052 -328.178 315.314C-267.468 260.573 -180.553 212.259 -73.7155 172.744C139.955 93.7169 433.118 49.9569 755.115 60.2411C1077.11 70.5254 1366.89 132.904 1575.08 225.405C1679.18 271.656 1762.83 325.418 1819.92 383.922C1877.01 442.422 1907.49 505.597 1905.41 570.722Z" stroke="url(#paint3_linear_460_5183)" stroke-width="2"/>
<path d="M2077.32 576.134C2074.94 650.918 2035.4 721.071 1965.73 783.906C1896.05 846.744 1796.31 902.2 1673.72 947.555C1428.54 1038.26 1092.15 1088.5 722.682 1076.72C353.212 1064.95 20.7067 993.383 -218.197 887.241C-337.652 834.169 -433.657 772.473 -499.186 705.325C-564.712 638.18 -599.705 565.651 -597.321 490.866C-594.936 416.082 -555.395 345.929 -485.725 283.093C-416.052 220.256 -316.312 164.8 -193.72 119.445C51.4595 28.7353 387.847 -21.5028 757.318 -9.72415C1126.79 2.05454 1459.29 73.6169 1698.2 179.759C1817.65 232.831 1913.66 294.527 1979.19 361.675C2044.71 428.82 2079.7 501.349 2077.32 576.134Z" stroke="url(#paint4_linear_460_5183)" stroke-width="2"/>
</g>
<g clip-path="url(#clip1_460_5183)">
<path d="M1458.52 3899.63C1457.07 3939.63 1435.73 3977.11 1398.18 4010.64C1360.62 4044.17 1306.92 4073.7 1240.92 4097.75C1108.94 4145.86 928.003 4172.03 729.408 4164.81C530.813 4157.59 352.254 4118.35 224.114 4060.78C160.041 4032 108.621 3998.65 73.6006 3962.48C38.5824 3926.31 20.0201 3887.38 21.4746 3847.37C22.929 3807.37 44.2695 3769.89 81.822 3736.36C119.377 3702.83 173.083 3673.3 239.077 3649.25C371.06 3601.14 551.997 3574.97 750.591 3582.19C949.186 3589.41 1127.75 3628.65 1255.89 3686.22C1319.96 3715 1371.38 3748.35 1406.4 3784.52C1441.42 3820.69 1459.98 3859.62 1458.52 3899.63Z" stroke="url(#paint5_linear_460_5183)" stroke-width="2"/>
<path d="M1581.34 3840.18C1583.2 3887.07 1561.58 3932.77 1520.7 3975.28C1479.81 4017.79 1419.72 4057.04 1344.8 4090.99C1194.96 4158.9 986.024 4205.52 753.515 4214.73C521.006 4223.94 309.038 4193.99 154.3 4138.14C76.9286 4110.22 13.9152 4075.85 -30.2047 4036.7C-74.3217 3997.56 -99.4831 3953.72 -101.34 3906.82C-103.198 3859.93 -81.583 3814.23 -40.6997 3771.72C0.186084 3729.21 60.2833 3689.96 135.204 3656.01C285.041 3588.1 493.975 3541.48 726.485 3532.27C958.994 3523.06 1170.96 3553.01 1325.7 3608.86C1403.07 3636.78 1466.08 3671.15 1510.2 3710.3C1554.32 3749.44 1579.48 3793.28 1581.34 3840.18Z" stroke="url(#paint6_linear_460_5183)" stroke-width="2"/>
<path d="M1725.89 3826.76C1728.5 3881.78 1703.56 3935.59 1656.01 3985.81C1608.46 4036.04 1538.37 4082.61 1450.86 4123.1C1275.85 4204.07 1031.39 4260.64 758.964 4273.55C486.538 4286.47 237.821 4253.28 55.9374 4189.22C-35.0069 4157.19 -109.192 4117.46 -161.279 4071.96C-213.363 4026.46 -243.285 3975.25 -245.893 3920.24C-248.501 3865.22 -223.557 3811.41 -176.011 3761.19C-128.462 3710.96 -58.368 3664.39 29.1386 3623.9C204.147 3542.93 448.609 3486.36 721.036 3473.45C993.462 3460.53 1242.18 3493.72 1424.06 3557.78C1515.01 3589.81 1589.19 3629.54 1641.28 3675.04C1693.36 3720.54 1723.28 3771.75 1725.89 3826.76Z" stroke="url(#paint7_linear_460_5183)" stroke-width="2"/>
<path d="M1905.41 3910.72C1903.33 3975.85 1868.88 4036.95 1808.18 4091.69C1747.47 4146.43 1660.55 4194.74 1553.72 4234.26C1340.04 4313.28 1046.88 4357.04 724.885 4346.76C402.887 4336.47 113.114 4274.1 -95.0778 4181.6C-199.176 4135.34 -282.831 4081.58 -339.924 4023.08C-397.014 3964.58 -427.486 3901.4 -425.406 3836.28C-423.326 3771.15 -388.885 3710.05 -328.178 3655.31C-267.468 3600.57 -180.553 3552.26 -73.7155 3512.74C139.955 3433.72 433.118 3389.96 755.115 3400.24C1077.11 3410.53 1366.89 3472.9 1575.08 3565.4C1679.18 3611.66 1762.83 3665.42 1819.92 3723.92C1877.01 3782.42 1907.49 3845.6 1905.41 3910.72Z" stroke="url(#paint8_linear_460_5183)" stroke-width="2"/>
<path d="M2077.32 3916.13C2074.94 3990.92 2035.4 4061.07 1965.73 4123.91C1896.05 4186.74 1796.31 4242.2 1673.72 4287.56C1428.54 4378.26 1092.15 4428.5 722.682 4416.72C353.212 4404.95 20.7067 4333.38 -218.197 4227.24C-337.652 4174.17 -433.657 4112.47 -499.186 4045.33C-564.712 3978.18 -599.705 3905.65 -597.321 3830.87C-594.936 3756.08 -555.395 3685.93 -485.725 3623.09C-416.052 3560.26 -316.312 3504.8 -193.72 3459.44C51.4595 3368.74 387.847 3318.5 757.318 3330.28C1126.79 3342.05 1459.29 3413.62 1698.2 3519.76C1817.65 3572.83 1913.66 3634.53 1979.19 3701.67C2044.71 3768.82 2079.7 3841.35 2077.32 3916.13Z" stroke="url(#paint9_linear_460_5183)" stroke-width="2"/>
</g>
<g clip-path="url(#clip2_460_5183)">
<path d="M1458.56 1343.41C1459.96 1383.41 1441.34 1422.31 1406.27 1458.44C1371.2 1494.56 1319.73 1527.83 1255.62 1556.52C1127.39 1613.9 948.778 1652.89 750.173 1659.82C551.568 1666.76 370.669 1640.33 238.755 1592.03C172.796 1567.88 119.133 1538.28 81.6256 1504.69C44.1213 1471.11 22.8347 1433.6 21.4377 1393.59C20.0408 1353.59 38.6589 1314.68 73.729 1278.56C108.802 1242.44 160.269 1209.17 224.383 1180.48C352.607 1123.1 531.221 1084.11 729.826 1077.18C928.432 1070.24 1109.33 1096.67 1241.24 1144.97C1307.2 1169.12 1360.87 1198.72 1398.37 1232.31C1435.88 1265.89 1457.16 1303.4 1458.56 1343.41Z" stroke="url(#paint10_linear_460_5183)" stroke-width="2"/>
<path d="M1581.94 1358.47C1582.5 1405.4 1559.63 1450.48 1517.58 1491.84C1475.54 1533.2 1414.38 1570.78 1338.55 1602.64C1186.89 1666.38 976.743 1707.2 744.068 1709.98C511.393 1712.75 300.335 1676.94 147.201 1616.84C70.6323 1586.78 8.59427 1550.68 -34.4256 1510.33C-77.4427 1469.98 -101.381 1425.46 -101.94 1378.53C-102.499 1331.6 -79.6283 1286.52 -37.5845 1245.16C4.46192 1203.8 65.6222 1166.22 141.454 1134.36C293.112 1070.62 503.257 1029.8 735.932 1027.02C968.607 1024.25 1179.67 1060.06 1332.8 1120.16C1409.37 1150.21 1471.41 1186.32 1514.43 1226.67C1557.44 1267.02 1581.38 1311.54 1581.94 1358.47Z" stroke="url(#paint11_linear_460_5183)" stroke-width="2"/>
<path d="M1726.86 1352.07C1727.78 1407.15 1701.19 1460.16 1652.13 1508.9C1603.06 1557.64 1531.57 1602.04 1442.86 1639.82C1265.44 1715.38 1019.36 1764.41 746.665 1768.94C473.97 1773.48 226.39 1732.67 46.5607 1663.06C-43.3567 1628.25 -116.287 1586.26 -166.951 1539.18C-217.612 1492.1 -245.947 1440 -246.863 1384.93C-247.78 1329.85 -221.195 1276.84 -172.128 1228.1C-123.059 1179.36 -51.5669 1134.96 37.1423 1097.18C214.556 1021.62 460.64 972.594 733.335 968.056C1006.03 963.517 1253.61 1004.33 1433.44 1073.94C1523.36 1108.75 1596.29 1150.74 1646.95 1197.82C1697.61 1244.9 1725.95 1297 1726.86 1352.07Z" stroke="url(#paint12_linear_460_5183)" stroke-width="2"/>
<path d="M1905.41 1405.72C1903.33 1470.85 1868.88 1531.95 1808.18 1586.69C1747.47 1641.43 1660.55 1689.74 1553.72 1729.26C1340.04 1808.28 1046.88 1852.04 724.885 1841.76C402.887 1831.47 113.114 1769.1 -95.0778 1676.59C-199.176 1630.34 -282.831 1576.58 -339.924 1518.08C-397.014 1459.58 -427.486 1396.4 -425.406 1331.28C-423.326 1266.15 -388.885 1205.05 -328.178 1150.31C-267.468 1095.57 -180.553 1047.26 -73.7155 1007.74C139.955 928.717 433.118 884.957 755.115 895.241C1077.11 905.525 1366.89 967.904 1575.08 1060.4C1679.18 1106.66 1762.83 1160.42 1819.92 1218.92C1877.01 1277.42 1907.49 1340.6 1905.41 1405.72Z" stroke="url(#paint13_linear_460_5183)" stroke-width="2"/>
<path d="M2077.32 1411.13C2074.94 1485.92 2035.4 1556.07 1965.73 1618.91C1896.05 1681.74 1796.31 1737.2 1673.72 1782.56C1428.54 1873.26 1092.15 1923.5 722.682 1911.72C353.212 1899.95 20.7067 1828.38 -218.197 1722.24C-337.652 1669.17 -433.657 1607.47 -499.186 1540.33C-564.712 1473.18 -599.705 1400.65 -597.321 1325.87C-594.936 1251.08 -555.395 1180.93 -485.725 1118.09C-416.052 1055.26 -316.312 999.8 -193.72 954.445C51.4595 863.735 387.847 813.497 757.318 825.276C1126.79 837.055 1459.29 908.617 1698.2 1014.76C1817.65 1067.83 1913.66 1129.53 1979.19 1196.67C2044.71 1263.82 2079.7 1336.35 2077.32 1411.13Z" stroke="url(#paint14_linear_460_5183)" stroke-width="2"/>
</g>
<g clip-path="url(#clip3_460_5183)">
<path d="M1459 2203.5C1459 2243.53 1439.04 2281.76 1402.73 2316.63C1366.41 2351.51 1313.82 2382.97 1248.74 2409.4C1118.59 2462.28 938.726 2495 740 2495C541.274 2495 361.407 2462.28 231.259 2409.4C166.183 2382.97 113.586 2351.51 77.2736 2316.63C40.9643 2281.76 20.9998 2243.53 20.9998 2203.5C20.9998 2163.47 40.9643 2125.24 77.2736 2090.37C113.586 2055.49 166.183 2024.04 231.259 1997.6C361.407 1944.73 541.274 1912 740 1912C938.726 1912 1118.59 1944.73 1248.74 1997.6C1313.82 2024.04 1366.41 2055.49 1402.73 2090.37C1439.04 2125.24 1459 2163.47 1459 2203.5Z" stroke="url(#paint15_linear_460_5183)" stroke-width="2"/>
<path d="M1581.1 2242.39C1578.93 2289.28 1553.48 2332.95 1509.11 2371.8C1464.73 2410.65 1401.49 2444.61 1323.93 2472.02C1168.83 2526.83 956.668 2555.38 724.225 2544.64C491.782 2533.89 283.16 2485.88 133.777 2416.98C59.0827 2382.53 -0.75327 2342.89 -41.3566 2300.1C-81.9574 2257.33 -103.269 2211.49 -101.101 2164.61C-98.9332 2117.72 -73.482 2074.05 -29.1066 2035.2C15.2716 1996.35 78.5112 1962.39 156.066 1934.98C311.17 1880.17 523.332 1851.62 755.775 1862.36C988.218 1873.11 1196.84 1921.12 1346.22 1990.02C1420.92 2024.47 1480.75 2064.11 1521.36 2106.89C1561.96 2149.67 1583.27 2195.51 1581.1 2242.39Z" stroke="url(#paint16_linear_460_5183)" stroke-width="2"/>
<path d="M1725.12 2264.43C1721.72 2319.4 1691.06 2370.17 1638.33 2414.92C1585.59 2459.66 1510.84 2498.32 1419.45 2529.04C1236.66 2590.47 987.49 2620.07 715.278 2603.24C443.066 2586.4 199.443 2526.32 25.6188 2442.84C-61.2958 2401.09 -130.712 2353.52 -177.533 2302.61C-224.351 2251.71 -248.518 2197.55 -245.118 2142.57C-241.718 2087.6 -211.062 2036.83 -158.328 1992.08C-105.592 1947.34 -30.8419 1908.68 60.5542 1877.96C243.341 1816.53 492.51 1786.93 764.722 1803.76C1036.93 1820.6 1280.56 1880.68 1454.38 1964.16C1541.3 2005.91 1610.71 2053.48 1657.53 2104.39C1704.35 2155.29 1728.52 2209.45 1725.12 2264.43Z" stroke="url(#paint17_linear_460_5183)" stroke-width="2"/>
<path d="M1898.04 2339.55C1890.43 2404.26 1850.93 2462.22 1785.79 2511.6C1720.65 2560.99 1629.95 2601.75 1520.14 2632.05C1300.53 2692.65 1004.71 2711.36 684.752 2673.77C364.791 2636.18 81.3614 2549.42 -118.224 2439.57C-218.019 2384.65 -296.806 2323.98 -348.725 2260.83C-400.641 2197.7 -425.638 2132.16 -418.036 2067.45C-410.433 2002.74 -370.928 1944.78 -305.792 1895.4C-240.653 1846.01 -149.95 1805.25 -40.1424 1774.95C179.467 1714.35 475.287 1695.64 795.248 1733.23C1115.21 1770.82 1398.64 1857.58 1598.22 1967.43C1698.02 2022.35 1776.81 2083.02 1828.72 2146.17C1880.64 2209.3 1905.64 2274.84 1898.04 2339.55Z" stroke="url(#paint18_linear_460_5183)" stroke-width="2"/>
<path d="M2077.32 2246.13C2074.94 2320.92 2035.4 2391.07 1965.73 2453.91C1896.05 2516.74 1796.31 2572.2 1673.72 2617.56C1428.54 2708.26 1092.15 2758.5 722.682 2746.72C353.212 2734.95 20.7067 2663.38 -218.197 2557.24C-337.652 2504.17 -433.657 2442.47 -499.186 2375.33C-564.712 2308.18 -599.705 2235.65 -597.321 2160.87C-594.936 2086.08 -555.395 2015.93 -485.725 1953.09C-416.052 1890.26 -316.312 1834.8 -193.72 1789.44C51.4595 1698.74 387.847 1648.5 757.318 1660.28C1126.79 1672.05 1459.29 1743.62 1698.2 1849.76C1817.65 1902.83 1913.66 1964.53 1979.19 2031.67C2044.71 2098.82 2079.7 2171.35 2077.32 2246.13Z" stroke="url(#paint19_linear_460_5183)" stroke-width="2"/>
</g>
<g clip-path="url(#clip4_460_5183)">
<path d="M1458.89 3051.05C1458.19 3091.07 1437.56 3128.95 1400.65 3163.18C1363.74 3197.42 1310.6 3227.95 1245.07 3253.25C1114.02 3303.84 933.608 3333.42 734.912 3329.96C536.217 3326.49 356.949 3290.63 227.743 3235.49C163.138 3207.92 111.098 3175.56 75.4002 3140.05C39.7051 3104.55 20.4108 3065.97 21.1094 3025.95C21.808 2985.93 42.4367 2948.05 79.3491 2913.82C116.264 2879.58 169.402 2849.05 234.93 2823.75C365.981 2773.16 546.391 2743.58 745.087 2747.04C943.783 2750.51 1123.05 2786.37 1252.26 2841.51C1316.86 2869.08 1368.9 2901.44 1404.6 2936.95C1440.29 2972.45 1459.59 3011.03 1458.89 3051.05Z" stroke="url(#paint20_linear_460_5183)" stroke-width="2"/>
<path d="M1577.84 3122.09C1573.18 3168.79 1545.44 3211.05 1499.06 3247.48C1452.68 3283.92 1387.73 3314.46 1308.82 3337.7C1151.02 3384.19 937.641 3401.41 706.099 3378.31C474.557 3355.21 268.785 3296.17 123.278 3219.43C50.5223 3181.05 -7.11961 3138.28 -45.3896 3093.4C-83.6571 3048.52 -102.5 3001.61 -97.8408 2954.91C-93.1818 2908.21 -65.443 2865.95 -19.0638 2829.52C27.3184 2793.08 92.275 2762.54 171.178 2739.3C328.979 2692.81 542.359 2675.59 773.901 2698.69C1005.44 2721.79 1211.22 2780.83 1356.72 2857.57C1429.48 2895.94 1487.12 2938.72 1525.39 2983.6C1563.66 3028.48 1582.5 3075.39 1577.84 3122.09Z" stroke="url(#paint21_linear_460_5183)" stroke-width="2"/>
<path d="M1727 3039.23C1726.96 3094.31 1699.46 3146.86 1649.55 3194.74C1599.64 3242.62 1527.39 3285.76 1438.03 3321.99C1259.33 3394.46 1012.44 3439.2 739.703 3439C466.971 3438.8 220.138 3393.69 41.5452 3320.96C-47.7536 3284.59 -119.942 3241.34 -169.781 3193.39C-219.616 3145.43 -247.041 3092.85 -247 3037.77C-246.959 2982.69 -219.456 2930.14 -169.55 2882.26C-119.641 2834.38 -47.3877 2791.24 41.9649 2755.01C220.665 2682.54 467.565 2637.8 740.297 2638C1013.03 2638.2 1259.86 2683.31 1438.45 2756.04C1527.75 2792.41 1599.94 2835.66 1649.78 2883.61C1699.62 2931.57 1727.04 2984.15 1727 3039.23Z" stroke="url(#paint22_linear_460_5183)" stroke-width="2"/>
<path d="M1902.15 3133.16C1896.86 3198.11 1859.45 3257.43 1796.11 3309.11C1732.78 3360.79 1643.59 3404.76 1534.93 3438.96C1317.62 3507.35 1022.66 3536.59 701.558 3510.44C380.46 3484.28 94.1169 3407.69 -109.259 3305.03C-210.949 3253.7 -291.85 3195.87 -345.987 3134.63C-400.122 3073.38 -427.441 3008.78 -422.151 2943.84C-416.861 2878.89 -379.448 2819.57 -316.115 2767.89C-252.778 2716.21 -163.586 2672.24 -54.9294 2638.04C162.379 2569.65 457.344 2540.41 778.442 2566.56C1099.54 2592.72 1385.88 2669.31 1589.26 2771.97C1690.95 2823.3 1771.85 2881.13 1825.99 2942.37C1880.12 3003.62 1907.44 3068.22 1902.15 3133.16Z" stroke="url(#paint23_linear_460_5183)" stroke-width="2"/>
<path d="M2077.32 3081.13C2074.94 3155.92 2035.4 3226.07 1965.73 3288.91C1896.05 3351.74 1796.31 3407.2 1673.72 3452.56C1428.54 3543.26 1092.15 3593.5 722.682 3581.72C353.212 3569.95 20.7067 3498.38 -218.197 3392.24C-337.652 3339.17 -433.657 3277.47 -499.186 3210.33C-564.712 3143.18 -599.705 3070.65 -597.321 2995.87C-594.936 2921.08 -555.395 2850.93 -485.725 2788.09C-416.052 2725.26 -316.312 2669.8 -193.72 2624.44C51.4595 2533.74 387.847 2483.5 757.318 2495.28C1126.79 2507.05 1459.29 2578.62 1698.2 2684.76C1817.65 2737.83 1913.66 2799.53 1979.19 2866.67C2044.71 2933.82 2079.7 3006.35 2077.32 3081.13Z" stroke="url(#paint24_linear_460_5183)" stroke-width="2"/>
</g>
<rect x="0.5" y="0.5" width="1479" height="4184" rx="4.5" stroke="#9747FF" stroke-dasharray="10 5"/>
<defs>
<linearGradient id="paint0_linear_460_5183" x1="23.5" y1="533" x2="1092.21" y2="864.445" gradientUnits="userSpaceOnUse">
<stop stop-color="#FFFEFE"/>
<stop offset="1" stop-color="#FFFEFE" stop-opacity="0"/>
</linearGradient>
<linearGradient id="paint1_linear_460_5183" x1="-97" y1="533" x2="1037.44" y2="884.742" gradientUnits="userSpaceOnUse">
<stop stop-color="#FFFEFE"/>
<stop offset="1" stop-color="#FFFEFE" stop-opacity="0"/>
</linearGradient>
<linearGradient id="paint2_linear_460_5183" x1="-155" y1="533" x2="1333.57" y2="994.261" gradientUnits="userSpaceOnUse">
<stop stop-color="#FFFEFE"/>
<stop offset="1" stop-color="#FFFEFE" stop-opacity="0"/>
</linearGradient>
<linearGradient id="paint3_linear_460_5183" x1="-347" y1="453.5" x2="1122.34" y2="908.115" gradientUnits="userSpaceOnUse">
<stop stop-color="#FFFEFE"/>
<stop offset="1" stop-color="#FFFEFE" stop-opacity="0"/>
</linearGradient>
<linearGradient id="paint4_linear_460_5183" x1="-575" y1="507" x2="1412.83" y2="1121.83" gradientUnits="userSpaceOnUse">
<stop stop-color="#FFFEFE"/>
<stop offset="1" stop-color="#FFFEFE" stop-opacity="0"/>
</linearGradient>
<linearGradient id="paint5_linear_460_5183" x1="23.5" y1="3873" x2="1092.21" y2="4204.44" gradientUnits="userSpaceOnUse">
<stop stop-color="#FFFEFE"/>
<stop offset="1" stop-color="#FFFEFE" stop-opacity="0"/>
</linearGradient>
<linearGradient id="paint6_linear_460_5183" x1="-97" y1="3873" x2="1037.44" y2="4224.74" gradientUnits="userSpaceOnUse">
<stop stop-color="#FFFEFE"/>
<stop offset="1" stop-color="#FFFEFE" stop-opacity="0"/>
</linearGradient>
<linearGradient id="paint7_linear_460_5183" x1="-155" y1="3873" x2="1333.57" y2="4334.26" gradientUnits="userSpaceOnUse">
<stop stop-color="#FFFEFE"/>
<stop offset="1" stop-color="#FFFEFE" stop-opacity="0"/>
</linearGradient>
<linearGradient id="paint8_linear_460_5183" x1="-347" y1="3793.5" x2="1122.34" y2="4248.12" gradientUnits="userSpaceOnUse">
<stop stop-color="#FFFEFE"/>
<stop offset="1" stop-color="#FFFEFE" stop-opacity="0"/>
</linearGradient>
<linearGradient id="paint9_linear_460_5183" x1="-575" y1="3847" x2="1412.83" y2="4461.83" gradientUnits="userSpaceOnUse">
<stop stop-color="#FFFEFE"/>
<stop offset="1" stop-color="#FFFEFE" stop-opacity="0"/>
</linearGradient>
<linearGradient id="paint10_linear_460_5183" x1="986.604" y1="1670.21" x2="1125" y2="1077.75" gradientUnits="userSpaceOnUse">
<stop stop-color="#FFFEFE"/>
<stop offset="1" stop-color="#FFFEFE" stop-opacity="0"/>
</linearGradient>
<linearGradient id="paint11_linear_460_5183" x1="852.063" y1="1747.25" x2="1083.37" y2="1068.25" gradientUnits="userSpaceOnUse">
<stop stop-color="#FFFEFE"/>
<stop offset="1" stop-color="#FFFEFE" stop-opacity="0"/>
</linearGradient>
<linearGradient id="paint12_linear_460_5183" x1="644.345" y1="1827.78" x2="913.652" y2="1044.64" gradientUnits="userSpaceOnUse">
<stop stop-color="#FFFEFE"/>
<stop offset="1" stop-color="#FFFEFE" stop-opacity="0"/>
</linearGradient>
<linearGradient id="paint13_linear_460_5183" x1="682.5" y1="1779.5" x2="930.703" y2="977.294" gradientUnits="userSpaceOnUse">
<stop stop-color="#FFFEFE"/>
<stop offset="1" stop-color="#FFFEFE" stop-opacity="0"/>
</linearGradient>
<linearGradient id="paint14_linear_460_5183" x1="151" y1="1310.5" x2="1272.47" y2="1688.87" gradientUnits="userSpaceOnUse">
<stop stop-color="#FFFEFE"/>
<stop offset="1" stop-color="#FFFEFE" stop-opacity="0"/>
</linearGradient>
<linearGradient id="paint15_linear_460_5183" x1="1426.44" y1="2148.02" x2="224.237" y2="1822.56" gradientUnits="userSpaceOnUse">
<stop stop-color="#FFFEFE"/>
<stop offset="1" stop-color="#FFFEFE" stop-opacity="0"/>
</linearGradient>
<linearGradient id="paint16_linear_460_5183" x1="1397.55" y1="2190.3" x2="269.998" y2="1731.48" gradientUnits="userSpaceOnUse">
<stop stop-color="#FFFEFE"/>
<stop offset="1" stop-color="#FFFEFE" stop-opacity="0"/>
</linearGradient>
<linearGradient id="paint17_linear_460_5183" x1="1472.06" y1="2242.97" x2="182.771" y2="1683.19" gradientUnits="userSpaceOnUse">
<stop stop-color="#FFFEFE"/>
<stop offset="1" stop-color="#FFFEFE" stop-opacity="0"/>
</linearGradient>
<linearGradient id="paint18_linear_460_5183" x1="1462.25" y1="2178.24" x2="73.1232" y2="1615.21" gradientUnits="userSpaceOnUse">
<stop stop-color="#FFFEFE"/>
<stop offset="1" stop-color="#FFFEFE" stop-opacity="0"/>
</linearGradient>
<linearGradient id="paint19_linear_460_5183" x1="151" y1="2145.5" x2="1272.47" y2="2523.87" gradientUnits="userSpaceOnUse">
<stop stop-color="#FFFEFE"/>
<stop offset="1" stop-color="#FFFEFE" stop-opacity="0"/>
</linearGradient>
<linearGradient id="paint20_linear_460_5183" x1="797.973" y1="2718.85" x2="616.938" y2="3344.08" gradientUnits="userSpaceOnUse">
<stop stop-color="#FFFEFE"/>
<stop offset="1" stop-color="#FFFEFE" stop-opacity="0"/>
</linearGradient>
<linearGradient id="paint21_linear_460_5183" x1="831.897" y1="2684.82" x2="466.607" y2="3461.39" gradientUnits="userSpaceOnUse">
<stop stop-color="#FFFEFE"/>
<stop offset="1" stop-color="#FFFEFE" stop-opacity="0"/>
</linearGradient>
<linearGradient id="paint22_linear_460_5183" x1="854.602" y1="2644.06" x2="582.816" y2="3391.87" gradientUnits="userSpaceOnUse">
<stop stop-color="#FFFEFE"/>
<stop offset="1" stop-color="#FFFEFE" stop-opacity="0"/>
</linearGradient>
<linearGradient id="paint23_linear_460_5183" x1="795.645" y1="2570.68" x2="543.821" y2="3261.82" gradientUnits="userSpaceOnUse">
<stop stop-color="#FFFEFE"/>
<stop offset="1" stop-color="#FFFEFE" stop-opacity="0"/>
</linearGradient>
<linearGradient id="paint24_linear_460_5183" x1="151" y1="2980.5" x2="1272.47" y2="3358.87" gradientUnits="userSpaceOnUse">
<stop stop-color="#FFFEFE"/>
<stop offset="1" stop-color="#FFFEFE" stop-opacity="0"/>
</linearGradient>
<clipPath id="clip0_460_5183">
<rect width="1440" height="805" fill="white" transform="translate(20 20)"/>
</clipPath>
<clipPath id="clip1_460_5183">
<rect width="1440" height="805" fill="white" transform="translate(20 3360)"/>
</clipPath>
<clipPath id="clip2_460_5183">
<rect width="1440" height="805" fill="white" transform="translate(20 855)"/>
</clipPath>
<clipPath id="clip3_460_5183">
<rect width="1440" height="805" fill="white" transform="translate(20 1690)"/>
</clipPath>
<clipPath id="clip4_460_5183">
<rect width="1440" height="805" fill="white" transform="translate(20 2525)"/>
</clipPath>
</defs>
</svg>
