<svg width="187" height="20" viewBox="0 0 187 20" fill="none" xmlns="http://www.w3.org/2000/svg">
<path d="M0.744873 1.3376H21.6534V5.79588H13.9415V19.2324H8.4557V5.79588H0.744873V1.3376Z" fill="#504C67"/>
<path d="M24.0524 1.3376H43.6152V5.49725H29.53V8.35963H42.8738V12.0662H29.53V14.9286H43.9446V19.2324H24.0524V1.3376Z" fill="#504C67"/>
<path d="M46.8585 7.61841L46.8688 7.13448L46.8894 6.68144L46.9306 6.24901L46.9924 5.83716L47.0644 5.4459L47.1571 5.07524L47.2704 4.72517L47.3939 4.39569L47.5381 4.0868L47.6925 3.79851L47.8573 3.52051L48.0529 3.26311L48.2485 3.02629L48.4647 2.81007L48.7015 2.60415L48.9486 2.41882L49.2061 2.24378L49.4841 2.08934L49.7723 1.94519L50.0709 1.81134L50.3901 1.69808L50.7196 1.58482L51.0697 1.50245L51.4197 1.42008L51.7904 1.34801L52.1817 1.28624L52.5729 1.24505L52.9848 1.20387L53.4069 1.17298L53.8393 1.15239L54.2821 1.14209H54.7351H61.1908C68.9954 1.14209 70.0147 2.82037 69.9632 7.8861H64.4753V7.39189C64.4753 6.11516 63.5384 5.74449 61.9116 5.74449H55.9295C53.0362 5.74449 52.4905 7.10359 52.4905 9.32757V11.253C52.4905 13.8476 53.0362 14.836 55.6309 14.836H61.4894C63.9605 14.836 64.7018 14.5889 64.7018 12.365H70.1794V14.0432C70.1794 17.06 69.0983 19.4282 63.5796 19.4282H54.7351C49.7929 19.4282 46.8585 18.1926 46.8585 12.9518V7.61841Z" fill="#504C67"/>
<path d="M73.4948 1.3376H78.9826V7.72127H90.5453V1.3376H96.0332V19.2324H90.5453V12.4678H78.9826V19.2324H73.4948V1.3376Z" fill="#504C67"/>
<path d="M99.7399 1.3376H105.228V7.9169H107.792L114.711 1.3376H122.175L112.487 10.0894L123.318 19.2324H115.555L107.647 12.3649H105.228V19.2324H99.7399V1.3376Z" fill="#504C67"/>
<path d="M132.849 1.13232C127.907 1.13232 124.972 2.37821 124.972 7.61898V12.9473V13.4364L124.998 13.8997L125.049 14.3116L125.101 14.7234L125.178 15.1353L125.281 15.4956L125.384 15.856L125.513 16.1649L125.641 16.4738L125.796 16.7827L125.976 17.0401L126.156 17.2975L126.362 17.5549L126.594 17.7608L126.8 17.9667L127.057 18.1727L127.314 18.3271L127.598 18.4815L127.881 18.636L128.19 18.7647L128.499 18.8934L128.833 18.9964L129.168 19.0736L129.528 19.1508L129.914 19.228L130.3 19.2795L130.686 19.331L131.098 19.3567L131.51 19.4082H131.948L132.385 19.434H132.849H141.652C146.594 19.434 149.529 18.1881 149.529 12.9473V7.61898C149.529 2.37821 146.594 1.13232 141.652 1.13232H132.849ZM133.647 5.73991H133.775H133.904H134.033H140.468C143.361 5.73991 143.891 7.09388 143.891 9.31786V11.2484C143.891 13.8431 143.346 14.8264 140.751 14.8264H133.75C131.155 14.8264 130.609 13.8431 130.609 11.2484V9.31786V9.11194V8.90601V8.72583L130.635 8.54564L130.661 8.33972V8.15953L130.712 7.97935L130.738 7.8249L130.764 7.67046L130.815 7.51602L130.867 7.36157L130.918 7.20713L130.995 7.07842L131.073 6.94972L131.15 6.82102L131.227 6.69231L131.33 6.58935L131.433 6.48639L131.562 6.38342L131.69 6.28046L131.819 6.20324L131.948 6.12602L132.102 6.0488L132.282 5.99731L132.463 5.92009L132.643 5.86861L132.849 5.84287L133.055 5.81713L133.183 5.79139L133.286 5.76565H133.389H133.518L133.647 5.73991Z" fill="#504C67"/>
<path d="M152.837 1.3376H161.342L171.649 14.3417H171.69V1.3376H177.178V19.2324H168.683L158.377 6.23861H158.325V19.2324H152.837V1.3376Z" fill="#504C67"/>
<path d="M182.116 0.565918C181.2 0.565918 180.412 0.905695 179.774 1.54406C179.115 2.19272 178.796 2.98039 178.796 3.88647C178.796 4.81312 179.136 5.5802 179.774 6.22887C180.423 6.88782 181.2 7.20701 182.116 7.20701C183.033 7.20701 183.82 6.88782 184.459 6.22887C185.118 5.5802 185.437 4.81312 185.437 3.88647V3.80924V3.70628V3.62906V3.55184V3.47462L185.411 3.39739V3.29443L185.386 3.21721V3.13999L185.36 3.06276L185.334 2.98554L185.308 2.90832L185.283 2.8311L185.257 2.75388L185.231 2.67665L185.205 2.62517L185.18 2.54795L185.128 2.47073L185.102 2.39351L185.077 2.31628L185.025 2.2648L184.999 2.18758L184.948 2.11036L184.896 2.05888L184.845 1.98166L184.819 1.93017L184.768 1.85295L184.716 1.80147L184.639 1.72425L184.588 1.67277L184.536 1.59555L184.459 1.54406C183.82 0.905695 183.033 0.565918 182.116 0.565918ZM182.116 1.02925H182.194H182.271H182.348H182.425L182.503 1.05499H182.554L182.631 1.08073H182.708H182.76L182.837 1.10647L182.914 1.13221H182.966L183.043 1.15795L183.095 1.18369L183.172 1.20944L183.223 1.23518L183.301 1.26092L183.352 1.28666L183.429 1.33814L183.481 1.36388L183.532 1.38962L183.609 1.41536L183.661 1.46684L183.712 1.49258L183.79 1.54406L183.841 1.59555L183.893 1.62129L183.944 1.67277L183.996 1.72425L184.047 1.77573L184.098 1.82721L184.15 1.87869C184.706 2.43468 184.999 3.09365 184.999 3.88647C184.999 4.68957 184.706 5.35369 184.15 5.91998C183.594 6.47597 182.92 6.76942 182.116 6.76942C181.324 6.76942 180.639 6.47597 180.083 5.91998C179.527 5.35369 179.259 4.68957 179.259 3.88647C179.259 3.09365 179.527 2.43468 180.083 1.87869C180.649 1.3124 181.324 1.02925 182.116 1.02925Z" fill="#504C67"/>
<path d="M180.778 2.05908V5.68852H181.421V4.27278H181.936C182.286 4.27278 182.513 4.30367 182.657 4.37574C182.883 4.5096 183.017 4.7773 183.017 5.19945V5.50833V5.6113C183.017 5.63189 183.007 5.65248 183.017 5.66278C183.017 5.67307 183.043 5.67822 183.043 5.68852H183.635L183.609 5.63704C183.599 5.61645 183.594 5.55982 183.584 5.45685C183.584 5.36419 183.584 5.28182 183.584 5.19945V4.9163C183.584 4.73097 183.511 4.54563 183.378 4.35C183.254 4.15437 183.038 4.05656 182.76 4.01537C182.976 3.97419 183.151 3.89182 183.275 3.80945C183.512 3.6653 183.635 3.43363 183.635 3.11445C183.635 2.66141 183.45 2.34223 183.069 2.18779C182.863 2.09512 182.528 2.05908 182.065 2.05908H180.778ZM181.421 2.49667H181.962C182.322 2.49667 182.595 2.55845 182.76 2.65112C182.925 2.73349 183.017 2.89823 183.017 3.16593V3.19167V3.21741V3.24315L182.992 3.26889V3.29464V3.32038V3.34612L182.966 3.37186V3.3976V3.42334V3.44908H182.94V3.47482L182.914 3.50056L182.889 3.5263V3.55204H182.863V3.57778L182.837 3.60352H182.811V3.62926H182.786L182.76 3.655L182.734 3.68075H182.708L182.683 3.70649H182.657L182.605 3.73223C182.472 3.794 182.266 3.80945 181.988 3.80945H181.421V2.49667Z" fill="#504C67"/>
</svg>