<svg width="135" height="37" viewBox="0 0 135 37" fill="none" xmlns="http://www.w3.org/2000/svg">
<g clip-path="url(#clip0_104_3583)">
<path d="M24.2228 13.6722C22.8423 12.3219 20.9879 11.5658 19.0568 11.5658C17.1257 11.5658 15.2714 12.3219 13.8909 13.6722C13.2143 14.3481 12.6781 15.1512 12.313 16.0352C11.948 16.9192 11.7615 17.8666 11.7641 18.823C11.7667 19.7794 11.9584 20.7258 12.3282 21.6078C12.698 22.4898 13.2386 23.2899 13.9189 23.9621C15.2954 25.3288 17.1547 26.0985 19.0944 26.1046C21.0341 26.1107 22.8983 25.3528 24.2833 23.9948C24.3346 23.9435 24.5349 23.7246 24.8889 23.3333L21.4418 19.9095C21.0878 20.3194 20.9015 20.5337 20.8782 20.5524C20.4103 21.0177 19.7773 21.279 19.1174 21.279C18.4575 21.279 17.8244 21.0177 17.3566 20.5524C16.8923 20.0964 16.628 19.4747 16.6219 18.8239C16.6158 18.1732 16.8683 17.5466 17.324 17.082C17.7943 16.6288 18.4234 16.3779 19.0765 16.3831C19.7296 16.3884 20.3547 16.6493 20.8176 17.11L30.0315 26.254C28.7587 28.0746 27.0668 29.5625 25.0984 30.5921C23.13 31.6217 20.9429 32.1628 18.7214 32.1699C16.3879 32.1706 14.0929 31.5741 12.0551 30.437C10.0173 29.2999 8.30448 27.6601 7.07969 25.6738C5.8549 23.6874 5.15892 21.4207 5.05801 19.0893C4.95711 16.7579 5.45464 14.4394 6.50323 12.3547C7.55183 10.27 9.11658 8.48834 11.0485 7.17944C12.9805 5.87053 15.2153 5.07791 17.5402 4.87705C19.8651 4.67618 22.2028 5.07376 24.3306 6.03192C26.4584 6.99008 28.3055 8.47693 29.6961 10.3509C29.2924 10.8229 28.2537 11.9984 26.5798 13.8772L29.9943 17.2357L35.6214 10.9239C34.2609 7.88053 32.1045 5.26065 29.3795 3.34049C26.6545 1.42032 23.4619 0.271011 20.1383 0.0137509C16.8146 -0.24351 13.4832 0.400809 10.4952 1.87877C7.50712 3.35673 4.97325 5.61356 3.16071 8.41131C1.34817 11.2091 0.324128 14.444 0.196557 17.7752C0.0689849 21.1063 0.842613 24.4101 2.43587 27.3383C4.02912 30.2665 6.38297 32.7105 9.24921 34.4127C12.1154 36.1148 15.3879 37.012 18.7214 37.0097C23.3796 37.0097 27.232 35.561 31.0004 32.3515C33.1673 30.4428 34.8907 28.0835 36.0499 25.4388L24.2228 13.6722Z" fill="#504C67"/>
<path d="M100.333 20.9994V29.8499H96.6764V20.8084C96.4742 19.7664 95.913 18.8282 95.0906 18.1572C94.2681 17.4861 93.2364 17.1247 92.175 17.1358C91.1136 17.1468 90.0897 17.5297 89.2814 18.2178C88.4731 18.9058 87.9317 19.8555 87.7513 20.9016V29.8686H84.0946V13.7745L86.8895 15.5353C88.3778 14.2769 90.2649 13.5884 92.2138 13.5929C94.252 13.5752 96.2214 14.3288 97.7272 15.7024C99.233 17.0761 100.164 18.9682 100.333 20.9994ZM61.9729 11.7342C60.7648 12.3557 59.679 13.1905 58.768 14.1984C58.0389 13.1537 57.0526 12.3148 55.9045 11.7627C54.7565 11.2105 53.4853 10.9638 52.2141 11.0465C50.9428 11.1291 49.7143 11.5383 48.6474 12.2344C47.5804 12.9305 46.7111 13.8901 46.1233 15.0204C45.5356 16.1507 45.2493 17.4134 45.2922 18.6867C45.3351 19.9599 45.7056 21.2006 46.3681 22.2888C47.0305 23.3769 47.9625 24.2758 49.0738 24.8986C50.1852 25.5214 51.4384 25.847 52.7124 25.8439C53.9957 25.8546 55.2601 25.5337 56.383 24.9123C56.7815 26.2038 57.413 27.4116 58.2463 28.4758C56.5445 29.3979 54.6386 29.8784 52.7031 29.8732C51.1908 29.9038 49.6876 29.6324 48.2815 29.0749C46.8755 28.5173 45.5948 27.6848 44.5145 26.6261C43.4341 25.5675 42.5759 24.3039 41.99 22.9094C41.4041 21.5149 41.1023 20.0175 41.1023 18.5049C41.1023 16.9923 41.4041 15.495 41.99 14.1005C42.5759 12.706 43.4341 11.4424 44.5145 10.3837C45.5948 9.32503 46.8755 8.49253 48.2815 7.93497C49.6876 7.37741 51.1908 7.10599 52.7031 7.13661C54.4946 7.13263 56.2624 7.54655 57.8659 8.34548C59.4694 9.14441 60.8645 10.3063 61.9403 11.7389L61.9729 11.7342ZM67.409 29.8686C65.8257 29.8502 64.2832 29.3639 62.9756 28.4709C61.668 27.5779 60.6538 26.318 60.0606 24.8499C59.4674 23.3819 59.3217 21.7711 59.6418 20.2204C59.9619 18.6697 60.7336 17.2483 61.8597 16.1351C62.9858 15.022 64.416 14.2667 65.9703 13.9645C67.5246 13.6623 69.1336 13.8266 70.5947 14.4367C72.0559 15.0468 73.3039 16.0755 74.1818 17.3933C75.0596 18.7111 75.5281 20.2591 75.5282 21.8425C75.5221 22.9026 75.3072 23.9512 74.8959 24.9283C74.4846 25.9053 73.8848 26.7918 73.1309 27.5371C72.3769 28.2824 71.4836 28.8719 70.5018 29.2719C69.52 29.672 68.4691 29.8747 67.409 29.8686ZM67.409 26.3004C68.2882 26.2894 69.1445 26.0186 69.8702 25.5221C70.5959 25.0256 71.1586 24.3256 71.4874 23.5101C71.8163 22.6946 71.8967 21.8001 71.7184 20.9391C71.5401 20.078 71.1112 19.2889 70.4856 18.6711C69.86 18.0532 69.0656 17.6342 68.2024 17.4666C67.3392 17.2991 66.4458 17.3906 65.6345 17.7296C64.8231 18.0686 64.1302 18.6399 63.6428 19.3718C63.1554 20.1036 62.8953 20.9632 62.8952 21.8425C62.8982 22.4318 63.0175 23.0147 63.2461 23.5578C63.4747 24.1009 63.8082 24.5936 64.2274 25.0077C64.6467 25.4218 65.1435 25.7491 65.6895 25.9709C66.2354 26.1927 66.8197 26.3047 67.409 26.3004ZM77.7874 13.8211H81.3975V29.8686H77.7874V13.8211ZM117.037 10.9796H106.715V16.8117H116.739V20.4311H106.715V26.2445H117.037V29.8686H102.825V7.35554H117.037V10.9796ZM124.63 21.8099L119.073 13.8211H123.666C123.801 14.0447 124.001 14.3521 124.262 14.7527L126.158 17.6082C126.461 18.074 126.675 18.4001 126.801 18.619L126.987 18.9358L130.29 13.8351H134.664L129.214 21.6748L134.874 29.8686H130.336L126.838 24.6235L126.647 24.8983C126.493 25.1219 126.265 25.4712 125.958 25.9417C125.65 26.4122 125.329 26.9106 124.98 27.4323L123.997 28.9323C123.736 29.3329 123.531 29.645 123.405 29.8639H119.068L124.63 21.8099Z" fill="#504C67"/>
<path d="M77.1072 9.55831C77.1052 9.23953 77.1687 8.92373 77.2937 8.63047C77.4187 8.33721 77.6025 8.07273 77.8339 7.85341C78.3006 7.39116 78.9309 7.13184 79.5877 7.13184C80.2446 7.13184 80.8748 7.39116 81.3415 7.85341C81.5781 8.07285 81.7656 8.33986 81.8916 8.63691C82.0177 8.93396 82.0794 9.25432 82.0729 9.57694C82.0692 10.2305 81.8069 10.8561 81.3435 11.3169C80.88 11.7778 80.253 12.0365 79.5994 12.0365C79.2719 12.0419 78.9468 11.9812 78.6434 11.8579C78.3401 11.7347 78.0647 11.5514 77.8339 11.3191C77.5985 11.0911 77.4125 10.8172 77.2875 10.5142C77.1625 10.2113 77.1011 9.88594 77.1072 9.55831Z" fill="#504C67"/>
</g>
<defs>
<clipPath id="clip0_104_3583">
<rect width="134.678" height="37" fill="white" transform="translate(0.181885)"/>
</clipPath>
</defs>
</svg>
